%TF.GenerationSoftware,KiCad,Pcbnew,6.0.4*%
%TF.CreationDate,2022-05-05T23:13:16+02:00*%
%TF.ProjectId,FrisbeeMitBiene02,46726973-6265-4654-9d69-744269656e65,rev?*%
%TF.SameCoordinates,Original*%
%TF.FileFunction,Other,User*%
%FSLAX46Y46*%
G04 Gerber Fmt 4.6, Leading zero omitted, Abs format (unit mm)*
G04 Created by KiCad (PCBNEW 6.0.4) date 2022-05-05 23:13:16*
%MOMM*%
%LPD*%
G01*
G04 APERTURE LIST*
%ADD10C,0.050000*%
%ADD11C,0.120000*%
G04 APERTURE END LIST*
D10*
%TO.C,R1*%
X131679600Y-90853400D02*
X136239600Y-90853400D01*
X136239600Y-93093400D02*
X131679600Y-93093400D01*
X131679600Y-93093400D02*
X131679600Y-90853400D01*
X136239600Y-90853400D02*
X136239600Y-93093400D01*
%TO.C,R2*%
X131679600Y-95862000D02*
X131679600Y-93622000D01*
X136239600Y-95862000D02*
X131679600Y-95862000D01*
X131679600Y-93622000D02*
X136239600Y-93622000D01*
X136239600Y-93622000D02*
X136239600Y-95862000D01*
%TO.C,R3*%
X133801200Y-118717200D02*
X133801200Y-120957200D01*
X129241200Y-118717200D02*
X133801200Y-118717200D01*
X133801200Y-120957200D02*
X129241200Y-120957200D01*
X129241200Y-120957200D02*
X129241200Y-118717200D01*
%TO.C,R6*%
X169487600Y-102745400D02*
X164927600Y-102745400D01*
X164927600Y-100505400D02*
X169487600Y-100505400D01*
X164927600Y-102745400D02*
X164927600Y-100505400D01*
X169487600Y-100505400D02*
X169487600Y-102745400D01*
%TO.C,R5*%
X164953000Y-103299400D02*
X169513000Y-103299400D01*
X169513000Y-105539400D02*
X164953000Y-105539400D01*
X164953000Y-105539400D02*
X164953000Y-103299400D01*
X169513000Y-103299400D02*
X169513000Y-105539400D01*
%TO.C,R4*%
X133801200Y-123802000D02*
X129241200Y-123802000D01*
X129241200Y-121562000D02*
X133801200Y-121562000D01*
X133801200Y-121562000D02*
X133801200Y-123802000D01*
X129241200Y-123802000D02*
X129241200Y-121562000D01*
%TO.C,R7*%
X142615000Y-127205600D02*
X138055000Y-127205600D01*
X142615000Y-124965600D02*
X142615000Y-127205600D01*
X138055000Y-124965600D02*
X142615000Y-124965600D01*
X138055000Y-127205600D02*
X138055000Y-124965600D01*
D11*
%TO.C,U1*%
X161000000Y-67000000D02*
X161000000Y-119000000D01*
X139000000Y-119000000D02*
X139000000Y-67000000D01*
X161000000Y-119000000D02*
X139000000Y-119000000D01*
X139000000Y-67000000D02*
X161000000Y-67000000D01*
D10*
%TO.C,OesenPinHeader1*%
X154525000Y-148400000D02*
X154525000Y-144800000D01*
X145875000Y-148400000D02*
X154525000Y-148400000D01*
X154525000Y-144800000D02*
X145875000Y-144800000D01*
X145875000Y-144800000D02*
X145875000Y-148400000D01*
%TO.C,NeoPixel1*%
X153550000Y-137550000D02*
X153550000Y-132050000D01*
X146650000Y-132050000D02*
X146650000Y-137550000D01*
X146650000Y-137550000D02*
X153550000Y-137550000D01*
X153550000Y-132050000D02*
X146650000Y-132050000D01*
%TO.C,R8*%
X157720000Y-127120000D02*
X157720000Y-124880000D01*
X157720000Y-124880000D02*
X162280000Y-124880000D01*
X162280000Y-124880000D02*
X162280000Y-127120000D01*
X162280000Y-127120000D02*
X157720000Y-127120000D01*
%TD*%
M02*
