M48
; DRILL file {KiCad 6.0.4} date Do 05 Mai 2022 23:13:28 CEST
; FORMAT={-:-/ absolute / inch / decimal}
; #@! TF.CreationDate,2022-05-05T23:13:28+02:00
; #@! TF.GenerationSoftware,Kicad,Pcbnew,6.0.4
; #@! TF.FileFunction,Plated,1,2,PTH
FMAT,2
INCH
; #@! TA.AperFunction,Plated,PTH,ViaDrill
T1C0.0157
; #@! TA.AperFunction,Plated,PTH,ComponentDrill
T2C0.0394
; #@! TA.AperFunction,Plated,PTH,ComponentDrill
T3C0.1250
%
G90
G05
T1
X5.8937Y-4.8622
X5.905Y-2.914
T2
X5.8128Y-5.7717
X5.9128Y-5.7717
X6.0128Y-5.7717
T3
X4.3248Y-3.9151
X4.334Y-4.764
X4.4596Y-4.33
X4.6564Y-4.33
X4.7432Y-3.1832
X4.757Y-5.494
X4.872Y-3.8936
X4.872Y-4.0904
X4.872Y-4.5472
X4.872Y-4.7441
X5.0846Y-4.326
X5.2814Y-4.326
X5.488Y-5.909
X6.332Y-5.907
X6.8898Y-3.937
X6.8898Y-4.1339
X6.891Y-4.5036
X6.891Y-4.7004
X7.057Y-5.488
X7.064Y-3.183
X7.4808Y-4.759
X7.4868Y-3.917
T0
M30
