%TF.GenerationSoftware,KiCad,Pcbnew,6.0.4*%
%TF.CreationDate,2022-05-06T01:24:21+02:00*%
%TF.ProjectId,FrisbeeMitBiene02,46726973-6265-4654-9d69-744269656e65,rev?*%
%TF.SameCoordinates,Original*%
%TF.FileFunction,AssemblyDrawing,Top*%
%FSLAX46Y46*%
G04 Gerber Fmt 4.6, Leading zero omitted, Abs format (unit mm)*
G04 Created by KiCad (PCBNEW 6.0.4) date 2022-05-06 01:24:21*
%MOMM*%
%LPD*%
G01*
G04 APERTURE LIST*
%ADD10C,0.150000*%
%ADD11C,0.120000*%
%ADD12C,0.300000*%
%ADD13C,0.100000*%
G04 APERTURE END LIST*
D10*
%TO.C,R1*%
X133054838Y-89605780D02*
X133673885Y-89605780D01*
X133340552Y-89986733D01*
X133483409Y-89986733D01*
X133578647Y-90034352D01*
X133626266Y-90081971D01*
X133673885Y-90177209D01*
X133673885Y-90415304D01*
X133626266Y-90510542D01*
X133578647Y-90558161D01*
X133483409Y-90605780D01*
X133197695Y-90605780D01*
X133102457Y-90558161D01*
X133054838Y-90510542D01*
X134102457Y-90605780D02*
X134102457Y-89605780D01*
X134435790Y-90320066D01*
X134769123Y-89605780D01*
X134769123Y-90605780D01*
D11*
X133826266Y-92335304D02*
X133559600Y-91954352D01*
X133369123Y-92335304D02*
X133369123Y-91535304D01*
X133673885Y-91535304D01*
X133750076Y-91573400D01*
X133788171Y-91611495D01*
X133826266Y-91687685D01*
X133826266Y-91801971D01*
X133788171Y-91878161D01*
X133750076Y-91916257D01*
X133673885Y-91954352D01*
X133369123Y-91954352D01*
X134588171Y-92335304D02*
X134131028Y-92335304D01*
X134359600Y-92335304D02*
X134359600Y-91535304D01*
X134283409Y-91649590D01*
X134207219Y-91725780D01*
X134131028Y-91763876D01*
D10*
%TO.C,PWR1*%
X187517614Y-96482655D02*
X187241976Y-95521394D01*
X187608171Y-95416389D01*
X187712846Y-95435912D01*
X187771746Y-95468561D01*
X187843771Y-95546984D01*
X187883148Y-95684307D01*
X187863625Y-95788981D01*
X187830976Y-95847881D01*
X187752553Y-95919907D01*
X187386358Y-96024912D01*
X188111689Y-95272007D02*
X188616198Y-96167641D01*
X188602412Y-95428523D01*
X188982393Y-96062637D01*
X188935628Y-95035747D01*
X190126753Y-95734497D02*
X189675076Y-95368632D01*
X189577460Y-95892004D02*
X189301823Y-94930742D01*
X189668018Y-94825737D01*
X189772692Y-94845261D01*
X189831592Y-94877909D01*
X189903618Y-94956333D01*
X189942994Y-95093656D01*
X189923471Y-95198330D01*
X189890822Y-95257230D01*
X189812399Y-95329255D01*
X189446204Y-95434260D01*
X191042240Y-95471985D02*
X190492947Y-95629492D01*
X190767594Y-95550739D02*
X190491956Y-94589477D01*
X190439784Y-94753051D01*
X190374487Y-94870851D01*
X190296064Y-94942877D01*
X188346245Y-103838393D02*
X188895537Y-103680886D01*
X188896529Y-104720901D02*
X188620891Y-103759639D01*
X189491595Y-104550268D02*
X189215958Y-103589006D01*
X189582153Y-103484002D01*
X189686827Y-103503525D01*
X189745727Y-103536174D01*
X189817753Y-103614597D01*
X189857129Y-103751920D01*
X189837606Y-103856594D01*
X189804958Y-103915494D01*
X189726534Y-103987520D01*
X189360339Y-104092525D01*
X190818061Y-103129611D02*
X191413128Y-102958978D01*
X191197712Y-103417052D01*
X191335035Y-103377676D01*
X191439709Y-103397199D01*
X191498609Y-103429848D01*
X191570635Y-103508271D01*
X191636263Y-103737142D01*
X191616739Y-103841817D01*
X191584091Y-103900717D01*
X191505667Y-103972742D01*
X191231021Y-104051496D01*
X191126347Y-104031973D01*
X191067447Y-103999324D01*
X191825427Y-103187520D02*
X192238057Y-103762733D01*
X192283171Y-103056264D01*
X192465938Y-102657090D02*
X193061005Y-102486457D01*
X192845589Y-102944531D01*
X192982912Y-102905154D01*
X193087586Y-102924678D01*
X193146486Y-102957326D01*
X193218512Y-103035749D01*
X193284140Y-103264621D01*
X193264617Y-103369296D01*
X193231968Y-103428196D01*
X193153545Y-103500221D01*
X192878898Y-103578975D01*
X192774224Y-103559451D01*
X192715324Y-103526803D01*
%TO.C,GND1*%
X111936385Y-96043325D02*
X112016053Y-96113971D01*
X112154043Y-96150945D01*
X112304357Y-96141923D01*
X112420999Y-96074579D01*
X112491645Y-95994911D01*
X112586940Y-95823250D01*
X112623915Y-95685260D01*
X112627217Y-95488950D01*
X112605870Y-95384632D01*
X112538526Y-95267990D01*
X112412862Y-95185019D01*
X112320869Y-95160370D01*
X112170555Y-95169392D01*
X112112234Y-95203064D01*
X112025961Y-95525039D01*
X112209946Y-95574338D01*
X111722915Y-95000149D02*
X111464096Y-95966074D01*
X111170957Y-94852252D01*
X110912138Y-95818178D01*
X110710992Y-94729005D02*
X110452173Y-95694931D01*
X110222191Y-95633307D01*
X110096526Y-95550336D01*
X110029183Y-95433694D01*
X110007836Y-95329376D01*
X110011138Y-95133066D01*
X110048112Y-94995076D01*
X110143408Y-94823415D01*
X110214054Y-94743747D01*
X110330696Y-94676403D01*
X110481010Y-94667381D01*
X110710992Y-94729005D01*
X109239106Y-94334614D02*
X109791063Y-94482510D01*
X109515084Y-94408562D02*
X109256265Y-95374488D01*
X109385232Y-95261148D01*
X109501875Y-95193804D01*
X109606192Y-95172457D01*
X112370918Y-104988844D02*
X111818960Y-104840947D01*
X112353758Y-103948970D02*
X112094939Y-104914896D01*
X111375508Y-103736147D02*
X111479825Y-103714800D01*
X111663811Y-103764099D01*
X111743479Y-103834745D01*
X111764826Y-103939063D01*
X111666229Y-104307034D01*
X111595583Y-104386703D01*
X111491265Y-104408050D01*
X111307279Y-104358751D01*
X111227611Y-104288105D01*
X111206264Y-104183787D01*
X111230914Y-104091794D01*
X111715528Y-104123049D01*
X110961539Y-103625225D02*
X110881871Y-103554579D01*
X110697885Y-103505280D01*
X110593568Y-103526627D01*
X110522922Y-103606295D01*
X110510597Y-103652292D01*
X110531944Y-103756609D01*
X110611612Y-103827255D01*
X110749602Y-103864230D01*
X110829270Y-103934875D01*
X110850617Y-104039193D01*
X110838292Y-104085190D01*
X110767646Y-104164858D01*
X110663329Y-104186205D01*
X110525339Y-104149231D01*
X110445671Y-104078585D01*
X110111371Y-104038308D02*
X109743399Y-103939710D01*
X109887109Y-104323309D02*
X110108954Y-103495373D01*
X110087607Y-103391055D01*
X110007938Y-103320409D01*
X109915945Y-103295760D01*
X109593970Y-103209487D02*
X109335151Y-104175413D01*
X108967179Y-104076815D01*
X108887511Y-104006169D01*
X108853839Y-103947848D01*
X108832492Y-103843530D01*
X108869467Y-103705541D01*
X108940112Y-103625873D01*
X108998434Y-103592201D01*
X109102751Y-103570854D01*
X109470723Y-103669452D01*
X108490055Y-102913694D02*
X108569723Y-102984340D01*
X108603395Y-103042661D01*
X108624742Y-103146978D01*
X108550794Y-103422957D01*
X108480148Y-103502625D01*
X108421827Y-103536297D01*
X108317509Y-103557644D01*
X108179520Y-103520670D01*
X108099851Y-103450024D01*
X108066180Y-103391703D01*
X108044833Y-103287385D01*
X108118781Y-103011407D01*
X108189427Y-102931738D01*
X108247748Y-102898067D01*
X108352066Y-102876720D01*
X108490055Y-102913694D01*
X107754111Y-102716498D02*
X107581565Y-103360449D01*
X107495292Y-103682424D02*
X107553614Y-103648752D01*
X107519942Y-103590431D01*
X107461621Y-103624103D01*
X107495292Y-103682424D01*
X107519942Y-103590431D01*
X107121601Y-103237202D02*
X107294147Y-102593251D01*
X107146250Y-103145209D02*
X107087929Y-103178880D01*
X106983611Y-103200228D01*
X106845622Y-103163253D01*
X106765954Y-103092607D01*
X106744607Y-102988290D01*
X106880179Y-102482329D01*
X106385657Y-103040006D02*
X106017686Y-102941408D01*
X106161395Y-103325007D02*
X106383240Y-102497071D01*
X106361893Y-102392753D01*
X106282224Y-102322107D01*
X106190232Y-102297458D01*
%TO.C,GND2*%
X123964259Y-79148148D02*
X123997930Y-79249164D01*
X124098946Y-79350179D01*
X124233633Y-79417522D01*
X124368320Y-79417522D01*
X124469335Y-79383851D01*
X124637694Y-79282835D01*
X124738709Y-79181820D01*
X124839724Y-79013461D01*
X124873396Y-78912446D01*
X124873396Y-78777759D01*
X124806052Y-78643072D01*
X124738709Y-78575729D01*
X124604022Y-78508385D01*
X124536678Y-78508385D01*
X124300976Y-78744087D01*
X124435663Y-78878774D01*
X124300976Y-78137996D02*
X123593869Y-78845103D01*
X123896915Y-77733935D01*
X123189808Y-78441042D01*
X123560198Y-77397217D02*
X122853091Y-78104324D01*
X122684732Y-77935965D01*
X122617389Y-77801278D01*
X122617389Y-77666591D01*
X122651060Y-77565576D01*
X122752076Y-77397217D01*
X122853091Y-77296202D01*
X123021450Y-77195187D01*
X123122465Y-77161515D01*
X123257152Y-77161515D01*
X123391839Y-77228859D01*
X123560198Y-77397217D01*
X122246999Y-77363546D02*
X122179656Y-77363546D01*
X122078641Y-77329874D01*
X121910282Y-77161515D01*
X121876610Y-77060500D01*
X121876610Y-76993156D01*
X121910282Y-76892141D01*
X121977625Y-76824798D01*
X122112312Y-76757454D01*
X122920434Y-76757454D01*
X122482702Y-76319721D01*
X119787482Y-86767862D02*
X119383421Y-86363801D01*
X120292558Y-85858725D02*
X119585451Y-86565832D01*
X119551780Y-85185290D02*
X119652795Y-85218962D01*
X119787482Y-85353649D01*
X119821154Y-85454664D01*
X119787482Y-85555679D01*
X119518108Y-85825053D01*
X119417093Y-85858725D01*
X119316077Y-85825053D01*
X119181390Y-85690366D01*
X119147719Y-85589351D01*
X119181390Y-85488336D01*
X119248734Y-85420992D01*
X119652795Y-85690366D01*
X119248734Y-84882244D02*
X119215062Y-84781229D01*
X119080375Y-84646542D01*
X118979360Y-84612870D01*
X118878345Y-84646542D01*
X118844673Y-84680214D01*
X118811001Y-84781229D01*
X118844673Y-84882244D01*
X118945688Y-84983259D01*
X118979360Y-85084275D01*
X118945688Y-85185290D01*
X118912016Y-85218962D01*
X118811001Y-85252633D01*
X118709986Y-85218962D01*
X118608971Y-85117946D01*
X118575299Y-85016931D01*
X118305925Y-84814901D02*
X118036551Y-84545527D01*
X117969207Y-84949588D02*
X118575299Y-84343496D01*
X118608971Y-84242481D01*
X118575299Y-84141466D01*
X118507955Y-84074122D01*
X118272253Y-83838420D02*
X117565146Y-84545527D01*
X117295772Y-84276153D01*
X117262101Y-84175137D01*
X117262101Y-84107794D01*
X117295772Y-84006779D01*
X117396788Y-83905763D01*
X117497803Y-83872092D01*
X117565146Y-83872092D01*
X117666162Y-83905763D01*
X117935536Y-84175137D01*
X117464131Y-83030298D02*
X117497803Y-83131313D01*
X117497803Y-83198657D01*
X117464131Y-83299672D01*
X117262101Y-83501702D01*
X117161085Y-83535374D01*
X117093742Y-83535374D01*
X116992727Y-83501702D01*
X116891711Y-83400687D01*
X116858040Y-83299672D01*
X116858040Y-83232328D01*
X116891711Y-83131313D01*
X117093742Y-82929283D01*
X117194757Y-82895611D01*
X117262101Y-82895611D01*
X117363116Y-82929283D01*
X117464131Y-83030298D01*
X116925383Y-82491550D02*
X116453979Y-82962954D01*
X116218276Y-83198657D02*
X116285620Y-83198657D01*
X116285620Y-83131313D01*
X116218276Y-83131313D01*
X116218276Y-83198657D01*
X116285620Y-83131313D01*
X116117261Y-82626237D02*
X116588666Y-82154832D01*
X116184605Y-82558893D02*
X116117261Y-82558893D01*
X116016246Y-82525222D01*
X115915231Y-82424206D01*
X115881559Y-82323191D01*
X115915231Y-82222176D01*
X116285620Y-81851787D01*
X115578513Y-82087489D02*
X115309139Y-81818115D01*
X115241796Y-82222176D02*
X115847887Y-81616084D01*
X115881559Y-81515069D01*
X115847887Y-81414054D01*
X115780544Y-81346710D01*
%TO.C,D1*%
X117535336Y-137721271D02*
X116803983Y-137039273D01*
X116966363Y-136865141D01*
X117098618Y-136793138D01*
X117233223Y-136788438D01*
X117335352Y-136818563D01*
X117507133Y-136913642D01*
X117611612Y-137011070D01*
X117718442Y-137175801D01*
X117755618Y-137275579D01*
X117760319Y-137410184D01*
X117697717Y-137547139D01*
X117535336Y-137721271D01*
X118574572Y-136606828D02*
X118184858Y-137024744D01*
X118379715Y-136815786D02*
X117648361Y-136133787D01*
X117687888Y-136300868D01*
X117692589Y-136435473D01*
X117662463Y-136537602D01*
X121242506Y-144777951D02*
X121632220Y-144360034D01*
X122168717Y-145250991D02*
X121437363Y-144568993D01*
X122815889Y-144487161D02*
X122785763Y-144589290D01*
X122655858Y-144728596D01*
X122556080Y-144765772D01*
X122453951Y-144735646D01*
X122175340Y-144475837D01*
X122138163Y-144376059D01*
X122168289Y-144273930D01*
X122298194Y-144134624D01*
X122397972Y-144097448D01*
X122500101Y-144127574D01*
X122569754Y-144192526D01*
X122314646Y-144605742D01*
X123108174Y-144173724D02*
X123207952Y-144136547D01*
X123337857Y-143997242D01*
X123367983Y-143895113D01*
X123330806Y-143795334D01*
X123295980Y-143762858D01*
X123193851Y-143732732D01*
X123094072Y-143769909D01*
X122996644Y-143874388D01*
X122896865Y-143911565D01*
X122794736Y-143881439D01*
X122759910Y-143848963D01*
X122722734Y-143749184D01*
X122752859Y-143647055D01*
X122850288Y-143542576D01*
X122950066Y-143505400D01*
X123142573Y-143229139D02*
X123402382Y-142950528D01*
X122996216Y-142897327D02*
X123623091Y-143481897D01*
X123725220Y-143512023D01*
X123824999Y-143474846D01*
X123889951Y-143405194D01*
X124117284Y-143161409D02*
X123385930Y-142479411D01*
X123645739Y-142200800D01*
X123745517Y-142163623D01*
X123812820Y-142161273D01*
X123914949Y-142191399D01*
X124019428Y-142288827D01*
X124056604Y-142388606D01*
X124058955Y-142455908D01*
X124028829Y-142558037D01*
X123769020Y-142836648D01*
X124896710Y-142325576D02*
X124796932Y-142362753D01*
X124729629Y-142365103D01*
X124627500Y-142334977D01*
X124418542Y-142140121D01*
X124381365Y-142040342D01*
X124379015Y-141973040D01*
X124409141Y-141870911D01*
X124506569Y-141766432D01*
X124606348Y-141729255D01*
X124673651Y-141726905D01*
X124775779Y-141757031D01*
X124984738Y-141951887D01*
X125021914Y-142051666D01*
X125024264Y-142118968D01*
X124994139Y-142221097D01*
X124896710Y-142325576D01*
X125416328Y-141768354D02*
X124928759Y-141313689D01*
X124684974Y-141086356D02*
X124687325Y-141153658D01*
X124754627Y-141151308D01*
X124752277Y-141084006D01*
X124684974Y-141086356D01*
X124754627Y-141151308D01*
X125253520Y-140965425D02*
X125741089Y-141420091D01*
X125323173Y-141030377D02*
X125320822Y-140963075D01*
X125350948Y-140860946D01*
X125448377Y-140756467D01*
X125548155Y-140719290D01*
X125650284Y-140749416D01*
X126033374Y-141106653D01*
X125773138Y-140408203D02*
X126032947Y-140129592D01*
X125626782Y-140076391D02*
X126253656Y-140660961D01*
X126355785Y-140691087D01*
X126455564Y-140653911D01*
X126520516Y-140584258D01*
%TO.C,D10/Up1*%
X120289580Y-104409476D02*
X119289580Y-104409476D01*
X119289580Y-104171380D01*
X119337200Y-104028523D01*
X119432438Y-103933285D01*
X119527676Y-103885666D01*
X119718152Y-103838047D01*
X119861009Y-103838047D01*
X120051485Y-103885666D01*
X120146723Y-103933285D01*
X120241961Y-104028523D01*
X120289580Y-104171380D01*
X120289580Y-104409476D01*
X120289580Y-102885666D02*
X120289580Y-103457095D01*
X120289580Y-103171380D02*
X119289580Y-103171380D01*
X119432438Y-103266619D01*
X119527676Y-103361857D01*
X119575295Y-103457095D01*
X119289580Y-102266619D02*
X119289580Y-102171380D01*
X119337200Y-102076142D01*
X119384819Y-102028523D01*
X119480057Y-101980904D01*
X119670533Y-101933285D01*
X119908628Y-101933285D01*
X120099104Y-101980904D01*
X120194342Y-102028523D01*
X120241961Y-102076142D01*
X120289580Y-102171380D01*
X120289580Y-102266619D01*
X120241961Y-102361857D01*
X120194342Y-102409476D01*
X120099104Y-102457095D01*
X119908628Y-102504714D01*
X119670533Y-102504714D01*
X119480057Y-102457095D01*
X119384819Y-102409476D01*
X119337200Y-102361857D01*
X119289580Y-102266619D01*
X119241961Y-100790428D02*
X120527676Y-101647571D01*
X119289580Y-100457095D02*
X120099104Y-100457095D01*
X120194342Y-100409476D01*
X120241961Y-100361857D01*
X120289580Y-100266619D01*
X120289580Y-100076142D01*
X120241961Y-99980904D01*
X120194342Y-99933285D01*
X120099104Y-99885666D01*
X119289580Y-99885666D01*
X119622914Y-99409476D02*
X120622914Y-99409476D01*
X119670533Y-99409476D02*
X119622914Y-99314238D01*
X119622914Y-99123761D01*
X119670533Y-99028523D01*
X119718152Y-98980904D01*
X119813390Y-98933285D01*
X120099104Y-98933285D01*
X120194342Y-98980904D01*
X120241961Y-99028523D01*
X120289580Y-99123761D01*
X120289580Y-99314238D01*
X120241961Y-99409476D01*
X120289580Y-97980904D02*
X120289580Y-98552333D01*
X120289580Y-98266619D02*
X119289580Y-98266619D01*
X119432438Y-98361857D01*
X119527676Y-98457095D01*
X119575295Y-98552333D01*
X126701180Y-104730133D02*
X126701180Y-104158704D01*
X127701180Y-104444419D02*
X126701180Y-104444419D01*
X127653561Y-103444419D02*
X127701180Y-103539657D01*
X127701180Y-103730133D01*
X127653561Y-103825371D01*
X127558323Y-103872990D01*
X127177371Y-103872990D01*
X127082133Y-103825371D01*
X127034514Y-103730133D01*
X127034514Y-103539657D01*
X127082133Y-103444419D01*
X127177371Y-103396800D01*
X127272609Y-103396800D01*
X127367847Y-103872990D01*
X127653561Y-103015847D02*
X127701180Y-102920609D01*
X127701180Y-102730133D01*
X127653561Y-102634895D01*
X127558323Y-102587276D01*
X127510704Y-102587276D01*
X127415466Y-102634895D01*
X127367847Y-102730133D01*
X127367847Y-102872990D01*
X127320228Y-102968228D01*
X127224990Y-103015847D01*
X127177371Y-103015847D01*
X127082133Y-102968228D01*
X127034514Y-102872990D01*
X127034514Y-102730133D01*
X127082133Y-102634895D01*
X127034514Y-102301561D02*
X127034514Y-101920609D01*
X126701180Y-102158704D02*
X127558323Y-102158704D01*
X127653561Y-102111085D01*
X127701180Y-102015847D01*
X127701180Y-101920609D01*
X127701180Y-101587276D02*
X126701180Y-101587276D01*
X126701180Y-101206323D01*
X126748800Y-101111085D01*
X126796419Y-101063466D01*
X126891657Y-101015847D01*
X127034514Y-101015847D01*
X127129752Y-101063466D01*
X127177371Y-101111085D01*
X127224990Y-101206323D01*
X127224990Y-101587276D01*
X127701180Y-100444419D02*
X127653561Y-100539657D01*
X127605942Y-100587276D01*
X127510704Y-100634895D01*
X127224990Y-100634895D01*
X127129752Y-100587276D01*
X127082133Y-100539657D01*
X127034514Y-100444419D01*
X127034514Y-100301561D01*
X127082133Y-100206323D01*
X127129752Y-100158704D01*
X127224990Y-100111085D01*
X127510704Y-100111085D01*
X127605942Y-100158704D01*
X127653561Y-100206323D01*
X127701180Y-100301561D01*
X127701180Y-100444419D01*
X127701180Y-99682514D02*
X127034514Y-99682514D01*
X126701180Y-99682514D02*
X126748800Y-99730133D01*
X126796419Y-99682514D01*
X126748800Y-99634895D01*
X126701180Y-99682514D01*
X126796419Y-99682514D01*
X127034514Y-99206323D02*
X127701180Y-99206323D01*
X127129752Y-99206323D02*
X127082133Y-99158704D01*
X127034514Y-99063466D01*
X127034514Y-98920609D01*
X127082133Y-98825371D01*
X127177371Y-98777752D01*
X127701180Y-98777752D01*
X127034514Y-98444419D02*
X127034514Y-98063466D01*
X126701180Y-98301561D02*
X127558323Y-98301561D01*
X127653561Y-98253942D01*
X127701180Y-98158704D01*
X127701180Y-98063466D01*
%TO.C,D12/Right1*%
X111880342Y-106934380D02*
X111880342Y-105934380D01*
X112118438Y-105934380D01*
X112261295Y-105982000D01*
X112356533Y-106077238D01*
X112404152Y-106172476D01*
X112451771Y-106362952D01*
X112451771Y-106505809D01*
X112404152Y-106696285D01*
X112356533Y-106791523D01*
X112261295Y-106886761D01*
X112118438Y-106934380D01*
X111880342Y-106934380D01*
X113404152Y-106934380D02*
X112832723Y-106934380D01*
X113118438Y-106934380D02*
X113118438Y-105934380D01*
X113023200Y-106077238D01*
X112927961Y-106172476D01*
X112832723Y-106220095D01*
X113785104Y-106029619D02*
X113832723Y-105982000D01*
X113927961Y-105934380D01*
X114166057Y-105934380D01*
X114261295Y-105982000D01*
X114308914Y-106029619D01*
X114356533Y-106124857D01*
X114356533Y-106220095D01*
X114308914Y-106362952D01*
X113737485Y-106934380D01*
X114356533Y-106934380D01*
X115499390Y-105886761D02*
X114642247Y-107172476D01*
X116404152Y-106934380D02*
X116070819Y-106458190D01*
X115832723Y-106934380D02*
X115832723Y-105934380D01*
X116213676Y-105934380D01*
X116308914Y-105982000D01*
X116356533Y-106029619D01*
X116404152Y-106124857D01*
X116404152Y-106267714D01*
X116356533Y-106362952D01*
X116308914Y-106410571D01*
X116213676Y-106458190D01*
X115832723Y-106458190D01*
X116832723Y-106934380D02*
X116832723Y-106267714D01*
X116832723Y-105934380D02*
X116785104Y-105982000D01*
X116832723Y-106029619D01*
X116880342Y-105982000D01*
X116832723Y-105934380D01*
X116832723Y-106029619D01*
X117737485Y-106267714D02*
X117737485Y-107077238D01*
X117689866Y-107172476D01*
X117642247Y-107220095D01*
X117547009Y-107267714D01*
X117404152Y-107267714D01*
X117308914Y-107220095D01*
X117737485Y-106886761D02*
X117642247Y-106934380D01*
X117451771Y-106934380D01*
X117356533Y-106886761D01*
X117308914Y-106839142D01*
X117261295Y-106743904D01*
X117261295Y-106458190D01*
X117308914Y-106362952D01*
X117356533Y-106315333D01*
X117451771Y-106267714D01*
X117642247Y-106267714D01*
X117737485Y-106315333D01*
X118213676Y-106934380D02*
X118213676Y-105934380D01*
X118642247Y-106934380D02*
X118642247Y-106410571D01*
X118594628Y-106315333D01*
X118499390Y-106267714D01*
X118356533Y-106267714D01*
X118261295Y-106315333D01*
X118213676Y-106362952D01*
X118975580Y-106267714D02*
X119356533Y-106267714D01*
X119118438Y-105934380D02*
X119118438Y-106791523D01*
X119166057Y-106886761D01*
X119261295Y-106934380D01*
X119356533Y-106934380D01*
X120213676Y-106934380D02*
X119642247Y-106934380D01*
X119927961Y-106934380D02*
X119927961Y-105934380D01*
X119832723Y-106077238D01*
X119737485Y-106172476D01*
X119642247Y-106220095D01*
X112689866Y-112934380D02*
X113261295Y-112934380D01*
X112975580Y-113934380D02*
X112975580Y-112934380D01*
X113975580Y-113886761D02*
X113880342Y-113934380D01*
X113689866Y-113934380D01*
X113594628Y-113886761D01*
X113547009Y-113791523D01*
X113547009Y-113410571D01*
X113594628Y-113315333D01*
X113689866Y-113267714D01*
X113880342Y-113267714D01*
X113975580Y-113315333D01*
X114023200Y-113410571D01*
X114023200Y-113505809D01*
X113547009Y-113601047D01*
X114404152Y-113886761D02*
X114499390Y-113934380D01*
X114689866Y-113934380D01*
X114785104Y-113886761D01*
X114832723Y-113791523D01*
X114832723Y-113743904D01*
X114785104Y-113648666D01*
X114689866Y-113601047D01*
X114547009Y-113601047D01*
X114451771Y-113553428D01*
X114404152Y-113458190D01*
X114404152Y-113410571D01*
X114451771Y-113315333D01*
X114547009Y-113267714D01*
X114689866Y-113267714D01*
X114785104Y-113315333D01*
X115118438Y-113267714D02*
X115499390Y-113267714D01*
X115261295Y-112934380D02*
X115261295Y-113791523D01*
X115308914Y-113886761D01*
X115404152Y-113934380D01*
X115499390Y-113934380D01*
X115832723Y-113934380D02*
X115832723Y-112934380D01*
X116213676Y-112934380D01*
X116308914Y-112982000D01*
X116356533Y-113029619D01*
X116404152Y-113124857D01*
X116404152Y-113267714D01*
X116356533Y-113362952D01*
X116308914Y-113410571D01*
X116213676Y-113458190D01*
X115832723Y-113458190D01*
X116975580Y-113934380D02*
X116880342Y-113886761D01*
X116832723Y-113839142D01*
X116785104Y-113743904D01*
X116785104Y-113458190D01*
X116832723Y-113362952D01*
X116880342Y-113315333D01*
X116975580Y-113267714D01*
X117118438Y-113267714D01*
X117213676Y-113315333D01*
X117261295Y-113362952D01*
X117308914Y-113458190D01*
X117308914Y-113743904D01*
X117261295Y-113839142D01*
X117213676Y-113886761D01*
X117118438Y-113934380D01*
X116975580Y-113934380D01*
X117737485Y-113934380D02*
X117737485Y-113267714D01*
X117737485Y-112934380D02*
X117689866Y-112982000D01*
X117737485Y-113029619D01*
X117785104Y-112982000D01*
X117737485Y-112934380D01*
X117737485Y-113029619D01*
X118213676Y-113267714D02*
X118213676Y-113934380D01*
X118213676Y-113362952D02*
X118261295Y-113315333D01*
X118356533Y-113267714D01*
X118499390Y-113267714D01*
X118594628Y-113315333D01*
X118642247Y-113410571D01*
X118642247Y-113934380D01*
X118975580Y-113267714D02*
X119356533Y-113267714D01*
X119118438Y-112934380D02*
X119118438Y-113791523D01*
X119166057Y-113886761D01*
X119261295Y-113934380D01*
X119356533Y-113934380D01*
%TO.C,D13/Down1*%
X120452380Y-122642857D02*
X119452380Y-122642857D01*
X119452380Y-122404761D01*
X119500000Y-122261904D01*
X119595238Y-122166666D01*
X119690476Y-122119047D01*
X119880952Y-122071428D01*
X120023809Y-122071428D01*
X120214285Y-122119047D01*
X120309523Y-122166666D01*
X120404761Y-122261904D01*
X120452380Y-122404761D01*
X120452380Y-122642857D01*
X120452380Y-121119047D02*
X120452380Y-121690476D01*
X120452380Y-121404761D02*
X119452380Y-121404761D01*
X119595238Y-121500000D01*
X119690476Y-121595238D01*
X119738095Y-121690476D01*
X119452380Y-120785714D02*
X119452380Y-120166666D01*
X119833333Y-120500000D01*
X119833333Y-120357142D01*
X119880952Y-120261904D01*
X119928571Y-120214285D01*
X120023809Y-120166666D01*
X120261904Y-120166666D01*
X120357142Y-120214285D01*
X120404761Y-120261904D01*
X120452380Y-120357142D01*
X120452380Y-120642857D01*
X120404761Y-120738095D01*
X120357142Y-120785714D01*
X119404761Y-119023809D02*
X120690476Y-119880952D01*
X120452380Y-118690476D02*
X119452380Y-118690476D01*
X119452380Y-118452380D01*
X119500000Y-118309523D01*
X119595238Y-118214285D01*
X119690476Y-118166666D01*
X119880952Y-118119047D01*
X120023809Y-118119047D01*
X120214285Y-118166666D01*
X120309523Y-118214285D01*
X120404761Y-118309523D01*
X120452380Y-118452380D01*
X120452380Y-118690476D01*
X120452380Y-117547619D02*
X120404761Y-117642857D01*
X120357142Y-117690476D01*
X120261904Y-117738095D01*
X119976190Y-117738095D01*
X119880952Y-117690476D01*
X119833333Y-117642857D01*
X119785714Y-117547619D01*
X119785714Y-117404761D01*
X119833333Y-117309523D01*
X119880952Y-117261904D01*
X119976190Y-117214285D01*
X120261904Y-117214285D01*
X120357142Y-117261904D01*
X120404761Y-117309523D01*
X120452380Y-117404761D01*
X120452380Y-117547619D01*
X119785714Y-116880952D02*
X120452380Y-116690476D01*
X119976190Y-116500000D01*
X120452380Y-116309523D01*
X119785714Y-116119047D01*
X119785714Y-115738095D02*
X120452380Y-115738095D01*
X119880952Y-115738095D02*
X119833333Y-115690476D01*
X119785714Y-115595238D01*
X119785714Y-115452380D01*
X119833333Y-115357142D01*
X119928571Y-115309523D01*
X120452380Y-115309523D01*
X120452380Y-114309523D02*
X120452380Y-114880952D01*
X120452380Y-114595238D02*
X119452380Y-114595238D01*
X119595238Y-114690476D01*
X119690476Y-114785714D01*
X119738095Y-114880952D01*
X126702380Y-122583333D02*
X126702380Y-122011904D01*
X127702380Y-122297619D02*
X126702380Y-122297619D01*
X127654761Y-121297619D02*
X127702380Y-121392857D01*
X127702380Y-121583333D01*
X127654761Y-121678571D01*
X127559523Y-121726190D01*
X127178571Y-121726190D01*
X127083333Y-121678571D01*
X127035714Y-121583333D01*
X127035714Y-121392857D01*
X127083333Y-121297619D01*
X127178571Y-121250000D01*
X127273809Y-121250000D01*
X127369047Y-121726190D01*
X127654761Y-120869047D02*
X127702380Y-120773809D01*
X127702380Y-120583333D01*
X127654761Y-120488095D01*
X127559523Y-120440476D01*
X127511904Y-120440476D01*
X127416666Y-120488095D01*
X127369047Y-120583333D01*
X127369047Y-120726190D01*
X127321428Y-120821428D01*
X127226190Y-120869047D01*
X127178571Y-120869047D01*
X127083333Y-120821428D01*
X127035714Y-120726190D01*
X127035714Y-120583333D01*
X127083333Y-120488095D01*
X127035714Y-120154761D02*
X127035714Y-119773809D01*
X126702380Y-120011904D02*
X127559523Y-120011904D01*
X127654761Y-119964285D01*
X127702380Y-119869047D01*
X127702380Y-119773809D01*
X127702380Y-119440476D02*
X126702380Y-119440476D01*
X126702380Y-119059523D01*
X126750000Y-118964285D01*
X126797619Y-118916666D01*
X126892857Y-118869047D01*
X127035714Y-118869047D01*
X127130952Y-118916666D01*
X127178571Y-118964285D01*
X127226190Y-119059523D01*
X127226190Y-119440476D01*
X127702380Y-118297619D02*
X127654761Y-118392857D01*
X127607142Y-118440476D01*
X127511904Y-118488095D01*
X127226190Y-118488095D01*
X127130952Y-118440476D01*
X127083333Y-118392857D01*
X127035714Y-118297619D01*
X127035714Y-118154761D01*
X127083333Y-118059523D01*
X127130952Y-118011904D01*
X127226190Y-117964285D01*
X127511904Y-117964285D01*
X127607142Y-118011904D01*
X127654761Y-118059523D01*
X127702380Y-118154761D01*
X127702380Y-118297619D01*
X127702380Y-117535714D02*
X127035714Y-117535714D01*
X126702380Y-117535714D02*
X126750000Y-117583333D01*
X126797619Y-117535714D01*
X126750000Y-117488095D01*
X126702380Y-117535714D01*
X126797619Y-117535714D01*
X127035714Y-117059523D02*
X127702380Y-117059523D01*
X127130952Y-117059523D02*
X127083333Y-117011904D01*
X127035714Y-116916666D01*
X127035714Y-116773809D01*
X127083333Y-116678571D01*
X127178571Y-116630952D01*
X127702380Y-116630952D01*
X127035714Y-116297619D02*
X127035714Y-115916666D01*
X126702380Y-116154761D02*
X127559523Y-116154761D01*
X127654761Y-116107142D01*
X127702380Y-116011904D01*
X127702380Y-115916666D01*
%TO.C,D20/Click1*%
X179233780Y-120938419D02*
X178233780Y-120938419D01*
X178233780Y-120700323D01*
X178281400Y-120557466D01*
X178376638Y-120462228D01*
X178471876Y-120414609D01*
X178662352Y-120366990D01*
X178805209Y-120366990D01*
X178995685Y-120414609D01*
X179090923Y-120462228D01*
X179186161Y-120557466D01*
X179233780Y-120700323D01*
X179233780Y-120938419D01*
X178329019Y-119986038D02*
X178281400Y-119938419D01*
X178233780Y-119843180D01*
X178233780Y-119605085D01*
X178281400Y-119509847D01*
X178329019Y-119462228D01*
X178424257Y-119414609D01*
X178519495Y-119414609D01*
X178662352Y-119462228D01*
X179233780Y-120033657D01*
X179233780Y-119414609D01*
X178233780Y-118795561D02*
X178233780Y-118700323D01*
X178281400Y-118605085D01*
X178329019Y-118557466D01*
X178424257Y-118509847D01*
X178614733Y-118462228D01*
X178852828Y-118462228D01*
X179043304Y-118509847D01*
X179138542Y-118557466D01*
X179186161Y-118605085D01*
X179233780Y-118700323D01*
X179233780Y-118795561D01*
X179186161Y-118890800D01*
X179138542Y-118938419D01*
X179043304Y-118986038D01*
X178852828Y-119033657D01*
X178614733Y-119033657D01*
X178424257Y-118986038D01*
X178329019Y-118938419D01*
X178281400Y-118890800D01*
X178233780Y-118795561D01*
X178186161Y-117319371D02*
X179471876Y-118176514D01*
X179138542Y-116414609D02*
X179186161Y-116462228D01*
X179233780Y-116605085D01*
X179233780Y-116700323D01*
X179186161Y-116843180D01*
X179090923Y-116938419D01*
X178995685Y-116986038D01*
X178805209Y-117033657D01*
X178662352Y-117033657D01*
X178471876Y-116986038D01*
X178376638Y-116938419D01*
X178281400Y-116843180D01*
X178233780Y-116700323D01*
X178233780Y-116605085D01*
X178281400Y-116462228D01*
X178329019Y-116414609D01*
X179233780Y-115843180D02*
X179186161Y-115938419D01*
X179090923Y-115986038D01*
X178233780Y-115986038D01*
X179233780Y-115462228D02*
X178567114Y-115462228D01*
X178233780Y-115462228D02*
X178281400Y-115509847D01*
X178329019Y-115462228D01*
X178281400Y-115414609D01*
X178233780Y-115462228D01*
X178329019Y-115462228D01*
X179186161Y-114557466D02*
X179233780Y-114652704D01*
X179233780Y-114843180D01*
X179186161Y-114938419D01*
X179138542Y-114986038D01*
X179043304Y-115033657D01*
X178757590Y-115033657D01*
X178662352Y-114986038D01*
X178614733Y-114938419D01*
X178567114Y-114843180D01*
X178567114Y-114652704D01*
X178614733Y-114557466D01*
X179233780Y-114128895D02*
X178233780Y-114128895D01*
X178852828Y-114033657D02*
X179233780Y-113747942D01*
X178567114Y-113747942D02*
X178948066Y-114128895D01*
X179233780Y-112795561D02*
X179233780Y-113366990D01*
X179233780Y-113081276D02*
X178233780Y-113081276D01*
X178376638Y-113176514D01*
X178471876Y-113271752D01*
X178519495Y-113366990D01*
X170483780Y-119974133D02*
X170483780Y-119402704D01*
X171483780Y-119688419D02*
X170483780Y-119688419D01*
X171436161Y-118688419D02*
X171483780Y-118783657D01*
X171483780Y-118974133D01*
X171436161Y-119069371D01*
X171340923Y-119116990D01*
X170959971Y-119116990D01*
X170864733Y-119069371D01*
X170817114Y-118974133D01*
X170817114Y-118783657D01*
X170864733Y-118688419D01*
X170959971Y-118640800D01*
X171055209Y-118640800D01*
X171150447Y-119116990D01*
X171436161Y-118259847D02*
X171483780Y-118164609D01*
X171483780Y-117974133D01*
X171436161Y-117878895D01*
X171340923Y-117831276D01*
X171293304Y-117831276D01*
X171198066Y-117878895D01*
X171150447Y-117974133D01*
X171150447Y-118116990D01*
X171102828Y-118212228D01*
X171007590Y-118259847D01*
X170959971Y-118259847D01*
X170864733Y-118212228D01*
X170817114Y-118116990D01*
X170817114Y-117974133D01*
X170864733Y-117878895D01*
X170817114Y-117545561D02*
X170817114Y-117164609D01*
X170483780Y-117402704D02*
X171340923Y-117402704D01*
X171436161Y-117355085D01*
X171483780Y-117259847D01*
X171483780Y-117164609D01*
X171483780Y-116831276D02*
X170483780Y-116831276D01*
X170483780Y-116450323D01*
X170531400Y-116355085D01*
X170579019Y-116307466D01*
X170674257Y-116259847D01*
X170817114Y-116259847D01*
X170912352Y-116307466D01*
X170959971Y-116355085D01*
X171007590Y-116450323D01*
X171007590Y-116831276D01*
X171483780Y-115688419D02*
X171436161Y-115783657D01*
X171388542Y-115831276D01*
X171293304Y-115878895D01*
X171007590Y-115878895D01*
X170912352Y-115831276D01*
X170864733Y-115783657D01*
X170817114Y-115688419D01*
X170817114Y-115545561D01*
X170864733Y-115450323D01*
X170912352Y-115402704D01*
X171007590Y-115355085D01*
X171293304Y-115355085D01*
X171388542Y-115402704D01*
X171436161Y-115450323D01*
X171483780Y-115545561D01*
X171483780Y-115688419D01*
X171483780Y-114926514D02*
X170817114Y-114926514D01*
X170483780Y-114926514D02*
X170531400Y-114974133D01*
X170579019Y-114926514D01*
X170531400Y-114878895D01*
X170483780Y-114926514D01*
X170579019Y-114926514D01*
X170817114Y-114450323D02*
X171483780Y-114450323D01*
X170912352Y-114450323D02*
X170864733Y-114402704D01*
X170817114Y-114307466D01*
X170817114Y-114164609D01*
X170864733Y-114069371D01*
X170959971Y-114021752D01*
X171483780Y-114021752D01*
X170817114Y-113688419D02*
X170817114Y-113307466D01*
X170483780Y-113545561D02*
X171340923Y-113545561D01*
X171436161Y-113497942D01*
X171483780Y-113402704D01*
X171483780Y-113307466D01*
%TO.C,R2*%
X133054838Y-96352380D02*
X133673885Y-96352380D01*
X133340552Y-96733333D01*
X133483409Y-96733333D01*
X133578647Y-96780952D01*
X133626266Y-96828571D01*
X133673885Y-96923809D01*
X133673885Y-97161904D01*
X133626266Y-97257142D01*
X133578647Y-97304761D01*
X133483409Y-97352380D01*
X133197695Y-97352380D01*
X133102457Y-97304761D01*
X133054838Y-97257142D01*
X134102457Y-97352380D02*
X134102457Y-96352380D01*
X134435790Y-97066666D01*
X134769123Y-96352380D01*
X134769123Y-97352380D01*
D11*
X133826266Y-95103904D02*
X133559600Y-94722952D01*
X133369123Y-95103904D02*
X133369123Y-94303904D01*
X133673885Y-94303904D01*
X133750076Y-94342000D01*
X133788171Y-94380095D01*
X133826266Y-94456285D01*
X133826266Y-94570571D01*
X133788171Y-94646761D01*
X133750076Y-94684857D01*
X133673885Y-94722952D01*
X133369123Y-94722952D01*
X134131028Y-94380095D02*
X134169123Y-94342000D01*
X134245314Y-94303904D01*
X134435790Y-94303904D01*
X134511980Y-94342000D01*
X134550076Y-94380095D01*
X134588171Y-94456285D01*
X134588171Y-94532476D01*
X134550076Y-94646761D01*
X134092933Y-95103904D01*
X134588171Y-95103904D01*
D10*
%TO.C,R3*%
X130616438Y-117469580D02*
X131235485Y-117469580D01*
X130902152Y-117850533D01*
X131045009Y-117850533D01*
X131140247Y-117898152D01*
X131187866Y-117945771D01*
X131235485Y-118041009D01*
X131235485Y-118279104D01*
X131187866Y-118374342D01*
X131140247Y-118421961D01*
X131045009Y-118469580D01*
X130759295Y-118469580D01*
X130664057Y-118421961D01*
X130616438Y-118374342D01*
X131664057Y-118469580D02*
X131664057Y-117469580D01*
X131997390Y-118183866D01*
X132330723Y-117469580D01*
X132330723Y-118469580D01*
D11*
X131387866Y-120199104D02*
X131121200Y-119818152D01*
X130930723Y-120199104D02*
X130930723Y-119399104D01*
X131235485Y-119399104D01*
X131311676Y-119437200D01*
X131349771Y-119475295D01*
X131387866Y-119551485D01*
X131387866Y-119665771D01*
X131349771Y-119741961D01*
X131311676Y-119780057D01*
X131235485Y-119818152D01*
X130930723Y-119818152D01*
X131654533Y-119399104D02*
X132149771Y-119399104D01*
X131883104Y-119703866D01*
X131997390Y-119703866D01*
X132073580Y-119741961D01*
X132111676Y-119780057D01*
X132149771Y-119856247D01*
X132149771Y-120046723D01*
X132111676Y-120122914D01*
X132073580Y-120161009D01*
X131997390Y-120199104D01*
X131768819Y-120199104D01*
X131692628Y-120161009D01*
X131654533Y-120122914D01*
D10*
%TO.C,R6*%
X166302838Y-99252380D02*
X166921885Y-99252380D01*
X166588552Y-99633333D01*
X166731409Y-99633333D01*
X166826647Y-99680952D01*
X166874266Y-99728571D01*
X166921885Y-99823809D01*
X166921885Y-100061904D01*
X166874266Y-100157142D01*
X166826647Y-100204761D01*
X166731409Y-100252380D01*
X166445695Y-100252380D01*
X166350457Y-100204761D01*
X166302838Y-100157142D01*
X167350457Y-100252380D02*
X167350457Y-99252380D01*
X167683790Y-99966666D01*
X168017123Y-99252380D01*
X168017123Y-100252380D01*
D11*
X167074266Y-101987304D02*
X166807600Y-101606352D01*
X166617123Y-101987304D02*
X166617123Y-101187304D01*
X166921885Y-101187304D01*
X166998076Y-101225400D01*
X167036171Y-101263495D01*
X167074266Y-101339685D01*
X167074266Y-101453971D01*
X167036171Y-101530161D01*
X166998076Y-101568257D01*
X166921885Y-101606352D01*
X166617123Y-101606352D01*
X167759980Y-101187304D02*
X167607600Y-101187304D01*
X167531409Y-101225400D01*
X167493314Y-101263495D01*
X167417123Y-101377780D01*
X167379028Y-101530161D01*
X167379028Y-101834923D01*
X167417123Y-101911114D01*
X167455219Y-101949209D01*
X167531409Y-101987304D01*
X167683790Y-101987304D01*
X167759980Y-101949209D01*
X167798076Y-101911114D01*
X167836171Y-101834923D01*
X167836171Y-101644447D01*
X167798076Y-101568257D01*
X167759980Y-101530161D01*
X167683790Y-101492066D01*
X167531409Y-101492066D01*
X167455219Y-101530161D01*
X167417123Y-101568257D01*
X167379028Y-101644447D01*
D10*
%TO.C,R5*%
X166328238Y-105691780D02*
X166947285Y-105691780D01*
X166613952Y-106072733D01*
X166756809Y-106072733D01*
X166852047Y-106120352D01*
X166899666Y-106167971D01*
X166947285Y-106263209D01*
X166947285Y-106501304D01*
X166899666Y-106596542D01*
X166852047Y-106644161D01*
X166756809Y-106691780D01*
X166471095Y-106691780D01*
X166375857Y-106644161D01*
X166328238Y-106596542D01*
X167375857Y-106691780D02*
X167375857Y-105691780D01*
X167709190Y-106406066D01*
X168042523Y-105691780D01*
X168042523Y-106691780D01*
D11*
X167099666Y-104781304D02*
X166833000Y-104400352D01*
X166642523Y-104781304D02*
X166642523Y-103981304D01*
X166947285Y-103981304D01*
X167023476Y-104019400D01*
X167061571Y-104057495D01*
X167099666Y-104133685D01*
X167099666Y-104247971D01*
X167061571Y-104324161D01*
X167023476Y-104362257D01*
X166947285Y-104400352D01*
X166642523Y-104400352D01*
X167823476Y-103981304D02*
X167442523Y-103981304D01*
X167404428Y-104362257D01*
X167442523Y-104324161D01*
X167518714Y-104286066D01*
X167709190Y-104286066D01*
X167785380Y-104324161D01*
X167823476Y-104362257D01*
X167861571Y-104438447D01*
X167861571Y-104628923D01*
X167823476Y-104705114D01*
X167785380Y-104743209D01*
X167709190Y-104781304D01*
X167518714Y-104781304D01*
X167442523Y-104743209D01*
X167404428Y-104705114D01*
D10*
%TO.C,R4*%
X130616438Y-123952380D02*
X131235485Y-123952380D01*
X130902152Y-124333333D01*
X131045009Y-124333333D01*
X131140247Y-124380952D01*
X131187866Y-124428571D01*
X131235485Y-124523809D01*
X131235485Y-124761904D01*
X131187866Y-124857142D01*
X131140247Y-124904761D01*
X131045009Y-124952380D01*
X130759295Y-124952380D01*
X130664057Y-124904761D01*
X130616438Y-124857142D01*
X131664057Y-124952380D02*
X131664057Y-123952380D01*
X131997390Y-124666666D01*
X132330723Y-123952380D01*
X132330723Y-124952380D01*
D11*
X131387866Y-123043904D02*
X131121200Y-122662952D01*
X130930723Y-123043904D02*
X130930723Y-122243904D01*
X131235485Y-122243904D01*
X131311676Y-122282000D01*
X131349771Y-122320095D01*
X131387866Y-122396285D01*
X131387866Y-122510571D01*
X131349771Y-122586761D01*
X131311676Y-122624857D01*
X131235485Y-122662952D01*
X130930723Y-122662952D01*
X132073580Y-122510571D02*
X132073580Y-123043904D01*
X131883104Y-122205809D02*
X131692628Y-122777238D01*
X132187866Y-122777238D01*
D10*
%TO.C,D11/Left1*%
X128029152Y-113832780D02*
X128029152Y-112832780D01*
X128267247Y-112832780D01*
X128410104Y-112880400D01*
X128505342Y-112975638D01*
X128552961Y-113070876D01*
X128600580Y-113261352D01*
X128600580Y-113404209D01*
X128552961Y-113594685D01*
X128505342Y-113689923D01*
X128410104Y-113785161D01*
X128267247Y-113832780D01*
X128029152Y-113832780D01*
X129552961Y-113832780D02*
X128981533Y-113832780D01*
X129267247Y-113832780D02*
X129267247Y-112832780D01*
X129172009Y-112975638D01*
X129076771Y-113070876D01*
X128981533Y-113118495D01*
X130505342Y-113832780D02*
X129933914Y-113832780D01*
X130219628Y-113832780D02*
X130219628Y-112832780D01*
X130124390Y-112975638D01*
X130029152Y-113070876D01*
X129933914Y-113118495D01*
X131648200Y-112785161D02*
X130791057Y-114070876D01*
X132457723Y-113832780D02*
X131981533Y-113832780D01*
X131981533Y-112832780D01*
X133172009Y-113785161D02*
X133076771Y-113832780D01*
X132886295Y-113832780D01*
X132791057Y-113785161D01*
X132743438Y-113689923D01*
X132743438Y-113308971D01*
X132791057Y-113213733D01*
X132886295Y-113166114D01*
X133076771Y-113166114D01*
X133172009Y-113213733D01*
X133219628Y-113308971D01*
X133219628Y-113404209D01*
X132743438Y-113499447D01*
X133505342Y-113166114D02*
X133886295Y-113166114D01*
X133648200Y-113832780D02*
X133648200Y-112975638D01*
X133695819Y-112880400D01*
X133791057Y-112832780D01*
X133886295Y-112832780D01*
X134076771Y-113166114D02*
X134457723Y-113166114D01*
X134219628Y-112832780D02*
X134219628Y-113689923D01*
X134267247Y-113785161D01*
X134362485Y-113832780D01*
X134457723Y-113832780D01*
X135314866Y-113832780D02*
X134743438Y-113832780D01*
X135029152Y-113832780D02*
X135029152Y-112832780D01*
X134933914Y-112975638D01*
X134838676Y-113070876D01*
X134743438Y-113118495D01*
X128314866Y-105832780D02*
X128886295Y-105832780D01*
X128600580Y-106832780D02*
X128600580Y-105832780D01*
X129600580Y-106785161D02*
X129505342Y-106832780D01*
X129314866Y-106832780D01*
X129219628Y-106785161D01*
X129172009Y-106689923D01*
X129172009Y-106308971D01*
X129219628Y-106213733D01*
X129314866Y-106166114D01*
X129505342Y-106166114D01*
X129600580Y-106213733D01*
X129648200Y-106308971D01*
X129648200Y-106404209D01*
X129172009Y-106499447D01*
X130029152Y-106785161D02*
X130124390Y-106832780D01*
X130314866Y-106832780D01*
X130410104Y-106785161D01*
X130457723Y-106689923D01*
X130457723Y-106642304D01*
X130410104Y-106547066D01*
X130314866Y-106499447D01*
X130172009Y-106499447D01*
X130076771Y-106451828D01*
X130029152Y-106356590D01*
X130029152Y-106308971D01*
X130076771Y-106213733D01*
X130172009Y-106166114D01*
X130314866Y-106166114D01*
X130410104Y-106213733D01*
X130743438Y-106166114D02*
X131124390Y-106166114D01*
X130886295Y-105832780D02*
X130886295Y-106689923D01*
X130933914Y-106785161D01*
X131029152Y-106832780D01*
X131124390Y-106832780D01*
X131457723Y-106832780D02*
X131457723Y-105832780D01*
X131838676Y-105832780D01*
X131933914Y-105880400D01*
X131981533Y-105928019D01*
X132029152Y-106023257D01*
X132029152Y-106166114D01*
X131981533Y-106261352D01*
X131933914Y-106308971D01*
X131838676Y-106356590D01*
X131457723Y-106356590D01*
X132600580Y-106832780D02*
X132505342Y-106785161D01*
X132457723Y-106737542D01*
X132410104Y-106642304D01*
X132410104Y-106356590D01*
X132457723Y-106261352D01*
X132505342Y-106213733D01*
X132600580Y-106166114D01*
X132743438Y-106166114D01*
X132838676Y-106213733D01*
X132886295Y-106261352D01*
X132933914Y-106356590D01*
X132933914Y-106642304D01*
X132886295Y-106737542D01*
X132838676Y-106785161D01*
X132743438Y-106832780D01*
X132600580Y-106832780D01*
X133362485Y-106832780D02*
X133362485Y-106166114D01*
X133362485Y-105832780D02*
X133314866Y-105880400D01*
X133362485Y-105928019D01*
X133410104Y-105880400D01*
X133362485Y-105832780D01*
X133362485Y-105928019D01*
X133838676Y-106166114D02*
X133838676Y-106832780D01*
X133838676Y-106261352D02*
X133886295Y-106213733D01*
X133981533Y-106166114D01*
X134124390Y-106166114D01*
X134219628Y-106213733D01*
X134267247Y-106308971D01*
X134267247Y-106832780D01*
X134600580Y-106166114D02*
X134981533Y-106166114D01*
X134743438Y-105832780D02*
X134743438Y-106689923D01*
X134791057Y-106785161D01*
X134886295Y-106832780D01*
X134981533Y-106832780D01*
%TO.C,D21/Space1*%
X178952380Y-107202380D02*
X177952380Y-107202380D01*
X177952380Y-106964285D01*
X178000000Y-106821428D01*
X178095238Y-106726190D01*
X178190476Y-106678571D01*
X178380952Y-106630952D01*
X178523809Y-106630952D01*
X178714285Y-106678571D01*
X178809523Y-106726190D01*
X178904761Y-106821428D01*
X178952380Y-106964285D01*
X178952380Y-107202380D01*
X178047619Y-106250000D02*
X178000000Y-106202380D01*
X177952380Y-106107142D01*
X177952380Y-105869047D01*
X178000000Y-105773809D01*
X178047619Y-105726190D01*
X178142857Y-105678571D01*
X178238095Y-105678571D01*
X178380952Y-105726190D01*
X178952380Y-106297619D01*
X178952380Y-105678571D01*
X178952380Y-104726190D02*
X178952380Y-105297619D01*
X178952380Y-105011904D02*
X177952380Y-105011904D01*
X178095238Y-105107142D01*
X178190476Y-105202380D01*
X178238095Y-105297619D01*
X177904761Y-103583333D02*
X179190476Y-104440476D01*
X178904761Y-103297619D02*
X178952380Y-103154761D01*
X178952380Y-102916666D01*
X178904761Y-102821428D01*
X178857142Y-102773809D01*
X178761904Y-102726190D01*
X178666666Y-102726190D01*
X178571428Y-102773809D01*
X178523809Y-102821428D01*
X178476190Y-102916666D01*
X178428571Y-103107142D01*
X178380952Y-103202380D01*
X178333333Y-103250000D01*
X178238095Y-103297619D01*
X178142857Y-103297619D01*
X178047619Y-103250000D01*
X178000000Y-103202380D01*
X177952380Y-103107142D01*
X177952380Y-102869047D01*
X178000000Y-102726190D01*
X178285714Y-102297619D02*
X179285714Y-102297619D01*
X178333333Y-102297619D02*
X178285714Y-102202380D01*
X178285714Y-102011904D01*
X178333333Y-101916666D01*
X178380952Y-101869047D01*
X178476190Y-101821428D01*
X178761904Y-101821428D01*
X178857142Y-101869047D01*
X178904761Y-101916666D01*
X178952380Y-102011904D01*
X178952380Y-102202380D01*
X178904761Y-102297619D01*
X178952380Y-100964285D02*
X178428571Y-100964285D01*
X178333333Y-101011904D01*
X178285714Y-101107142D01*
X178285714Y-101297619D01*
X178333333Y-101392857D01*
X178904761Y-100964285D02*
X178952380Y-101059523D01*
X178952380Y-101297619D01*
X178904761Y-101392857D01*
X178809523Y-101440476D01*
X178714285Y-101440476D01*
X178619047Y-101392857D01*
X178571428Y-101297619D01*
X178571428Y-101059523D01*
X178523809Y-100964285D01*
X178904761Y-100059523D02*
X178952380Y-100154761D01*
X178952380Y-100345238D01*
X178904761Y-100440476D01*
X178857142Y-100488095D01*
X178761904Y-100535714D01*
X178476190Y-100535714D01*
X178380952Y-100488095D01*
X178333333Y-100440476D01*
X178285714Y-100345238D01*
X178285714Y-100154761D01*
X178333333Y-100059523D01*
X178904761Y-99250000D02*
X178952380Y-99345238D01*
X178952380Y-99535714D01*
X178904761Y-99630952D01*
X178809523Y-99678571D01*
X178428571Y-99678571D01*
X178333333Y-99630952D01*
X178285714Y-99535714D01*
X178285714Y-99345238D01*
X178333333Y-99250000D01*
X178428571Y-99202380D01*
X178523809Y-99202380D01*
X178619047Y-99678571D01*
X178952380Y-98250000D02*
X178952380Y-98821428D01*
X178952380Y-98535714D02*
X177952380Y-98535714D01*
X178095238Y-98630952D01*
X178190476Y-98726190D01*
X178238095Y-98821428D01*
X170452380Y-105583333D02*
X170452380Y-105011904D01*
X171452380Y-105297619D02*
X170452380Y-105297619D01*
X171404761Y-104297619D02*
X171452380Y-104392857D01*
X171452380Y-104583333D01*
X171404761Y-104678571D01*
X171309523Y-104726190D01*
X170928571Y-104726190D01*
X170833333Y-104678571D01*
X170785714Y-104583333D01*
X170785714Y-104392857D01*
X170833333Y-104297619D01*
X170928571Y-104250000D01*
X171023809Y-104250000D01*
X171119047Y-104726190D01*
X171404761Y-103869047D02*
X171452380Y-103773809D01*
X171452380Y-103583333D01*
X171404761Y-103488095D01*
X171309523Y-103440476D01*
X171261904Y-103440476D01*
X171166666Y-103488095D01*
X171119047Y-103583333D01*
X171119047Y-103726190D01*
X171071428Y-103821428D01*
X170976190Y-103869047D01*
X170928571Y-103869047D01*
X170833333Y-103821428D01*
X170785714Y-103726190D01*
X170785714Y-103583333D01*
X170833333Y-103488095D01*
X170785714Y-103154761D02*
X170785714Y-102773809D01*
X170452380Y-103011904D02*
X171309523Y-103011904D01*
X171404761Y-102964285D01*
X171452380Y-102869047D01*
X171452380Y-102773809D01*
X171452380Y-102440476D02*
X170452380Y-102440476D01*
X170452380Y-102059523D01*
X170500000Y-101964285D01*
X170547619Y-101916666D01*
X170642857Y-101869047D01*
X170785714Y-101869047D01*
X170880952Y-101916666D01*
X170928571Y-101964285D01*
X170976190Y-102059523D01*
X170976190Y-102440476D01*
X171452380Y-101297619D02*
X171404761Y-101392857D01*
X171357142Y-101440476D01*
X171261904Y-101488095D01*
X170976190Y-101488095D01*
X170880952Y-101440476D01*
X170833333Y-101392857D01*
X170785714Y-101297619D01*
X170785714Y-101154761D01*
X170833333Y-101059523D01*
X170880952Y-101011904D01*
X170976190Y-100964285D01*
X171261904Y-100964285D01*
X171357142Y-101011904D01*
X171404761Y-101059523D01*
X171452380Y-101154761D01*
X171452380Y-101297619D01*
X171452380Y-100535714D02*
X170785714Y-100535714D01*
X170452380Y-100535714D02*
X170500000Y-100583333D01*
X170547619Y-100535714D01*
X170500000Y-100488095D01*
X170452380Y-100535714D01*
X170547619Y-100535714D01*
X170785714Y-100059523D02*
X171452380Y-100059523D01*
X170880952Y-100059523D02*
X170833333Y-100011904D01*
X170785714Y-99916666D01*
X170785714Y-99773809D01*
X170833333Y-99678571D01*
X170928571Y-99630952D01*
X171452380Y-99630952D01*
X170785714Y-99297619D02*
X170785714Y-98916666D01*
X170452380Y-99154761D02*
X171309523Y-99154761D01*
X171404761Y-99107142D01*
X171452380Y-99011904D01*
X171452380Y-98916666D01*
%TO.C,R7*%
X139049285Y-127357980D02*
X139668333Y-127357980D01*
X139335000Y-127738933D01*
X139477857Y-127738933D01*
X139573095Y-127786552D01*
X139620714Y-127834171D01*
X139668333Y-127929409D01*
X139668333Y-128167504D01*
X139620714Y-128262742D01*
X139573095Y-128310361D01*
X139477857Y-128357980D01*
X139192142Y-128357980D01*
X139096904Y-128310361D01*
X139049285Y-128262742D01*
X140287380Y-127357980D02*
X140382619Y-127357980D01*
X140477857Y-127405600D01*
X140525476Y-127453219D01*
X140573095Y-127548457D01*
X140620714Y-127738933D01*
X140620714Y-127977028D01*
X140573095Y-128167504D01*
X140525476Y-128262742D01*
X140477857Y-128310361D01*
X140382619Y-128357980D01*
X140287380Y-128357980D01*
X140192142Y-128310361D01*
X140144523Y-128262742D01*
X140096904Y-128167504D01*
X140049285Y-127977028D01*
X140049285Y-127738933D01*
X140096904Y-127548457D01*
X140144523Y-127453219D01*
X140192142Y-127405600D01*
X140287380Y-127357980D01*
X141239761Y-127357980D02*
X141335000Y-127357980D01*
X141430238Y-127405600D01*
X141477857Y-127453219D01*
X141525476Y-127548457D01*
X141573095Y-127738933D01*
X141573095Y-127977028D01*
X141525476Y-128167504D01*
X141477857Y-128262742D01*
X141430238Y-128310361D01*
X141335000Y-128357980D01*
X141239761Y-128357980D01*
X141144523Y-128310361D01*
X141096904Y-128262742D01*
X141049285Y-128167504D01*
X141001666Y-127977028D01*
X141001666Y-127738933D01*
X141049285Y-127548457D01*
X141096904Y-127453219D01*
X141144523Y-127405600D01*
X141239761Y-127357980D01*
D11*
X140201666Y-126447504D02*
X139935000Y-126066552D01*
X139744523Y-126447504D02*
X139744523Y-125647504D01*
X140049285Y-125647504D01*
X140125476Y-125685600D01*
X140163571Y-125723695D01*
X140201666Y-125799885D01*
X140201666Y-125914171D01*
X140163571Y-125990361D01*
X140125476Y-126028457D01*
X140049285Y-126066552D01*
X139744523Y-126066552D01*
X140468333Y-125647504D02*
X141001666Y-125647504D01*
X140658809Y-126447504D01*
D10*
%TO.C,U1*%
X148619047Y-95611380D02*
X148619047Y-94611380D01*
X149000000Y-94611380D01*
X149095238Y-94659000D01*
X149142857Y-94706619D01*
X149190476Y-94801857D01*
X149190476Y-94944714D01*
X149142857Y-95039952D01*
X149095238Y-95087571D01*
X149000000Y-95135190D01*
X148619047Y-95135190D01*
X149619047Y-95611380D02*
X149619047Y-94944714D01*
X149619047Y-94611380D02*
X149571428Y-94659000D01*
X149619047Y-94706619D01*
X149666666Y-94659000D01*
X149619047Y-94611380D01*
X149619047Y-94706619D01*
X150523809Y-95563761D02*
X150428571Y-95611380D01*
X150238095Y-95611380D01*
X150142857Y-95563761D01*
X150095238Y-95516142D01*
X150047619Y-95420904D01*
X150047619Y-95135190D01*
X150095238Y-95039952D01*
X150142857Y-94992333D01*
X150238095Y-94944714D01*
X150428571Y-94944714D01*
X150523809Y-94992333D01*
X151095238Y-95611380D02*
X151000000Y-95563761D01*
X150952380Y-95516142D01*
X150904761Y-95420904D01*
X150904761Y-95135190D01*
X150952380Y-95039952D01*
X151000000Y-94992333D01*
X151095238Y-94944714D01*
X151238095Y-94944714D01*
X151333333Y-94992333D01*
X151380952Y-95039952D01*
X151428571Y-95135190D01*
X151428571Y-95420904D01*
X151380952Y-95516142D01*
X151333333Y-95563761D01*
X151238095Y-95611380D01*
X151095238Y-95611380D01*
X136513096Y-68991218D02*
X136432284Y-69018155D01*
X136351471Y-69098967D01*
X136297597Y-69206717D01*
X136297597Y-69314467D01*
X136324534Y-69395279D01*
X136405346Y-69529966D01*
X136486158Y-69610778D01*
X136620845Y-69691590D01*
X136701658Y-69718528D01*
X136809407Y-69718528D01*
X136917157Y-69664653D01*
X136971032Y-69610778D01*
X137024906Y-69503028D01*
X137024906Y-69449154D01*
X136836345Y-69260592D01*
X136728595Y-69368341D01*
X137321218Y-69260592D02*
X136755532Y-68694906D01*
X136971032Y-68479407D01*
X137051844Y-68452470D01*
X137105719Y-68452470D01*
X137186531Y-68479407D01*
X137267343Y-68560219D01*
X137294280Y-68641032D01*
X137294280Y-68694906D01*
X137267343Y-68775719D01*
X137051844Y-68991218D01*
X137428967Y-68021471D02*
X137482842Y-67967597D01*
X137563654Y-67940659D01*
X137617529Y-67940659D01*
X137698341Y-67967597D01*
X137833028Y-68048409D01*
X137967715Y-68183096D01*
X138048528Y-68317783D01*
X138075465Y-68398595D01*
X138075465Y-68452470D01*
X138048528Y-68533282D01*
X137994653Y-68587157D01*
X137913841Y-68614094D01*
X137859966Y-68614094D01*
X137779154Y-68587157D01*
X137644467Y-68506345D01*
X137509780Y-68371658D01*
X137428967Y-68236971D01*
X137402030Y-68156158D01*
X137402030Y-68102284D01*
X137428967Y-68021471D01*
X135843722Y-107360592D02*
X135762910Y-107387529D01*
X135682097Y-107468341D01*
X135628223Y-107576091D01*
X135628223Y-107683841D01*
X135655160Y-107764653D01*
X135735972Y-107899340D01*
X135816784Y-107980152D01*
X135951471Y-108060964D01*
X136032284Y-108087902D01*
X136140033Y-108087902D01*
X136247783Y-108034027D01*
X136301658Y-107980152D01*
X136355532Y-107872402D01*
X136355532Y-107818528D01*
X136166971Y-107629966D01*
X136059221Y-107737715D01*
X136651844Y-107629966D02*
X136086158Y-107064280D01*
X136301658Y-106848781D01*
X136382470Y-106821844D01*
X136436345Y-106821844D01*
X136517157Y-106848781D01*
X136597969Y-106929593D01*
X136624906Y-107010406D01*
X136624906Y-107064280D01*
X136597969Y-107145093D01*
X136382470Y-107360592D01*
X137513841Y-106767969D02*
X137190592Y-107091218D01*
X137352216Y-106929593D02*
X136786531Y-106363908D01*
X136813468Y-106498595D01*
X136813468Y-106606345D01*
X136786531Y-106687157D01*
X137217529Y-106040659D02*
X137217529Y-105986784D01*
X137244467Y-105905972D01*
X137379154Y-105771285D01*
X137459966Y-105744348D01*
X137513841Y-105744348D01*
X137594653Y-105771285D01*
X137648528Y-105825160D01*
X137702402Y-105932910D01*
X137702402Y-106579407D01*
X138052589Y-106229221D01*
X149238095Y-92452380D02*
X149238095Y-93261904D01*
X149285714Y-93357142D01*
X149333333Y-93404761D01*
X149428571Y-93452380D01*
X149619047Y-93452380D01*
X149714285Y-93404761D01*
X149761904Y-93357142D01*
X149809523Y-93261904D01*
X149809523Y-92452380D01*
X150809523Y-93452380D02*
X150238095Y-93452380D01*
X150523809Y-93452380D02*
X150523809Y-92452380D01*
X150428571Y-92595238D01*
X150333333Y-92690476D01*
X150238095Y-92738095D01*
X161920473Y-72069966D02*
X162674720Y-72447089D01*
X162297597Y-71692842D01*
X162997969Y-72069966D02*
X163105719Y-72016091D01*
X163240406Y-71881404D01*
X163267343Y-71800592D01*
X163267343Y-71746717D01*
X163240406Y-71665905D01*
X163186531Y-71612030D01*
X163105719Y-71585093D01*
X163051844Y-71585093D01*
X162971032Y-71612030D01*
X162836345Y-71692842D01*
X162755532Y-71719780D01*
X162701658Y-71719780D01*
X162620845Y-71692842D01*
X162566971Y-71638967D01*
X162540033Y-71558155D01*
X162540033Y-71504280D01*
X162566971Y-71423468D01*
X162701658Y-71288781D01*
X162809407Y-71234906D01*
X163428967Y-71154094D02*
X163698341Y-71423468D01*
X162944094Y-71046345D02*
X163428967Y-71154094D01*
X163321218Y-70669221D01*
X164021590Y-71046345D02*
X164129340Y-70992470D01*
X164264027Y-70857783D01*
X164290964Y-70776971D01*
X164290964Y-70723096D01*
X164264027Y-70642284D01*
X164210152Y-70588409D01*
X164129340Y-70561471D01*
X164075465Y-70561471D01*
X163994653Y-70588409D01*
X163859966Y-70669221D01*
X163779154Y-70696158D01*
X163725279Y-70696158D01*
X163644467Y-70669221D01*
X163590592Y-70615346D01*
X163563654Y-70534534D01*
X163563654Y-70480659D01*
X163590592Y-70399847D01*
X163725279Y-70265160D01*
X163833028Y-70211285D01*
X136413096Y-76611218D02*
X136332284Y-76638155D01*
X136251471Y-76718967D01*
X136197597Y-76826717D01*
X136197597Y-76934467D01*
X136224534Y-77015279D01*
X136305346Y-77149966D01*
X136386158Y-77230778D01*
X136520845Y-77311590D01*
X136601658Y-77338528D01*
X136709407Y-77338528D01*
X136817157Y-77284653D01*
X136871032Y-77230778D01*
X136924906Y-77123028D01*
X136924906Y-77069154D01*
X136736345Y-76880592D01*
X136628595Y-76988341D01*
X137221218Y-76880592D02*
X136655532Y-76314906D01*
X136871032Y-76099407D01*
X136951844Y-76072470D01*
X137005719Y-76072470D01*
X137086531Y-76099407D01*
X137167343Y-76180219D01*
X137194280Y-76261032D01*
X137194280Y-76314906D01*
X137167343Y-76395719D01*
X136951844Y-76611218D01*
X137248155Y-75830033D02*
X137248155Y-75776158D01*
X137275093Y-75695346D01*
X137409780Y-75560659D01*
X137490592Y-75533722D01*
X137544467Y-75533722D01*
X137625279Y-75560659D01*
X137679154Y-75614534D01*
X137733028Y-75722284D01*
X137733028Y-76368781D01*
X138083215Y-76018595D01*
X136486158Y-86798155D02*
X136405346Y-86825093D01*
X136324534Y-86905905D01*
X136270659Y-87013654D01*
X136270659Y-87121404D01*
X136297597Y-87202216D01*
X136378409Y-87336903D01*
X136459221Y-87417715D01*
X136593908Y-87498528D01*
X136674720Y-87525465D01*
X136782470Y-87525465D01*
X136890219Y-87471590D01*
X136944094Y-87417715D01*
X136997969Y-87309966D01*
X136997969Y-87256091D01*
X136809407Y-87067529D01*
X136701658Y-87175279D01*
X137294280Y-87067529D02*
X136728595Y-86501844D01*
X137617529Y-86744280D01*
X137051844Y-86178595D01*
X137886903Y-86474906D02*
X137321218Y-85909221D01*
X137455905Y-85774534D01*
X137563654Y-85720659D01*
X137671404Y-85720659D01*
X137752216Y-85747597D01*
X137886903Y-85828409D01*
X137967715Y-85909221D01*
X138048528Y-86043908D01*
X138075465Y-86124720D01*
X138075465Y-86232470D01*
X138021590Y-86340219D01*
X137886903Y-86474906D01*
X162097722Y-97200592D02*
X162016910Y-97227529D01*
X161936097Y-97308341D01*
X161882223Y-97416091D01*
X161882223Y-97523841D01*
X161909160Y-97604653D01*
X161989972Y-97739340D01*
X162070784Y-97820152D01*
X162205471Y-97900964D01*
X162286284Y-97927902D01*
X162394033Y-97927902D01*
X162501783Y-97874027D01*
X162555658Y-97820152D01*
X162609532Y-97712402D01*
X162609532Y-97658528D01*
X162420971Y-97469966D01*
X162313221Y-97577715D01*
X162905844Y-97469966D02*
X162340158Y-96904280D01*
X162555658Y-96688781D01*
X162636470Y-96661844D01*
X162690345Y-96661844D01*
X162771157Y-96688781D01*
X162851969Y-96769593D01*
X162878906Y-96850406D01*
X162878906Y-96904280D01*
X162851969Y-96985093D01*
X162636470Y-97200592D01*
X162932781Y-96419407D02*
X162932781Y-96365532D01*
X162959719Y-96284720D01*
X163094406Y-96150033D01*
X163175218Y-96123096D01*
X163229093Y-96123096D01*
X163309905Y-96150033D01*
X163363780Y-96203908D01*
X163417654Y-96311658D01*
X163417654Y-96958155D01*
X163767841Y-96607969D01*
X163471529Y-95880659D02*
X163471529Y-95826784D01*
X163498467Y-95745972D01*
X163633154Y-95611285D01*
X163713966Y-95584348D01*
X163767841Y-95584348D01*
X163848653Y-95611285D01*
X163902528Y-95665160D01*
X163956402Y-95772910D01*
X163956402Y-96419407D01*
X164306589Y-96069221D01*
X153904761Y-119523809D02*
X154019047Y-119561904D01*
X154209523Y-119561904D01*
X154285714Y-119523809D01*
X154323809Y-119485714D01*
X154361904Y-119409523D01*
X154361904Y-119333333D01*
X154323809Y-119257142D01*
X154285714Y-119219047D01*
X154209523Y-119180952D01*
X154057142Y-119142857D01*
X153980952Y-119104761D01*
X153942857Y-119066666D01*
X153904761Y-118990476D01*
X153904761Y-118914285D01*
X153942857Y-118838095D01*
X153980952Y-118800000D01*
X154057142Y-118761904D01*
X154247619Y-118761904D01*
X154361904Y-118800000D01*
X154628571Y-118761904D02*
X154819047Y-119561904D01*
X154971428Y-118990476D01*
X155123809Y-119561904D01*
X155314285Y-118761904D01*
X155619047Y-119561904D02*
X155619047Y-118761904D01*
X155809523Y-118761904D01*
X155923809Y-118800000D01*
X156000000Y-118876190D01*
X156038095Y-118952380D01*
X156076190Y-119104761D01*
X156076190Y-119219047D01*
X156038095Y-119371428D01*
X156000000Y-119447619D01*
X155923809Y-119523809D01*
X155809523Y-119561904D01*
X155619047Y-119561904D01*
X156419047Y-119561904D02*
X156419047Y-118761904D01*
X156952380Y-118761904D02*
X157104761Y-118761904D01*
X157180952Y-118800000D01*
X157257142Y-118876190D01*
X157295238Y-119028571D01*
X157295238Y-119295238D01*
X157257142Y-119447619D01*
X157180952Y-119523809D01*
X157104761Y-119561904D01*
X156952380Y-119561904D01*
X156876190Y-119523809D01*
X156800000Y-119447619D01*
X156761904Y-119295238D01*
X156761904Y-119028571D01*
X156800000Y-118876190D01*
X156876190Y-118800000D01*
X156952380Y-118761904D01*
X153257142Y-105700000D02*
X153304761Y-105747619D01*
X153352380Y-105890476D01*
X153352380Y-105985714D01*
X153304761Y-106128571D01*
X153209523Y-106223809D01*
X153114285Y-106271428D01*
X152923809Y-106319047D01*
X152780952Y-106319047D01*
X152590476Y-106271428D01*
X152495238Y-106223809D01*
X152400000Y-106128571D01*
X152352380Y-105985714D01*
X152352380Y-105890476D01*
X152400000Y-105747619D01*
X152447619Y-105700000D01*
X153352380Y-105128571D02*
X153304761Y-105223809D01*
X153257142Y-105271428D01*
X153161904Y-105319047D01*
X152876190Y-105319047D01*
X152780952Y-105271428D01*
X152733333Y-105223809D01*
X152685714Y-105128571D01*
X152685714Y-104985714D01*
X152733333Y-104890476D01*
X152780952Y-104842857D01*
X152876190Y-104795238D01*
X153161904Y-104795238D01*
X153257142Y-104842857D01*
X153304761Y-104890476D01*
X153352380Y-104985714D01*
X153352380Y-105128571D01*
X152685714Y-104366666D02*
X153685714Y-104366666D01*
X152733333Y-104366666D02*
X152685714Y-104271428D01*
X152685714Y-104080952D01*
X152733333Y-103985714D01*
X152780952Y-103938095D01*
X152876190Y-103890476D01*
X153161904Y-103890476D01*
X153257142Y-103938095D01*
X153304761Y-103985714D01*
X153352380Y-104080952D01*
X153352380Y-104271428D01*
X153304761Y-104366666D01*
X152685714Y-103461904D02*
X153685714Y-103461904D01*
X152733333Y-103461904D02*
X152685714Y-103366666D01*
X152685714Y-103176190D01*
X152733333Y-103080952D01*
X152780952Y-103033333D01*
X152876190Y-102985714D01*
X153161904Y-102985714D01*
X153257142Y-103033333D01*
X153304761Y-103080952D01*
X153352380Y-103176190D01*
X153352380Y-103366666D01*
X153304761Y-103461904D01*
X153304761Y-102176190D02*
X153352380Y-102271428D01*
X153352380Y-102461904D01*
X153304761Y-102557142D01*
X153209523Y-102604761D01*
X152828571Y-102604761D01*
X152733333Y-102557142D01*
X152685714Y-102461904D01*
X152685714Y-102271428D01*
X152733333Y-102176190D01*
X152828571Y-102128571D01*
X152923809Y-102128571D01*
X153019047Y-102604761D01*
X153352380Y-101700000D02*
X152685714Y-101700000D01*
X152876190Y-101700000D02*
X152780952Y-101652380D01*
X152733333Y-101604761D01*
X152685714Y-101509523D01*
X152685714Y-101414285D01*
X153352380Y-100319047D02*
X152352380Y-100319047D01*
X153352380Y-99747619D02*
X152780952Y-100176190D01*
X152352380Y-99747619D02*
X152923809Y-100319047D01*
X153304761Y-98938095D02*
X153352380Y-99033333D01*
X153352380Y-99223809D01*
X153304761Y-99319047D01*
X153209523Y-99366666D01*
X152828571Y-99366666D01*
X152733333Y-99319047D01*
X152685714Y-99223809D01*
X152685714Y-99033333D01*
X152733333Y-98938095D01*
X152828571Y-98890476D01*
X152923809Y-98890476D01*
X153019047Y-99366666D01*
X153304761Y-98080952D02*
X153352380Y-98176190D01*
X153352380Y-98366666D01*
X153304761Y-98461904D01*
X153209523Y-98509523D01*
X152828571Y-98509523D01*
X152733333Y-98461904D01*
X152685714Y-98366666D01*
X152685714Y-98176190D01*
X152733333Y-98080952D01*
X152828571Y-98033333D01*
X152923809Y-98033333D01*
X153019047Y-98509523D01*
X152685714Y-97604761D02*
X153685714Y-97604761D01*
X152733333Y-97604761D02*
X152685714Y-97509523D01*
X152685714Y-97319047D01*
X152733333Y-97223809D01*
X152780952Y-97176190D01*
X152876190Y-97128571D01*
X153161904Y-97128571D01*
X153257142Y-97176190D01*
X153304761Y-97223809D01*
X153352380Y-97319047D01*
X153352380Y-97509523D01*
X153304761Y-97604761D01*
X153352380Y-96557142D02*
X153304761Y-96652380D01*
X153257142Y-96700000D01*
X153161904Y-96747619D01*
X152876190Y-96747619D01*
X152780952Y-96700000D01*
X152733333Y-96652380D01*
X152685714Y-96557142D01*
X152685714Y-96414285D01*
X152733333Y-96319047D01*
X152780952Y-96271428D01*
X152876190Y-96223809D01*
X153161904Y-96223809D01*
X153257142Y-96271428D01*
X153304761Y-96319047D01*
X153352380Y-96414285D01*
X153352380Y-96557142D01*
X152685714Y-95366666D02*
X153352380Y-95366666D01*
X152685714Y-95795238D02*
X153209523Y-95795238D01*
X153304761Y-95747619D01*
X153352380Y-95652380D01*
X153352380Y-95509523D01*
X153304761Y-95414285D01*
X153257142Y-95366666D01*
X152685714Y-95033333D02*
X152685714Y-94652380D01*
X152352380Y-94890476D02*
X153209523Y-94890476D01*
X153304761Y-94842857D01*
X153352380Y-94747619D01*
X153352380Y-94652380D01*
X153304761Y-94366666D02*
X153352380Y-94271428D01*
X153352380Y-94080952D01*
X153304761Y-93985714D01*
X153209523Y-93938095D01*
X153161904Y-93938095D01*
X153066666Y-93985714D01*
X153019047Y-94080952D01*
X153019047Y-94223809D01*
X152971428Y-94319047D01*
X152876190Y-94366666D01*
X152828571Y-94366666D01*
X152733333Y-94319047D01*
X152685714Y-94223809D01*
X152685714Y-94080952D01*
X152733333Y-93985714D01*
X153304761Y-92795238D02*
X153352380Y-92700000D01*
X153352380Y-92509523D01*
X153304761Y-92414285D01*
X153209523Y-92366666D01*
X153161904Y-92366666D01*
X153066666Y-92414285D01*
X153019047Y-92509523D01*
X153019047Y-92652380D01*
X152971428Y-92747619D01*
X152876190Y-92795238D01*
X152828571Y-92795238D01*
X152733333Y-92747619D01*
X152685714Y-92652380D01*
X152685714Y-92509523D01*
X152733333Y-92414285D01*
X153352380Y-91938095D02*
X152352380Y-91938095D01*
X153352380Y-91509523D02*
X152828571Y-91509523D01*
X152733333Y-91557142D01*
X152685714Y-91652380D01*
X152685714Y-91795238D01*
X152733333Y-91890476D01*
X152780952Y-91938095D01*
X153352380Y-90890476D02*
X153304761Y-90985714D01*
X153257142Y-91033333D01*
X153161904Y-91080952D01*
X152876190Y-91080952D01*
X152780952Y-91033333D01*
X152733333Y-90985714D01*
X152685714Y-90890476D01*
X152685714Y-90747619D01*
X152733333Y-90652380D01*
X152780952Y-90604761D01*
X152876190Y-90557142D01*
X153161904Y-90557142D01*
X153257142Y-90604761D01*
X153304761Y-90652380D01*
X153352380Y-90747619D01*
X153352380Y-90890476D01*
X152685714Y-90223809D02*
X153352380Y-90033333D01*
X152876190Y-89842857D01*
X153352380Y-89652380D01*
X152685714Y-89461904D01*
X152685714Y-89080952D02*
X153352380Y-89080952D01*
X152780952Y-89080952D02*
X152733333Y-89033333D01*
X152685714Y-88938095D01*
X152685714Y-88795238D01*
X152733333Y-88700000D01*
X152828571Y-88652380D01*
X153352380Y-88652380D01*
X153352380Y-87271428D02*
X153304761Y-87366666D01*
X153257142Y-87414285D01*
X153161904Y-87461904D01*
X152876190Y-87461904D01*
X152780952Y-87414285D01*
X152733333Y-87366666D01*
X152685714Y-87271428D01*
X152685714Y-87128571D01*
X152733333Y-87033333D01*
X152780952Y-86985714D01*
X152876190Y-86938095D01*
X153161904Y-86938095D01*
X153257142Y-86985714D01*
X153304761Y-87033333D01*
X153352380Y-87128571D01*
X153352380Y-87271428D01*
X152685714Y-86509523D02*
X153352380Y-86509523D01*
X152780952Y-86509523D02*
X152733333Y-86461904D01*
X152685714Y-86366666D01*
X152685714Y-86223809D01*
X152733333Y-86128571D01*
X152828571Y-86080952D01*
X153352380Y-86080952D01*
X153352380Y-84842857D02*
X152352380Y-84842857D01*
X152352380Y-84604761D01*
X152400000Y-84461904D01*
X152495238Y-84366666D01*
X152590476Y-84319047D01*
X152780952Y-84271428D01*
X152923809Y-84271428D01*
X153114285Y-84319047D01*
X153209523Y-84366666D01*
X153304761Y-84461904D01*
X153352380Y-84604761D01*
X153352380Y-84842857D01*
X152685714Y-83938095D02*
X153352380Y-83747619D01*
X152876190Y-83557142D01*
X153352380Y-83366666D01*
X152685714Y-83176190D01*
X152685714Y-82366666D02*
X153495238Y-82366666D01*
X153590476Y-82414285D01*
X153638095Y-82461904D01*
X153685714Y-82557142D01*
X153685714Y-82700000D01*
X153638095Y-82795238D01*
X153304761Y-82366666D02*
X153352380Y-82461904D01*
X153352380Y-82652380D01*
X153304761Y-82747619D01*
X153257142Y-82795238D01*
X153161904Y-82842857D01*
X152876190Y-82842857D01*
X152780952Y-82795238D01*
X152733333Y-82747619D01*
X152685714Y-82652380D01*
X152685714Y-82461904D01*
X152733333Y-82366666D01*
X153304761Y-81938095D02*
X153352380Y-81842857D01*
X153352380Y-81652380D01*
X153304761Y-81557142D01*
X153209523Y-81509523D01*
X153161904Y-81509523D01*
X153066666Y-81557142D01*
X153019047Y-81652380D01*
X153019047Y-81795238D01*
X152971428Y-81890476D01*
X152876190Y-81938095D01*
X152828571Y-81938095D01*
X152733333Y-81890476D01*
X152685714Y-81795238D01*
X152685714Y-81652380D01*
X152733333Y-81557142D01*
X153352380Y-80176190D02*
X153304761Y-80271428D01*
X153209523Y-80319047D01*
X152352380Y-80319047D01*
X153352380Y-79366666D02*
X152828571Y-79366666D01*
X152733333Y-79414285D01*
X152685714Y-79509523D01*
X152685714Y-79700000D01*
X152733333Y-79795238D01*
X153304761Y-79366666D02*
X153352380Y-79461904D01*
X153352380Y-79700000D01*
X153304761Y-79795238D01*
X153209523Y-79842857D01*
X153114285Y-79842857D01*
X153019047Y-79795238D01*
X152971428Y-79700000D01*
X152971428Y-79461904D01*
X152923809Y-79366666D01*
X152685714Y-78985714D02*
X153352380Y-78747619D01*
X152685714Y-78509523D02*
X153352380Y-78747619D01*
X153590476Y-78842857D01*
X153638095Y-78890476D01*
X153685714Y-78985714D01*
X153304761Y-77747619D02*
X153352380Y-77842857D01*
X153352380Y-78033333D01*
X153304761Y-78128571D01*
X153209523Y-78176190D01*
X152828571Y-78176190D01*
X152733333Y-78128571D01*
X152685714Y-78033333D01*
X152685714Y-77842857D01*
X152733333Y-77747619D01*
X152828571Y-77700000D01*
X152923809Y-77700000D01*
X153019047Y-78176190D01*
X153352380Y-77271428D02*
X152685714Y-77271428D01*
X152876190Y-77271428D02*
X152780952Y-77223809D01*
X152733333Y-77176190D01*
X152685714Y-77080952D01*
X152685714Y-76985714D01*
X162097722Y-84246592D02*
X162016910Y-84273529D01*
X161936097Y-84354341D01*
X161882223Y-84462091D01*
X161882223Y-84569841D01*
X161909160Y-84650653D01*
X161989972Y-84785340D01*
X162070784Y-84866152D01*
X162205471Y-84946964D01*
X162286284Y-84973902D01*
X162394033Y-84973902D01*
X162501783Y-84920027D01*
X162555658Y-84866152D01*
X162609532Y-84758402D01*
X162609532Y-84704528D01*
X162420971Y-84515966D01*
X162313221Y-84623715D01*
X162905844Y-84515966D02*
X162340158Y-83950280D01*
X162555658Y-83734781D01*
X162636470Y-83707844D01*
X162690345Y-83707844D01*
X162771157Y-83734781D01*
X162851969Y-83815593D01*
X162878906Y-83896406D01*
X162878906Y-83950280D01*
X162851969Y-84031093D01*
X162636470Y-84246592D01*
X162932781Y-83465407D02*
X162932781Y-83411532D01*
X162959719Y-83330720D01*
X163094406Y-83196033D01*
X163175218Y-83169096D01*
X163229093Y-83169096D01*
X163309905Y-83196033D01*
X163363780Y-83249908D01*
X163417654Y-83357658D01*
X163417654Y-84004155D01*
X163767841Y-83653969D01*
X163767841Y-83007471D02*
X163687028Y-83034409D01*
X163633154Y-83034409D01*
X163552341Y-83007471D01*
X163525404Y-82980534D01*
X163498467Y-82899722D01*
X163498467Y-82845847D01*
X163525404Y-82765035D01*
X163633154Y-82657285D01*
X163713966Y-82630348D01*
X163767841Y-82630348D01*
X163848653Y-82657285D01*
X163875590Y-82684223D01*
X163902528Y-82765035D01*
X163902528Y-82818910D01*
X163875590Y-82899722D01*
X163767841Y-83007471D01*
X163740903Y-83088284D01*
X163740903Y-83142158D01*
X163767841Y-83222971D01*
X163875590Y-83330720D01*
X163956402Y-83357658D01*
X164010277Y-83357658D01*
X164091089Y-83330720D01*
X164198839Y-83222971D01*
X164225776Y-83142158D01*
X164225776Y-83088284D01*
X164198839Y-83007471D01*
X164091089Y-82899722D01*
X164010277Y-82872784D01*
X163956402Y-82872784D01*
X163875590Y-82899722D01*
X136413096Y-71521218D02*
X136332284Y-71548155D01*
X136251471Y-71628967D01*
X136197597Y-71736717D01*
X136197597Y-71844467D01*
X136224534Y-71925279D01*
X136305346Y-72059966D01*
X136386158Y-72140778D01*
X136520845Y-72221590D01*
X136601658Y-72248528D01*
X136709407Y-72248528D01*
X136817157Y-72194653D01*
X136871032Y-72140778D01*
X136924906Y-72033028D01*
X136924906Y-71979154D01*
X136736345Y-71790592D01*
X136628595Y-71898341D01*
X137221218Y-71790592D02*
X136655532Y-71224906D01*
X136871032Y-71009407D01*
X136951844Y-70982470D01*
X137005719Y-70982470D01*
X137086531Y-71009407D01*
X137167343Y-71090219D01*
X137194280Y-71171032D01*
X137194280Y-71224906D01*
X137167343Y-71305719D01*
X136951844Y-71521218D01*
X138083215Y-70928595D02*
X137759966Y-71251844D01*
X137921590Y-71090219D02*
X137355905Y-70524534D01*
X137382842Y-70659221D01*
X137382842Y-70766971D01*
X137355905Y-70847783D01*
X162086158Y-112198155D02*
X162005346Y-112225093D01*
X161924534Y-112305905D01*
X161870659Y-112413654D01*
X161870659Y-112521404D01*
X161897597Y-112602216D01*
X161978409Y-112736903D01*
X162059221Y-112817715D01*
X162193908Y-112898528D01*
X162274720Y-112925465D01*
X162382470Y-112925465D01*
X162490219Y-112871590D01*
X162544094Y-112817715D01*
X162597969Y-112709966D01*
X162597969Y-112656091D01*
X162409407Y-112467529D01*
X162301658Y-112575279D01*
X162894280Y-112467529D02*
X162328595Y-111901844D01*
X163217529Y-112144280D01*
X162651844Y-111578595D01*
X163486903Y-111874906D02*
X162921218Y-111309221D01*
X163055905Y-111174534D01*
X163163654Y-111120659D01*
X163271404Y-111120659D01*
X163352216Y-111147597D01*
X163486903Y-111228409D01*
X163567715Y-111309221D01*
X163648528Y-111443908D01*
X163675465Y-111524720D01*
X163675465Y-111632470D01*
X163621590Y-111740219D01*
X163486903Y-111874906D01*
X162097722Y-107360592D02*
X162016910Y-107387529D01*
X161936097Y-107468341D01*
X161882223Y-107576091D01*
X161882223Y-107683841D01*
X161909160Y-107764653D01*
X161989972Y-107899340D01*
X162070784Y-107980152D01*
X162205471Y-108060964D01*
X162286284Y-108087902D01*
X162394033Y-108087902D01*
X162501783Y-108034027D01*
X162555658Y-107980152D01*
X162609532Y-107872402D01*
X162609532Y-107818528D01*
X162420971Y-107629966D01*
X162313221Y-107737715D01*
X162905844Y-107629966D02*
X162340158Y-107064280D01*
X162555658Y-106848781D01*
X162636470Y-106821844D01*
X162690345Y-106821844D01*
X162771157Y-106848781D01*
X162851969Y-106929593D01*
X162878906Y-107010406D01*
X162878906Y-107064280D01*
X162851969Y-107145093D01*
X162636470Y-107360592D01*
X163767841Y-106767969D02*
X163444592Y-107091218D01*
X163606216Y-106929593D02*
X163040531Y-106363908D01*
X163067468Y-106498595D01*
X163067468Y-106606345D01*
X163040531Y-106687157D01*
X164037215Y-106498595D02*
X164144964Y-106390845D01*
X164171902Y-106310033D01*
X164171902Y-106256158D01*
X164144964Y-106121471D01*
X164064152Y-105986784D01*
X163848653Y-105771285D01*
X163767841Y-105744348D01*
X163713966Y-105744348D01*
X163633154Y-105771285D01*
X163525404Y-105879035D01*
X163498467Y-105959847D01*
X163498467Y-106013722D01*
X163525404Y-106094534D01*
X163660091Y-106229221D01*
X163740903Y-106256158D01*
X163794778Y-106256158D01*
X163875590Y-106229221D01*
X163983340Y-106121471D01*
X164010277Y-106040659D01*
X164010277Y-105986784D01*
X163983340Y-105905972D01*
X136513096Y-84231218D02*
X136432284Y-84258155D01*
X136351471Y-84338967D01*
X136297597Y-84446717D01*
X136297597Y-84554467D01*
X136324534Y-84635279D01*
X136405346Y-84769966D01*
X136486158Y-84850778D01*
X136620845Y-84931590D01*
X136701658Y-84958528D01*
X136809407Y-84958528D01*
X136917157Y-84904653D01*
X136971032Y-84850778D01*
X137024906Y-84743028D01*
X137024906Y-84689154D01*
X136836345Y-84500592D01*
X136728595Y-84608341D01*
X137321218Y-84500592D02*
X136755532Y-83934906D01*
X136971032Y-83719407D01*
X137051844Y-83692470D01*
X137105719Y-83692470D01*
X137186531Y-83719407D01*
X137267343Y-83800219D01*
X137294280Y-83881032D01*
X137294280Y-83934906D01*
X137267343Y-84015719D01*
X137051844Y-84231218D01*
X137590592Y-83099847D02*
X137321218Y-83369221D01*
X137563654Y-83665532D01*
X137563654Y-83611658D01*
X137590592Y-83530845D01*
X137725279Y-83396158D01*
X137806091Y-83369221D01*
X137859966Y-83369221D01*
X137940778Y-83396158D01*
X138075465Y-83530845D01*
X138102402Y-83611658D01*
X138102402Y-83665532D01*
X138075465Y-83746345D01*
X137940778Y-83881032D01*
X137859966Y-83907969D01*
X137806091Y-83907969D01*
X135943722Y-114980592D02*
X135862910Y-115007529D01*
X135782097Y-115088341D01*
X135728223Y-115196091D01*
X135728223Y-115303841D01*
X135755160Y-115384653D01*
X135835972Y-115519340D01*
X135916784Y-115600152D01*
X136051471Y-115680964D01*
X136132284Y-115707902D01*
X136240033Y-115707902D01*
X136347783Y-115654027D01*
X136401658Y-115600152D01*
X136455532Y-115492402D01*
X136455532Y-115438528D01*
X136266971Y-115249966D01*
X136159221Y-115357715D01*
X136751844Y-115249966D02*
X136186158Y-114684280D01*
X136401658Y-114468781D01*
X136482470Y-114441844D01*
X136536345Y-114441844D01*
X136617157Y-114468781D01*
X136697969Y-114549593D01*
X136724906Y-114630406D01*
X136724906Y-114684280D01*
X136697969Y-114765093D01*
X136482470Y-114980592D01*
X137613841Y-114387969D02*
X137290592Y-114711218D01*
X137452216Y-114549593D02*
X136886531Y-113983908D01*
X136913468Y-114118595D01*
X136913468Y-114226345D01*
X136886531Y-114307157D01*
X137721590Y-113525972D02*
X138098714Y-113903096D01*
X137371404Y-113445160D02*
X137640778Y-113983908D01*
X137990964Y-113633722D01*
X162838375Y-94943435D02*
X162380439Y-94862622D01*
X162515126Y-95266683D02*
X161949441Y-94700998D01*
X162164940Y-94485499D01*
X162245752Y-94458561D01*
X162299627Y-94458561D01*
X162380439Y-94485499D01*
X162461251Y-94566311D01*
X162488189Y-94647123D01*
X162488189Y-94700998D01*
X162461251Y-94781810D01*
X162245752Y-94997309D01*
X162515126Y-94135312D02*
X162973062Y-94593248D01*
X163053874Y-94620186D01*
X163107749Y-94620186D01*
X163188561Y-94593248D01*
X163296311Y-94485499D01*
X163323248Y-94404687D01*
X163323248Y-94350812D01*
X163296311Y-94269999D01*
X162838375Y-93812064D01*
X163673435Y-94108375D02*
X163107749Y-93542690D01*
X163996683Y-93785126D01*
X163430998Y-93219441D01*
X135843722Y-104820592D02*
X135762910Y-104847529D01*
X135682097Y-104928341D01*
X135628223Y-105036091D01*
X135628223Y-105143841D01*
X135655160Y-105224653D01*
X135735972Y-105359340D01*
X135816784Y-105440152D01*
X135951471Y-105520964D01*
X136032284Y-105547902D01*
X136140033Y-105547902D01*
X136247783Y-105494027D01*
X136301658Y-105440152D01*
X136355532Y-105332402D01*
X136355532Y-105278528D01*
X136166971Y-105089966D01*
X136059221Y-105197715D01*
X136651844Y-105089966D02*
X136086158Y-104524280D01*
X136301658Y-104308781D01*
X136382470Y-104281844D01*
X136436345Y-104281844D01*
X136517157Y-104308781D01*
X136597969Y-104389593D01*
X136624906Y-104470406D01*
X136624906Y-104524280D01*
X136597969Y-104605093D01*
X136382470Y-104820592D01*
X137513841Y-104227969D02*
X137190592Y-104551218D01*
X137352216Y-104389593D02*
X136786531Y-103823908D01*
X136813468Y-103958595D01*
X136813468Y-104066345D01*
X136786531Y-104147157D01*
X138052589Y-103689221D02*
X137729340Y-104012470D01*
X137890964Y-103850845D02*
X137325279Y-103285160D01*
X137352216Y-103419847D01*
X137352216Y-103527597D01*
X137325279Y-103608409D01*
X162097722Y-89590592D02*
X162016910Y-89617529D01*
X161936097Y-89698341D01*
X161882223Y-89806091D01*
X161882223Y-89913841D01*
X161909160Y-89994653D01*
X161989972Y-90129340D01*
X162070784Y-90210152D01*
X162205471Y-90290964D01*
X162286284Y-90317902D01*
X162394033Y-90317902D01*
X162501783Y-90264027D01*
X162555658Y-90210152D01*
X162609532Y-90102402D01*
X162609532Y-90048528D01*
X162420971Y-89859966D01*
X162313221Y-89967715D01*
X162905844Y-89859966D02*
X162340158Y-89294280D01*
X162555658Y-89078781D01*
X162636470Y-89051844D01*
X162690345Y-89051844D01*
X162771157Y-89078781D01*
X162851969Y-89159593D01*
X162878906Y-89240406D01*
X162878906Y-89294280D01*
X162851969Y-89375093D01*
X162636470Y-89590592D01*
X162932781Y-88809407D02*
X162932781Y-88755532D01*
X162959719Y-88674720D01*
X163094406Y-88540033D01*
X163175218Y-88513096D01*
X163229093Y-88513096D01*
X163309905Y-88540033D01*
X163363780Y-88593908D01*
X163417654Y-88701658D01*
X163417654Y-89348155D01*
X163767841Y-88997969D01*
X163390717Y-88243722D02*
X163767841Y-87866598D01*
X164091089Y-88674720D01*
X136613096Y-91821218D02*
X136532284Y-91848155D01*
X136451471Y-91928967D01*
X136397597Y-92036717D01*
X136397597Y-92144467D01*
X136424534Y-92225279D01*
X136505346Y-92359966D01*
X136586158Y-92440778D01*
X136720845Y-92521590D01*
X136801658Y-92548528D01*
X136909407Y-92548528D01*
X137017157Y-92494653D01*
X137071032Y-92440778D01*
X137124906Y-92333028D01*
X137124906Y-92279154D01*
X136936345Y-92090592D01*
X136828595Y-92198341D01*
X137421218Y-92090592D02*
X136855532Y-91524906D01*
X137071032Y-91309407D01*
X137151844Y-91282470D01*
X137205719Y-91282470D01*
X137286531Y-91309407D01*
X137367343Y-91390219D01*
X137394280Y-91471032D01*
X137394280Y-91524906D01*
X137367343Y-91605719D01*
X137151844Y-91821218D01*
X137367343Y-91013096D02*
X137744467Y-90635972D01*
X138067715Y-91444094D01*
X136486158Y-74098155D02*
X136405346Y-74125093D01*
X136324534Y-74205905D01*
X136270659Y-74313654D01*
X136270659Y-74421404D01*
X136297597Y-74502216D01*
X136378409Y-74636903D01*
X136459221Y-74717715D01*
X136593908Y-74798528D01*
X136674720Y-74825465D01*
X136782470Y-74825465D01*
X136890219Y-74771590D01*
X136944094Y-74717715D01*
X136997969Y-74609966D01*
X136997969Y-74556091D01*
X136809407Y-74367529D01*
X136701658Y-74475279D01*
X137294280Y-74367529D02*
X136728595Y-73801844D01*
X137617529Y-74044280D01*
X137051844Y-73478595D01*
X137886903Y-73774906D02*
X137321218Y-73209221D01*
X137455905Y-73074534D01*
X137563654Y-73020659D01*
X137671404Y-73020659D01*
X137752216Y-73047597D01*
X137886903Y-73128409D01*
X137967715Y-73209221D01*
X138048528Y-73343908D01*
X138075465Y-73424720D01*
X138075465Y-73532470D01*
X138021590Y-73640219D01*
X137886903Y-73774906D01*
X162097722Y-104820592D02*
X162016910Y-104847529D01*
X161936097Y-104928341D01*
X161882223Y-105036091D01*
X161882223Y-105143841D01*
X161909160Y-105224653D01*
X161989972Y-105359340D01*
X162070784Y-105440152D01*
X162205471Y-105520964D01*
X162286284Y-105547902D01*
X162394033Y-105547902D01*
X162501783Y-105494027D01*
X162555658Y-105440152D01*
X162609532Y-105332402D01*
X162609532Y-105278528D01*
X162420971Y-105089966D01*
X162313221Y-105197715D01*
X162905844Y-105089966D02*
X162340158Y-104524280D01*
X162555658Y-104308781D01*
X162636470Y-104281844D01*
X162690345Y-104281844D01*
X162771157Y-104308781D01*
X162851969Y-104389593D01*
X162878906Y-104470406D01*
X162878906Y-104524280D01*
X162851969Y-104605093D01*
X162636470Y-104820592D01*
X162932781Y-104039407D02*
X162932781Y-103985532D01*
X162959719Y-103904720D01*
X163094406Y-103770033D01*
X163175218Y-103743096D01*
X163229093Y-103743096D01*
X163309905Y-103770033D01*
X163363780Y-103823908D01*
X163417654Y-103931658D01*
X163417654Y-104578155D01*
X163767841Y-104227969D01*
X163552341Y-103312097D02*
X163606216Y-103258223D01*
X163687028Y-103231285D01*
X163740903Y-103231285D01*
X163821715Y-103258223D01*
X163956402Y-103339035D01*
X164091089Y-103473722D01*
X164171902Y-103608409D01*
X164198839Y-103689221D01*
X164198839Y-103743096D01*
X164171902Y-103823908D01*
X164118027Y-103877783D01*
X164037215Y-103904720D01*
X163983340Y-103904720D01*
X163902528Y-103877783D01*
X163767841Y-103796971D01*
X163633154Y-103662284D01*
X163552341Y-103527597D01*
X163525404Y-103446784D01*
X163525404Y-103392910D01*
X163552341Y-103312097D01*
X162097722Y-117520592D02*
X162016910Y-117547529D01*
X161936097Y-117628341D01*
X161882223Y-117736091D01*
X161882223Y-117843841D01*
X161909160Y-117924653D01*
X161989972Y-118059340D01*
X162070784Y-118140152D01*
X162205471Y-118220964D01*
X162286284Y-118247902D01*
X162394033Y-118247902D01*
X162501783Y-118194027D01*
X162555658Y-118140152D01*
X162609532Y-118032402D01*
X162609532Y-117978528D01*
X162420971Y-117789966D01*
X162313221Y-117897715D01*
X162905844Y-117789966D02*
X162340158Y-117224280D01*
X162555658Y-117008781D01*
X162636470Y-116981844D01*
X162690345Y-116981844D01*
X162771157Y-117008781D01*
X162851969Y-117089593D01*
X162878906Y-117170406D01*
X162878906Y-117224280D01*
X162851969Y-117305093D01*
X162636470Y-117520592D01*
X163767841Y-116927969D02*
X163444592Y-117251218D01*
X163606216Y-117089593D02*
X163040531Y-116523908D01*
X163067468Y-116658595D01*
X163067468Y-116766345D01*
X163040531Y-116847157D01*
X163687028Y-115877410D02*
X163579279Y-115985160D01*
X163552341Y-116065972D01*
X163552341Y-116119847D01*
X163579279Y-116254534D01*
X163660091Y-116389221D01*
X163875590Y-116604720D01*
X163956402Y-116631658D01*
X164010277Y-116631658D01*
X164091089Y-116604720D01*
X164198839Y-116496971D01*
X164225776Y-116416158D01*
X164225776Y-116362284D01*
X164198839Y-116281471D01*
X164064152Y-116146784D01*
X163983340Y-116119847D01*
X163929465Y-116119847D01*
X163848653Y-116146784D01*
X163740903Y-116254534D01*
X163713966Y-116335346D01*
X163713966Y-116389221D01*
X163740903Y-116470033D01*
X136186158Y-112448155D02*
X136105346Y-112475093D01*
X136024534Y-112555905D01*
X135970659Y-112663654D01*
X135970659Y-112771404D01*
X135997597Y-112852216D01*
X136078409Y-112986903D01*
X136159221Y-113067715D01*
X136293908Y-113148528D01*
X136374720Y-113175465D01*
X136482470Y-113175465D01*
X136590219Y-113121590D01*
X136644094Y-113067715D01*
X136697969Y-112959966D01*
X136697969Y-112906091D01*
X136509407Y-112717529D01*
X136401658Y-112825279D01*
X136994280Y-112717529D02*
X136428595Y-112151844D01*
X137317529Y-112394280D01*
X136751844Y-111828595D01*
X137586903Y-112124906D02*
X137021218Y-111559221D01*
X137155905Y-111424534D01*
X137263654Y-111370659D01*
X137371404Y-111370659D01*
X137452216Y-111397597D01*
X137586903Y-111478409D01*
X137667715Y-111559221D01*
X137748528Y-111693908D01*
X137775465Y-111774720D01*
X137775465Y-111882470D01*
X137721590Y-111990219D01*
X137586903Y-112124906D01*
X161922131Y-76958308D02*
X162272317Y-76608122D01*
X162299255Y-77012183D01*
X162380067Y-76931370D01*
X162460879Y-76904433D01*
X162514754Y-76904433D01*
X162595566Y-76931370D01*
X162730253Y-77066057D01*
X162757190Y-77146870D01*
X162757190Y-77200744D01*
X162730253Y-77281557D01*
X162568629Y-77443181D01*
X162487816Y-77470118D01*
X162433942Y-77470118D01*
X162433942Y-76446497D02*
X163188189Y-76823621D01*
X162811065Y-76069374D01*
X162945752Y-75934687D02*
X163295938Y-75584500D01*
X163322876Y-75988561D01*
X163403688Y-75907749D01*
X163484500Y-75880812D01*
X163538375Y-75880812D01*
X163619187Y-75907749D01*
X163753874Y-76042436D01*
X163780812Y-76123248D01*
X163780812Y-76177123D01*
X163753874Y-76257935D01*
X163592250Y-76419560D01*
X163511438Y-76446497D01*
X163457563Y-76446497D01*
X164023248Y-76096311D02*
X164454247Y-75665312D01*
X164238748Y-75180439D02*
X164427309Y-74991877D01*
X164804433Y-75207377D02*
X164535059Y-75476751D01*
X163969374Y-74911065D01*
X164238748Y-74641691D01*
X165046870Y-74964940D02*
X164481184Y-74399255D01*
X165370118Y-74641691D01*
X164804433Y-74076006D01*
X136486158Y-99498155D02*
X136405346Y-99525093D01*
X136324534Y-99605905D01*
X136270659Y-99713654D01*
X136270659Y-99821404D01*
X136297597Y-99902216D01*
X136378409Y-100036903D01*
X136459221Y-100117715D01*
X136593908Y-100198528D01*
X136674720Y-100225465D01*
X136782470Y-100225465D01*
X136890219Y-100171590D01*
X136944094Y-100117715D01*
X136997969Y-100009966D01*
X136997969Y-99956091D01*
X136809407Y-99767529D01*
X136701658Y-99875279D01*
X137294280Y-99767529D02*
X136728595Y-99201844D01*
X137617529Y-99444280D01*
X137051844Y-98878595D01*
X137886903Y-99174906D02*
X137321218Y-98609221D01*
X137455905Y-98474534D01*
X137563654Y-98420659D01*
X137671404Y-98420659D01*
X137752216Y-98447597D01*
X137886903Y-98528409D01*
X137967715Y-98609221D01*
X138048528Y-98743908D01*
X138075465Y-98824720D01*
X138075465Y-98932470D01*
X138021590Y-99040219D01*
X137886903Y-99174906D01*
X136513096Y-81691218D02*
X136432284Y-81718155D01*
X136351471Y-81798967D01*
X136297597Y-81906717D01*
X136297597Y-82014467D01*
X136324534Y-82095279D01*
X136405346Y-82229966D01*
X136486158Y-82310778D01*
X136620845Y-82391590D01*
X136701658Y-82418528D01*
X136809407Y-82418528D01*
X136917157Y-82364653D01*
X136971032Y-82310778D01*
X137024906Y-82203028D01*
X137024906Y-82149154D01*
X136836345Y-81960592D01*
X136728595Y-82068341D01*
X137321218Y-81960592D02*
X136755532Y-81394906D01*
X136971032Y-81179407D01*
X137051844Y-81152470D01*
X137105719Y-81152470D01*
X137186531Y-81179407D01*
X137267343Y-81260219D01*
X137294280Y-81341032D01*
X137294280Y-81394906D01*
X137267343Y-81475719D01*
X137051844Y-81691218D01*
X137752216Y-80775346D02*
X138129340Y-81152470D01*
X137402030Y-80694534D02*
X137671404Y-81233282D01*
X138021590Y-80883096D01*
X136513096Y-79151218D02*
X136432284Y-79178155D01*
X136351471Y-79258967D01*
X136297597Y-79366717D01*
X136297597Y-79474467D01*
X136324534Y-79555279D01*
X136405346Y-79689966D01*
X136486158Y-79770778D01*
X136620845Y-79851590D01*
X136701658Y-79878528D01*
X136809407Y-79878528D01*
X136917157Y-79824653D01*
X136971032Y-79770778D01*
X137024906Y-79663028D01*
X137024906Y-79609154D01*
X136836345Y-79420592D01*
X136728595Y-79528341D01*
X137321218Y-79420592D02*
X136755532Y-78854906D01*
X136971032Y-78639407D01*
X137051844Y-78612470D01*
X137105719Y-78612470D01*
X137186531Y-78639407D01*
X137267343Y-78720219D01*
X137294280Y-78801032D01*
X137294280Y-78854906D01*
X137267343Y-78935719D01*
X137051844Y-79151218D01*
X137267343Y-78343096D02*
X137617529Y-77992910D01*
X137644467Y-78396971D01*
X137725279Y-78316158D01*
X137806091Y-78289221D01*
X137859966Y-78289221D01*
X137940778Y-78316158D01*
X138075465Y-78450845D01*
X138102402Y-78531658D01*
X138102402Y-78585532D01*
X138075465Y-78666345D01*
X137913841Y-78827969D01*
X137833028Y-78854906D01*
X137779154Y-78854906D01*
X162097722Y-114980592D02*
X162016910Y-115007529D01*
X161936097Y-115088341D01*
X161882223Y-115196091D01*
X161882223Y-115303841D01*
X161909160Y-115384653D01*
X161989972Y-115519340D01*
X162070784Y-115600152D01*
X162205471Y-115680964D01*
X162286284Y-115707902D01*
X162394033Y-115707902D01*
X162501783Y-115654027D01*
X162555658Y-115600152D01*
X162609532Y-115492402D01*
X162609532Y-115438528D01*
X162420971Y-115249966D01*
X162313221Y-115357715D01*
X162905844Y-115249966D02*
X162340158Y-114684280D01*
X162555658Y-114468781D01*
X162636470Y-114441844D01*
X162690345Y-114441844D01*
X162771157Y-114468781D01*
X162851969Y-114549593D01*
X162878906Y-114630406D01*
X162878906Y-114684280D01*
X162851969Y-114765093D01*
X162636470Y-114980592D01*
X163767841Y-114387969D02*
X163444592Y-114711218D01*
X163606216Y-114549593D02*
X163040531Y-113983908D01*
X163067468Y-114118595D01*
X163067468Y-114226345D01*
X163040531Y-114307157D01*
X163390717Y-113633722D02*
X163767841Y-113256598D01*
X164091089Y-114064720D01*
X162086158Y-99498155D02*
X162005346Y-99525093D01*
X161924534Y-99605905D01*
X161870659Y-99713654D01*
X161870659Y-99821404D01*
X161897597Y-99902216D01*
X161978409Y-100036903D01*
X162059221Y-100117715D01*
X162193908Y-100198528D01*
X162274720Y-100225465D01*
X162382470Y-100225465D01*
X162490219Y-100171590D01*
X162544094Y-100117715D01*
X162597969Y-100009966D01*
X162597969Y-99956091D01*
X162409407Y-99767529D01*
X162301658Y-99875279D01*
X162894280Y-99767529D02*
X162328595Y-99201844D01*
X163217529Y-99444280D01*
X162651844Y-98878595D01*
X163486903Y-99174906D02*
X162921218Y-98609221D01*
X163055905Y-98474534D01*
X163163654Y-98420659D01*
X163271404Y-98420659D01*
X163352216Y-98447597D01*
X163486903Y-98528409D01*
X163567715Y-98609221D01*
X163648528Y-98743908D01*
X163675465Y-98824720D01*
X163675465Y-98932470D01*
X163621590Y-99040219D01*
X163486903Y-99174906D01*
X162151597Y-87740964D02*
X162420971Y-87471590D01*
X162259346Y-87956463D02*
X161882223Y-87202216D01*
X162636470Y-87579340D01*
X162582595Y-86555719D02*
X162501783Y-86582656D01*
X162420971Y-86663468D01*
X162367096Y-86771218D01*
X162367096Y-86878967D01*
X162394033Y-86959780D01*
X162474845Y-87094467D01*
X162555658Y-87175279D01*
X162690345Y-87256091D01*
X162771157Y-87283028D01*
X162878906Y-87283028D01*
X162986656Y-87229154D01*
X163040531Y-87175279D01*
X163094406Y-87067529D01*
X163094406Y-87013654D01*
X162905844Y-86825093D01*
X162798094Y-86932842D01*
X163390717Y-86825093D02*
X162825032Y-86259407D01*
X163713966Y-86501844D01*
X163148280Y-85936158D01*
X163983340Y-86232470D02*
X163417654Y-85666784D01*
X163552341Y-85532097D01*
X163660091Y-85478223D01*
X163767841Y-85478223D01*
X163848653Y-85505160D01*
X163983340Y-85585972D01*
X164064152Y-85666784D01*
X164144964Y-85801471D01*
X164171902Y-85882284D01*
X164171902Y-85990033D01*
X164118027Y-86097783D01*
X163983340Y-86232470D01*
X162097722Y-92120592D02*
X162016910Y-92147529D01*
X161936097Y-92228341D01*
X161882223Y-92336091D01*
X161882223Y-92443841D01*
X161909160Y-92524653D01*
X161989972Y-92659340D01*
X162070784Y-92740152D01*
X162205471Y-92820964D01*
X162286284Y-92847902D01*
X162394033Y-92847902D01*
X162501783Y-92794027D01*
X162555658Y-92740152D01*
X162609532Y-92632402D01*
X162609532Y-92578528D01*
X162420971Y-92389966D01*
X162313221Y-92497715D01*
X162905844Y-92389966D02*
X162340158Y-91824280D01*
X162555658Y-91608781D01*
X162636470Y-91581844D01*
X162690345Y-91581844D01*
X162771157Y-91608781D01*
X162851969Y-91689593D01*
X162878906Y-91770406D01*
X162878906Y-91824280D01*
X162851969Y-91905093D01*
X162636470Y-92120592D01*
X162932781Y-91339407D02*
X162932781Y-91285532D01*
X162959719Y-91204720D01*
X163094406Y-91070033D01*
X163175218Y-91043096D01*
X163229093Y-91043096D01*
X163309905Y-91070033D01*
X163363780Y-91123908D01*
X163417654Y-91231658D01*
X163417654Y-91878155D01*
X163767841Y-91527969D01*
X163687028Y-90477410D02*
X163579279Y-90585160D01*
X163552341Y-90665972D01*
X163552341Y-90719847D01*
X163579279Y-90854534D01*
X163660091Y-90989221D01*
X163875590Y-91204720D01*
X163956402Y-91231658D01*
X164010277Y-91231658D01*
X164091089Y-91204720D01*
X164198839Y-91096971D01*
X164225776Y-91016158D01*
X164225776Y-90962284D01*
X164198839Y-90881471D01*
X164064152Y-90746784D01*
X163983340Y-90719847D01*
X163929465Y-90719847D01*
X163848653Y-90746784D01*
X163740903Y-90854534D01*
X163713966Y-90935346D01*
X163713966Y-90989221D01*
X163740903Y-91070033D01*
X162154788Y-82533773D02*
X162424162Y-82264399D01*
X162262537Y-82749272D02*
X161885414Y-81995025D01*
X162639661Y-82372149D01*
X162828223Y-82183587D02*
X162262537Y-81617902D01*
X162397224Y-81483215D01*
X162504974Y-81429340D01*
X162612723Y-81429340D01*
X162693536Y-81456277D01*
X162828223Y-81537089D01*
X162909035Y-81617902D01*
X162989847Y-81752589D01*
X163016784Y-81833401D01*
X163016784Y-81941150D01*
X162962910Y-82048900D01*
X162828223Y-82183587D01*
X163663282Y-81240778D02*
X163663282Y-81294653D01*
X163609407Y-81402402D01*
X163555532Y-81456277D01*
X163447783Y-81510152D01*
X163340033Y-81510152D01*
X163259221Y-81483215D01*
X163124534Y-81402402D01*
X163043722Y-81321590D01*
X162962910Y-81186903D01*
X162935972Y-81106091D01*
X162935972Y-80998341D01*
X162989847Y-80890592D01*
X163043722Y-80836717D01*
X163151471Y-80782842D01*
X163205346Y-80782842D01*
X163878781Y-81240778D02*
X164309780Y-80809780D01*
X163744094Y-80136345D02*
X164498341Y-80513468D01*
X164121218Y-79759221D01*
X165198714Y-79813096D02*
X164740778Y-79732284D01*
X164875465Y-80136345D02*
X164309780Y-79570659D01*
X164525279Y-79355160D01*
X164606091Y-79328223D01*
X164659966Y-79328223D01*
X164740778Y-79355160D01*
X164821590Y-79435972D01*
X164848528Y-79516784D01*
X164848528Y-79570659D01*
X164821590Y-79651471D01*
X164606091Y-79866971D01*
X165144839Y-79274348D02*
X165333401Y-79085786D01*
X165710524Y-79301285D02*
X165441150Y-79570659D01*
X164875465Y-79004974D01*
X165144839Y-78735600D01*
X165845211Y-78573975D02*
X165656650Y-78762537D01*
X165952961Y-79058849D02*
X165387276Y-78493163D01*
X165656650Y-78223789D01*
X162086158Y-74098155D02*
X162005346Y-74125093D01*
X161924534Y-74205905D01*
X161870659Y-74313654D01*
X161870659Y-74421404D01*
X161897597Y-74502216D01*
X161978409Y-74636903D01*
X162059221Y-74717715D01*
X162193908Y-74798528D01*
X162274720Y-74825465D01*
X162382470Y-74825465D01*
X162490219Y-74771590D01*
X162544094Y-74717715D01*
X162597969Y-74609966D01*
X162597969Y-74556091D01*
X162409407Y-74367529D01*
X162301658Y-74475279D01*
X162894280Y-74367529D02*
X162328595Y-73801844D01*
X163217529Y-74044280D01*
X162651844Y-73478595D01*
X163486903Y-73774906D02*
X162921218Y-73209221D01*
X163055905Y-73074534D01*
X163163654Y-73020659D01*
X163271404Y-73020659D01*
X163352216Y-73047597D01*
X163486903Y-73128409D01*
X163567715Y-73209221D01*
X163648528Y-73343908D01*
X163675465Y-73424720D01*
X163675465Y-73532470D01*
X163621590Y-73640219D01*
X163486903Y-73774906D01*
X136513096Y-89311218D02*
X136432284Y-89338155D01*
X136351471Y-89418967D01*
X136297597Y-89526717D01*
X136297597Y-89634467D01*
X136324534Y-89715279D01*
X136405346Y-89849966D01*
X136486158Y-89930778D01*
X136620845Y-90011590D01*
X136701658Y-90038528D01*
X136809407Y-90038528D01*
X136917157Y-89984653D01*
X136971032Y-89930778D01*
X137024906Y-89823028D01*
X137024906Y-89769154D01*
X136836345Y-89580592D01*
X136728595Y-89688341D01*
X137321218Y-89580592D02*
X136755532Y-89014906D01*
X136971032Y-88799407D01*
X137051844Y-88772470D01*
X137105719Y-88772470D01*
X137186531Y-88799407D01*
X137267343Y-88880219D01*
X137294280Y-88961032D01*
X137294280Y-89014906D01*
X137267343Y-89095719D01*
X137051844Y-89311218D01*
X137563654Y-88206784D02*
X137455905Y-88314534D01*
X137428967Y-88395346D01*
X137428967Y-88449221D01*
X137455905Y-88583908D01*
X137536717Y-88718595D01*
X137752216Y-88934094D01*
X137833028Y-88961032D01*
X137886903Y-88961032D01*
X137967715Y-88934094D01*
X138075465Y-88826345D01*
X138102402Y-88745532D01*
X138102402Y-88691658D01*
X138075465Y-88610845D01*
X137940778Y-88476158D01*
X137859966Y-88449221D01*
X137806091Y-88449221D01*
X137725279Y-88476158D01*
X137617529Y-88583908D01*
X137590592Y-88664720D01*
X137590592Y-88718595D01*
X137617529Y-88799407D01*
X162097722Y-102290592D02*
X162016910Y-102317529D01*
X161936097Y-102398341D01*
X161882223Y-102506091D01*
X161882223Y-102613841D01*
X161909160Y-102694653D01*
X161989972Y-102829340D01*
X162070784Y-102910152D01*
X162205471Y-102990964D01*
X162286284Y-103017902D01*
X162394033Y-103017902D01*
X162501783Y-102964027D01*
X162555658Y-102910152D01*
X162609532Y-102802402D01*
X162609532Y-102748528D01*
X162420971Y-102559966D01*
X162313221Y-102667715D01*
X162905844Y-102559966D02*
X162340158Y-101994280D01*
X162555658Y-101778781D01*
X162636470Y-101751844D01*
X162690345Y-101751844D01*
X162771157Y-101778781D01*
X162851969Y-101859593D01*
X162878906Y-101940406D01*
X162878906Y-101994280D01*
X162851969Y-102075093D01*
X162636470Y-102290592D01*
X162932781Y-101509407D02*
X162932781Y-101455532D01*
X162959719Y-101374720D01*
X163094406Y-101240033D01*
X163175218Y-101213096D01*
X163229093Y-101213096D01*
X163309905Y-101240033D01*
X163363780Y-101293908D01*
X163417654Y-101401658D01*
X163417654Y-102048155D01*
X163767841Y-101697969D01*
X164306589Y-101159221D02*
X163983340Y-101482470D01*
X164144964Y-101320845D02*
X163579279Y-100755160D01*
X163606216Y-100889847D01*
X163606216Y-100997597D01*
X163579279Y-101078409D01*
X162097722Y-109900592D02*
X162016910Y-109927529D01*
X161936097Y-110008341D01*
X161882223Y-110116091D01*
X161882223Y-110223841D01*
X161909160Y-110304653D01*
X161989972Y-110439340D01*
X162070784Y-110520152D01*
X162205471Y-110600964D01*
X162286284Y-110627902D01*
X162394033Y-110627902D01*
X162501783Y-110574027D01*
X162555658Y-110520152D01*
X162609532Y-110412402D01*
X162609532Y-110358528D01*
X162420971Y-110169966D01*
X162313221Y-110277715D01*
X162905844Y-110169966D02*
X162340158Y-109604280D01*
X162555658Y-109388781D01*
X162636470Y-109361844D01*
X162690345Y-109361844D01*
X162771157Y-109388781D01*
X162851969Y-109469593D01*
X162878906Y-109550406D01*
X162878906Y-109604280D01*
X162851969Y-109685093D01*
X162636470Y-109900592D01*
X163767841Y-109307969D02*
X163444592Y-109631218D01*
X163606216Y-109469593D02*
X163040531Y-108903908D01*
X163067468Y-109038595D01*
X163067468Y-109146345D01*
X163040531Y-109227157D01*
X163767841Y-108661471D02*
X163687028Y-108688409D01*
X163633154Y-108688409D01*
X163552341Y-108661471D01*
X163525404Y-108634534D01*
X163498467Y-108553722D01*
X163498467Y-108499847D01*
X163525404Y-108419035D01*
X163633154Y-108311285D01*
X163713966Y-108284348D01*
X163767841Y-108284348D01*
X163848653Y-108311285D01*
X163875590Y-108338223D01*
X163902528Y-108419035D01*
X163902528Y-108472910D01*
X163875590Y-108553722D01*
X163767841Y-108661471D01*
X163740903Y-108742284D01*
X163740903Y-108796158D01*
X163767841Y-108876971D01*
X163875590Y-108984720D01*
X163956402Y-109011658D01*
X164010277Y-109011658D01*
X164091089Y-108984720D01*
X164198839Y-108876971D01*
X164225776Y-108796158D01*
X164225776Y-108742284D01*
X164198839Y-108661471D01*
X164091089Y-108553722D01*
X164010277Y-108526784D01*
X163956402Y-108526784D01*
X163875590Y-108553722D01*
X135989722Y-102280592D02*
X135908910Y-102307529D01*
X135828097Y-102388341D01*
X135774223Y-102496091D01*
X135774223Y-102603841D01*
X135801160Y-102684653D01*
X135881972Y-102819340D01*
X135962784Y-102900152D01*
X136097471Y-102980964D01*
X136178284Y-103007902D01*
X136286033Y-103007902D01*
X136393783Y-102954027D01*
X136447658Y-102900152D01*
X136501532Y-102792402D01*
X136501532Y-102738528D01*
X136312971Y-102549966D01*
X136205221Y-102657715D01*
X136797844Y-102549966D02*
X136232158Y-101984280D01*
X136447658Y-101768781D01*
X136528470Y-101741844D01*
X136582345Y-101741844D01*
X136663157Y-101768781D01*
X136743969Y-101849593D01*
X136770906Y-101930406D01*
X136770906Y-101984280D01*
X136743969Y-102065093D01*
X136528470Y-102280592D01*
X137659841Y-101687969D02*
X137336592Y-102011218D01*
X137498216Y-101849593D02*
X136932531Y-101283908D01*
X136959468Y-101418595D01*
X136959468Y-101526345D01*
X136932531Y-101607157D01*
X137444341Y-100772097D02*
X137498216Y-100718223D01*
X137579028Y-100691285D01*
X137632903Y-100691285D01*
X137713715Y-100718223D01*
X137848402Y-100799035D01*
X137983089Y-100933722D01*
X138063902Y-101068409D01*
X138090839Y-101149221D01*
X138090839Y-101203096D01*
X138063902Y-101283908D01*
X138010027Y-101337783D01*
X137929215Y-101364720D01*
X137875340Y-101364720D01*
X137794528Y-101337783D01*
X137659841Y-101256971D01*
X137525154Y-101122284D01*
X137444341Y-100987597D01*
X137417404Y-100906784D01*
X137417404Y-100852910D01*
X137444341Y-100772097D01*
X135989722Y-109900592D02*
X135908910Y-109927529D01*
X135828097Y-110008341D01*
X135774223Y-110116091D01*
X135774223Y-110223841D01*
X135801160Y-110304653D01*
X135881972Y-110439340D01*
X135962784Y-110520152D01*
X136097471Y-110600964D01*
X136178284Y-110627902D01*
X136286033Y-110627902D01*
X136393783Y-110574027D01*
X136447658Y-110520152D01*
X136501532Y-110412402D01*
X136501532Y-110358528D01*
X136312971Y-110169966D01*
X136205221Y-110277715D01*
X136797844Y-110169966D02*
X136232158Y-109604280D01*
X136447658Y-109388781D01*
X136528470Y-109361844D01*
X136582345Y-109361844D01*
X136663157Y-109388781D01*
X136743969Y-109469593D01*
X136770906Y-109550406D01*
X136770906Y-109604280D01*
X136743969Y-109685093D01*
X136528470Y-109900592D01*
X137659841Y-109307969D02*
X137336592Y-109631218D01*
X137498216Y-109469593D02*
X136932531Y-108903908D01*
X136959468Y-109038595D01*
X136959468Y-109146345D01*
X136932531Y-109227157D01*
X137282717Y-108553722D02*
X137632903Y-108203536D01*
X137659841Y-108607597D01*
X137740653Y-108526784D01*
X137821465Y-108499847D01*
X137875340Y-108499847D01*
X137956152Y-108526784D01*
X138090839Y-108661471D01*
X138117776Y-108742284D01*
X138117776Y-108796158D01*
X138090839Y-108876971D01*
X137929215Y-109038595D01*
X137848402Y-109065532D01*
X137794528Y-109065532D01*
X142490476Y-119523809D02*
X142604761Y-119561904D01*
X142795238Y-119561904D01*
X142871428Y-119523809D01*
X142909523Y-119485714D01*
X142947619Y-119409523D01*
X142947619Y-119333333D01*
X142909523Y-119257142D01*
X142871428Y-119219047D01*
X142795238Y-119180952D01*
X142642857Y-119142857D01*
X142566666Y-119104761D01*
X142528571Y-119066666D01*
X142490476Y-118990476D01*
X142490476Y-118914285D01*
X142528571Y-118838095D01*
X142566666Y-118800000D01*
X142642857Y-118761904D01*
X142833333Y-118761904D01*
X142947619Y-118800000D01*
X143214285Y-118761904D02*
X143404761Y-119561904D01*
X143557142Y-118990476D01*
X143709523Y-119561904D01*
X143900000Y-118761904D01*
X144661904Y-119485714D02*
X144623809Y-119523809D01*
X144509523Y-119561904D01*
X144433333Y-119561904D01*
X144319047Y-119523809D01*
X144242857Y-119447619D01*
X144204761Y-119371428D01*
X144166666Y-119219047D01*
X144166666Y-119104761D01*
X144204761Y-118952380D01*
X144242857Y-118876190D01*
X144319047Y-118800000D01*
X144433333Y-118761904D01*
X144509523Y-118761904D01*
X144623809Y-118800000D01*
X144661904Y-118838095D01*
X145385714Y-119561904D02*
X145004761Y-119561904D01*
X145004761Y-118761904D01*
X145652380Y-119561904D02*
X145652380Y-118761904D01*
X146109523Y-119561904D02*
X145766666Y-119104761D01*
X146109523Y-118761904D02*
X145652380Y-119219047D01*
X161953129Y-69527309D02*
X162707377Y-69904433D01*
X162330253Y-69150186D01*
X162976751Y-69042436D02*
X163084500Y-68988561D01*
X163138375Y-68988561D01*
X163219187Y-69015499D01*
X163300000Y-69096311D01*
X163326937Y-69177123D01*
X163326937Y-69230998D01*
X163300000Y-69311810D01*
X163084500Y-69527309D01*
X162518815Y-68961624D01*
X162707377Y-68773062D01*
X162788189Y-68746125D01*
X162842064Y-68746125D01*
X162922876Y-68773062D01*
X162976751Y-68826937D01*
X163003688Y-68907749D01*
X163003688Y-68961624D01*
X162976751Y-69042436D01*
X162788189Y-69230998D01*
X163084500Y-68395938D02*
X163542436Y-68853874D01*
X163623248Y-68880812D01*
X163677123Y-68880812D01*
X163757935Y-68853874D01*
X163865685Y-68746125D01*
X163892622Y-68665312D01*
X163892622Y-68611438D01*
X163865685Y-68530625D01*
X163407749Y-68072690D01*
X164188934Y-68369001D02*
X164296683Y-68315126D01*
X164431370Y-68180439D01*
X164458308Y-68099627D01*
X164458308Y-68045752D01*
X164431370Y-67964940D01*
X164377496Y-67911065D01*
X164296683Y-67884128D01*
X164242809Y-67884128D01*
X164161996Y-67911065D01*
X164027309Y-67991877D01*
X163946497Y-68018815D01*
X163892622Y-68018815D01*
X163811810Y-67991877D01*
X163757935Y-67938003D01*
X163730998Y-67857190D01*
X163730998Y-67803316D01*
X163757935Y-67722503D01*
X163892622Y-67587816D01*
X164000372Y-67533942D01*
X161889847Y-79490592D02*
X162240033Y-79140406D01*
X162266971Y-79544467D01*
X162347783Y-79463654D01*
X162428595Y-79436717D01*
X162482470Y-79436717D01*
X162563282Y-79463654D01*
X162697969Y-79598341D01*
X162724906Y-79679154D01*
X162724906Y-79733028D01*
X162697969Y-79813841D01*
X162536345Y-79975465D01*
X162455532Y-80002402D01*
X162401658Y-80002402D01*
X162401658Y-78978781D02*
X163155905Y-79355905D01*
X162778781Y-78601658D01*
X162913468Y-78466971D02*
X163263654Y-78116784D01*
X163290592Y-78520845D01*
X163371404Y-78440033D01*
X163452216Y-78413096D01*
X163506091Y-78413096D01*
X163586903Y-78440033D01*
X163721590Y-78574720D01*
X163748528Y-78655532D01*
X163748528Y-78709407D01*
X163721590Y-78790219D01*
X163559966Y-78951844D01*
X163479154Y-78978781D01*
X163425279Y-78978781D01*
X136513096Y-96931218D02*
X136432284Y-96958155D01*
X136351471Y-97038967D01*
X136297597Y-97146717D01*
X136297597Y-97254467D01*
X136324534Y-97335279D01*
X136405346Y-97469966D01*
X136486158Y-97550778D01*
X136620845Y-97631590D01*
X136701658Y-97658528D01*
X136809407Y-97658528D01*
X136917157Y-97604653D01*
X136971032Y-97550778D01*
X137024906Y-97443028D01*
X137024906Y-97389154D01*
X136836345Y-97200592D01*
X136728595Y-97308341D01*
X137321218Y-97200592D02*
X136755532Y-96634906D01*
X136971032Y-96419407D01*
X137051844Y-96392470D01*
X137105719Y-96392470D01*
X137186531Y-96419407D01*
X137267343Y-96500219D01*
X137294280Y-96581032D01*
X137294280Y-96634906D01*
X137267343Y-96715719D01*
X137051844Y-96931218D01*
X137913841Y-96607969D02*
X138021590Y-96500219D01*
X138048528Y-96419407D01*
X138048528Y-96365532D01*
X138021590Y-96230845D01*
X137940778Y-96096158D01*
X137725279Y-95880659D01*
X137644467Y-95853722D01*
X137590592Y-95853722D01*
X137509780Y-95880659D01*
X137402030Y-95988409D01*
X137375093Y-96069221D01*
X137375093Y-96123096D01*
X137402030Y-96203908D01*
X137536717Y-96338595D01*
X137617529Y-96365532D01*
X137671404Y-96365532D01*
X137752216Y-96338595D01*
X137859966Y-96230845D01*
X137886903Y-96150033D01*
X137886903Y-96096158D01*
X137859966Y-96015346D01*
X136513096Y-94391218D02*
X136432284Y-94418155D01*
X136351471Y-94498967D01*
X136297597Y-94606717D01*
X136297597Y-94714467D01*
X136324534Y-94795279D01*
X136405346Y-94929966D01*
X136486158Y-95010778D01*
X136620845Y-95091590D01*
X136701658Y-95118528D01*
X136809407Y-95118528D01*
X136917157Y-95064653D01*
X136971032Y-95010778D01*
X137024906Y-94903028D01*
X137024906Y-94849154D01*
X136836345Y-94660592D01*
X136728595Y-94768341D01*
X137321218Y-94660592D02*
X136755532Y-94094906D01*
X136971032Y-93879407D01*
X137051844Y-93852470D01*
X137105719Y-93852470D01*
X137186531Y-93879407D01*
X137267343Y-93960219D01*
X137294280Y-94041032D01*
X137294280Y-94094906D01*
X137267343Y-94175719D01*
X137051844Y-94391218D01*
X137644467Y-93690845D02*
X137563654Y-93717783D01*
X137509780Y-93717783D01*
X137428967Y-93690845D01*
X137402030Y-93663908D01*
X137375093Y-93583096D01*
X137375093Y-93529221D01*
X137402030Y-93448409D01*
X137509780Y-93340659D01*
X137590592Y-93313722D01*
X137644467Y-93313722D01*
X137725279Y-93340659D01*
X137752216Y-93367597D01*
X137779154Y-93448409D01*
X137779154Y-93502284D01*
X137752216Y-93583096D01*
X137644467Y-93690845D01*
X137617529Y-93771658D01*
X137617529Y-93825532D01*
X137644467Y-93906345D01*
X137752216Y-94014094D01*
X137833028Y-94041032D01*
X137886903Y-94041032D01*
X137967715Y-94014094D01*
X138075465Y-93906345D01*
X138102402Y-93825532D01*
X138102402Y-93771658D01*
X138075465Y-93690845D01*
X137967715Y-93583096D01*
X137886903Y-93556158D01*
X137833028Y-93556158D01*
X137752216Y-93583096D01*
X135989722Y-117520592D02*
X135908910Y-117547529D01*
X135828097Y-117628341D01*
X135774223Y-117736091D01*
X135774223Y-117843841D01*
X135801160Y-117924653D01*
X135881972Y-118059340D01*
X135962784Y-118140152D01*
X136097471Y-118220964D01*
X136178284Y-118247902D01*
X136286033Y-118247902D01*
X136393783Y-118194027D01*
X136447658Y-118140152D01*
X136501532Y-118032402D01*
X136501532Y-117978528D01*
X136312971Y-117789966D01*
X136205221Y-117897715D01*
X136797844Y-117789966D02*
X136232158Y-117224280D01*
X136447658Y-117008781D01*
X136528470Y-116981844D01*
X136582345Y-116981844D01*
X136663157Y-117008781D01*
X136743969Y-117089593D01*
X136770906Y-117170406D01*
X136770906Y-117224280D01*
X136743969Y-117305093D01*
X136528470Y-117520592D01*
X137659841Y-116927969D02*
X137336592Y-117251218D01*
X137498216Y-117089593D02*
X136932531Y-116523908D01*
X136959468Y-116658595D01*
X136959468Y-116766345D01*
X136932531Y-116847157D01*
X137605966Y-115850473D02*
X137336592Y-116119847D01*
X137579028Y-116416158D01*
X137579028Y-116362284D01*
X137605966Y-116281471D01*
X137740653Y-116146784D01*
X137821465Y-116119847D01*
X137875340Y-116119847D01*
X137956152Y-116146784D01*
X138090839Y-116281471D01*
X138117776Y-116362284D01*
X138117776Y-116416158D01*
X138090839Y-116496971D01*
X137956152Y-116631658D01*
X137875340Y-116658595D01*
X137821465Y-116658595D01*
%TO.C,A1*%
X176724012Y-142283973D02*
X176393222Y-141941430D01*
X176995696Y-142154008D02*
X176044803Y-142608886D01*
X176532590Y-141674448D01*
X175937169Y-141057871D02*
X176334116Y-141468922D01*
X176135642Y-141263397D02*
X175416303Y-141958055D01*
X175585223Y-141927327D01*
X175719890Y-141929677D01*
X175820302Y-141965107D01*
X183680041Y-138592667D02*
X183283094Y-138181616D01*
X184200907Y-137692483D02*
X183481567Y-138387141D01*
X183471995Y-137006222D02*
X183572407Y-137041652D01*
X183704723Y-137178669D01*
X183736626Y-137280256D01*
X183701197Y-137380669D01*
X183427163Y-137645300D01*
X183325575Y-137677204D01*
X183225163Y-137641774D01*
X183092847Y-137504757D01*
X183060943Y-137403170D01*
X183096373Y-137302758D01*
X183164881Y-137236600D01*
X183564180Y-137512984D01*
X183174284Y-136697934D02*
X183142380Y-136596346D01*
X183010064Y-136459329D01*
X182909652Y-136423899D01*
X182808065Y-136455803D01*
X182773810Y-136488882D01*
X182738381Y-136589294D01*
X182770284Y-136690882D01*
X182869521Y-136793645D01*
X182901425Y-136895232D01*
X182865995Y-136995644D01*
X182831741Y-137028723D01*
X182730154Y-137060627D01*
X182629741Y-137025197D01*
X182530504Y-136922435D01*
X182498601Y-136820847D01*
X182232794Y-136614146D02*
X181968162Y-136340112D01*
X181893777Y-136742936D02*
X182510354Y-136147515D01*
X182545783Y-136047102D01*
X182513880Y-135945515D01*
X182447722Y-135877006D01*
X182216169Y-135637226D02*
X181496829Y-136331885D01*
X181232197Y-136057851D01*
X181200294Y-135956263D01*
X181201469Y-135888930D01*
X181236899Y-135788518D01*
X181339661Y-135689281D01*
X181441249Y-135657377D01*
X181508582Y-135658552D01*
X181608994Y-135693982D01*
X181873626Y-135968016D01*
X181422274Y-134815124D02*
X181454177Y-134916711D01*
X181453002Y-134984045D01*
X181417572Y-135084457D01*
X181212047Y-135282931D01*
X181110459Y-135314834D01*
X181043126Y-135313659D01*
X180942714Y-135278229D01*
X180843477Y-135175467D01*
X180811573Y-135073879D01*
X180812749Y-135006546D01*
X180848178Y-134906134D01*
X181053704Y-134707660D01*
X181155291Y-134675756D01*
X181222625Y-134676931D01*
X181323037Y-134712361D01*
X181422274Y-134815124D01*
X180893010Y-134267055D02*
X180413450Y-134730161D01*
X180173670Y-134961714D02*
X180241004Y-134962889D01*
X180242179Y-134895556D01*
X180174846Y-134894380D01*
X180173670Y-134961714D01*
X180242179Y-134895556D01*
X180082661Y-134387618D02*
X180562221Y-133924513D01*
X180151169Y-134321460D02*
X180083836Y-134320285D01*
X179983424Y-134284855D01*
X179884187Y-134182093D01*
X179852283Y-134080505D01*
X179887713Y-133980093D01*
X180264510Y-133616224D01*
X179553397Y-133839550D02*
X179288765Y-133565516D01*
X179214380Y-133968340D02*
X179830957Y-133372918D01*
X179866387Y-133272506D01*
X179834483Y-133170919D01*
X179768325Y-133102410D01*
%TO.C,A2*%
X189692401Y-124765724D02*
X189234657Y-124634468D01*
X189862703Y-124517329D02*
X189266645Y-125386712D01*
X189221862Y-124333571D01*
X188697829Y-125124530D02*
X188638929Y-125157179D01*
X188534255Y-125176702D01*
X188305383Y-125111074D01*
X188226960Y-125039049D01*
X188194311Y-124980149D01*
X188174788Y-124875474D01*
X188201039Y-124783926D01*
X188286190Y-124659728D01*
X188992990Y-124267943D01*
X188397923Y-124097310D01*
X194193477Y-118454298D02*
X193644184Y-118296791D01*
X194194468Y-117414283D02*
X193918831Y-118375544D01*
X193220081Y-117184420D02*
X193324755Y-117164896D01*
X193507853Y-117217399D01*
X193586276Y-117289424D01*
X193605799Y-117394099D01*
X193500794Y-117760294D01*
X193428769Y-117838717D01*
X193324094Y-117858240D01*
X193140997Y-117805738D01*
X193062574Y-117733712D01*
X193043051Y-117629038D01*
X193069302Y-117537489D01*
X193553297Y-117577196D01*
X192808111Y-117066289D02*
X192729688Y-116994264D01*
X192546591Y-116941761D01*
X192441917Y-116961285D01*
X192369891Y-117039708D01*
X192356765Y-117085482D01*
X192376289Y-117190157D01*
X192454712Y-117262182D01*
X192592035Y-117301559D01*
X192670458Y-117373584D01*
X192689981Y-117478259D01*
X192676856Y-117524033D01*
X192604830Y-117602456D01*
X192500156Y-117621979D01*
X192362833Y-117582603D01*
X192284409Y-117510577D01*
X191950863Y-117464472D02*
X191584668Y-117359468D01*
X191721661Y-117745516D02*
X191957922Y-116921578D01*
X191938398Y-116816903D01*
X191859975Y-116744878D01*
X191768427Y-116718626D01*
X191448006Y-116626747D02*
X191172369Y-117588009D01*
X190806174Y-117483004D01*
X190727751Y-117410979D01*
X190695102Y-117352079D01*
X190675579Y-117247405D01*
X190714955Y-117110081D01*
X190786981Y-117031658D01*
X190845881Y-116999010D01*
X190950555Y-116979486D01*
X191316750Y-117084491D01*
X190349421Y-116311733D02*
X190427844Y-116383759D01*
X190460493Y-116442659D01*
X190480016Y-116547333D01*
X190401263Y-116821979D01*
X190329237Y-116900402D01*
X190270337Y-116933051D01*
X190165663Y-116952574D01*
X190028340Y-116913198D01*
X189949917Y-116841172D01*
X189917268Y-116782272D01*
X189897745Y-116677598D01*
X189976498Y-116402952D01*
X190048524Y-116324528D01*
X190107424Y-116291880D01*
X190212098Y-116272356D01*
X190349421Y-116311733D01*
X189617031Y-116101724D02*
X189433273Y-116742565D01*
X189341394Y-117062986D02*
X189400294Y-117030337D01*
X189367645Y-116971437D01*
X189308745Y-117004086D01*
X189341394Y-117062986D01*
X189367645Y-116971437D01*
X188975529Y-116611309D02*
X189159288Y-115970468D01*
X189001781Y-116519760D02*
X188942881Y-116552409D01*
X188838206Y-116571932D01*
X188700883Y-116532556D01*
X188622460Y-116460530D01*
X188602937Y-116355856D01*
X188747318Y-115852338D01*
X188243140Y-116401300D02*
X187876945Y-116296295D01*
X188013937Y-116682343D02*
X188250198Y-115858405D01*
X188230675Y-115753731D01*
X188152252Y-115681705D01*
X188060703Y-115655454D01*
%TO.C,A0*%
X157374946Y-152095752D02*
X157243690Y-151638009D01*
X157675843Y-152108548D02*
X156622702Y-152063764D01*
X157492085Y-151467707D01*
X156386442Y-151239826D02*
X156360190Y-151148277D01*
X156379714Y-151043603D01*
X156412362Y-150984703D01*
X156490786Y-150912677D01*
X156660757Y-150814401D01*
X156889629Y-150748773D01*
X157085852Y-150742045D01*
X157190527Y-150761568D01*
X157249427Y-150794217D01*
X157321452Y-150872640D01*
X157347703Y-150964188D01*
X157328180Y-151068863D01*
X157295531Y-151127763D01*
X157217108Y-151199788D01*
X157047136Y-151298065D01*
X156818264Y-151363693D01*
X156622041Y-151370421D01*
X156517367Y-151350898D01*
X156458467Y-151318249D01*
X156386442Y-151239826D01*
X164960885Y-151648085D02*
X164803378Y-151098793D01*
X165843394Y-151097802D02*
X164882132Y-151373439D01*
X165521982Y-150149666D02*
X165594007Y-150228089D01*
X165646510Y-150411186D01*
X165626987Y-150515861D01*
X165548563Y-150587886D01*
X165182369Y-150692891D01*
X165077694Y-150673368D01*
X165005669Y-150594945D01*
X164953166Y-150411847D01*
X164972690Y-150307173D01*
X165051113Y-150235147D01*
X165142661Y-150208896D01*
X165365466Y-150640389D01*
X165403852Y-149737696D02*
X165423375Y-149633022D01*
X165370872Y-149449925D01*
X165298847Y-149371502D01*
X165194173Y-149351978D01*
X165148398Y-149365104D01*
X165069975Y-149437129D01*
X165050452Y-149541804D01*
X165089829Y-149679127D01*
X165070305Y-149783801D01*
X164991882Y-149855827D01*
X164946108Y-149868952D01*
X164841434Y-149849429D01*
X164769408Y-149771006D01*
X164730031Y-149633683D01*
X164749555Y-149529009D01*
X164611901Y-149221714D02*
X164506896Y-148855519D01*
X164252104Y-149176270D02*
X165076042Y-148940009D01*
X165154465Y-148867983D01*
X165173989Y-148763309D01*
X165147737Y-148671760D01*
X165055858Y-148351340D02*
X164094597Y-148626977D01*
X163989592Y-148260782D01*
X164009115Y-148156108D01*
X164041764Y-148097208D01*
X164120187Y-148025182D01*
X164257510Y-147985806D01*
X164362184Y-148005329D01*
X164421084Y-148037978D01*
X164493110Y-148116401D01*
X164598115Y-148482596D01*
X164740844Y-147252755D02*
X164721321Y-147357429D01*
X164688672Y-147416329D01*
X164610249Y-147488355D01*
X164335603Y-147567108D01*
X164230929Y-147547585D01*
X164172029Y-147514936D01*
X164100003Y-147436513D01*
X164060626Y-147299190D01*
X164080150Y-147194516D01*
X164112798Y-147135616D01*
X164191221Y-147063590D01*
X164465868Y-146984837D01*
X164570542Y-147004360D01*
X164629442Y-147037009D01*
X164701467Y-147115432D01*
X164740844Y-147252755D01*
X164530835Y-146520365D02*
X163889994Y-146704123D01*
X163569573Y-146796003D02*
X163628473Y-146828651D01*
X163661122Y-146769751D01*
X163602222Y-146737103D01*
X163569573Y-146796003D01*
X163661122Y-146769751D01*
X163758738Y-146246380D02*
X164399579Y-146062622D01*
X163850287Y-146220129D02*
X163791387Y-146187480D01*
X163719361Y-146109057D01*
X163679984Y-145971734D01*
X163699507Y-145867059D01*
X163777931Y-145795034D01*
X164281449Y-145650652D01*
X163548728Y-145513990D02*
X163443724Y-145147795D01*
X163188931Y-145468546D02*
X164012870Y-145232285D01*
X164091293Y-145160260D01*
X164110816Y-145055585D01*
X164084565Y-144964037D01*
%TO.C,D0*%
X108641148Y-117633448D02*
X108382329Y-116667522D01*
X108612311Y-116605899D01*
X108762625Y-116614921D01*
X108879268Y-116682264D01*
X108949914Y-116761933D01*
X109045209Y-116933594D01*
X109082183Y-117071583D01*
X109085486Y-117267894D01*
X109064139Y-117372211D01*
X108996795Y-117488854D01*
X108871130Y-117571824D01*
X108641148Y-117633448D01*
X109532241Y-116359404D02*
X109624234Y-116334755D01*
X109728551Y-116356102D01*
X109786872Y-116389774D01*
X109857518Y-116469442D01*
X109952814Y-116641103D01*
X110014437Y-116871085D01*
X110017740Y-117067396D01*
X109996393Y-117171714D01*
X109962721Y-117230035D01*
X109883053Y-117300681D01*
X109791060Y-117325330D01*
X109686742Y-117303983D01*
X109628421Y-117270311D01*
X109557775Y-117190643D01*
X109462480Y-117018982D01*
X109400856Y-116789000D01*
X109397554Y-116592689D01*
X109418901Y-116488371D01*
X109452572Y-116430050D01*
X109532241Y-116359404D01*
X107055564Y-125356684D02*
X107607521Y-125208788D01*
X107590361Y-126248662D02*
X107331542Y-125282736D01*
X108543962Y-125943846D02*
X108464294Y-126014492D01*
X108280308Y-126063791D01*
X108175991Y-126042444D01*
X108105345Y-125962776D01*
X108006747Y-125594804D01*
X108028094Y-125490486D01*
X108107762Y-125419840D01*
X108291748Y-125370542D01*
X108396066Y-125391889D01*
X108466712Y-125471557D01*
X108491361Y-125563550D01*
X108056046Y-125778790D01*
X108957931Y-125832924D02*
X109062248Y-125854271D01*
X109246234Y-125804972D01*
X109325902Y-125734326D01*
X109347249Y-125630008D01*
X109334925Y-125584012D01*
X109264279Y-125504344D01*
X109159961Y-125482997D01*
X109021972Y-125519971D01*
X108917654Y-125498624D01*
X108847008Y-125418956D01*
X108834684Y-125372959D01*
X108856031Y-125268642D01*
X108935699Y-125197996D01*
X109073688Y-125161021D01*
X109178006Y-125182368D01*
X109487656Y-125050099D02*
X109855628Y-124951501D01*
X109539373Y-124691150D02*
X109761218Y-125519086D01*
X109831864Y-125598754D01*
X109936181Y-125620101D01*
X110028174Y-125595452D01*
X110350149Y-125509179D02*
X110091330Y-124543253D01*
X110459302Y-124444655D01*
X110563620Y-124466002D01*
X110621941Y-124499674D01*
X110692587Y-124579342D01*
X110729561Y-124717332D01*
X110708214Y-124821649D01*
X110674542Y-124879970D01*
X110594874Y-124950616D01*
X110226902Y-125049214D01*
X111454065Y-125213386D02*
X111349747Y-125192039D01*
X111291426Y-125158367D01*
X111220780Y-125078699D01*
X111146832Y-124802720D01*
X111168179Y-124698402D01*
X111201850Y-124640081D01*
X111281519Y-124569435D01*
X111419508Y-124532461D01*
X111523826Y-124553808D01*
X111582147Y-124587480D01*
X111652793Y-124667148D01*
X111726741Y-124943127D01*
X111705394Y-125047444D01*
X111671722Y-125105766D01*
X111592054Y-125176411D01*
X111454065Y-125213386D01*
X112190008Y-125016190D02*
X112017462Y-124372240D01*
X111931189Y-124050264D02*
X111897517Y-124108586D01*
X111955839Y-124142257D01*
X111989510Y-124083936D01*
X111931189Y-124050264D01*
X111955839Y-124142257D01*
X112477427Y-124248992D02*
X112649973Y-124892943D01*
X112502076Y-124340985D02*
X112535748Y-124282664D01*
X112615416Y-124212018D01*
X112753406Y-124175044D01*
X112857723Y-124196391D01*
X112928369Y-124276059D01*
X113063941Y-124782021D01*
X113213370Y-124051797D02*
X113581342Y-123953199D01*
X113265087Y-123692848D02*
X113486932Y-124520784D01*
X113557577Y-124600452D01*
X113661895Y-124621799D01*
X113753888Y-124597150D01*
%TO.C,D2*%
X135483699Y-149441112D02*
X134522438Y-149165475D01*
X134588066Y-148936603D01*
X134673217Y-148812406D01*
X134791017Y-148747108D01*
X134895691Y-148727585D01*
X135091914Y-148734313D01*
X135229237Y-148773690D01*
X135399209Y-148871966D01*
X135477632Y-148943992D01*
X135542930Y-149061792D01*
X135549327Y-149212240D01*
X135483699Y-149441112D01*
X134876498Y-148276239D02*
X134843849Y-148217339D01*
X134824326Y-148112664D01*
X134889954Y-147883793D01*
X134961980Y-147805370D01*
X135020880Y-147772721D01*
X135125554Y-147753198D01*
X135217103Y-147779449D01*
X135341300Y-147864600D01*
X135733086Y-148571399D01*
X135903718Y-147976333D01*
X141837107Y-155310483D02*
X141994614Y-154761190D01*
X142877122Y-155311474D02*
X141915861Y-155035837D01*
X143106985Y-154337087D02*
X143126509Y-154441761D01*
X143074006Y-154624859D01*
X143001981Y-154703282D01*
X142897306Y-154722805D01*
X142531111Y-154617800D01*
X142452688Y-154545775D01*
X142433165Y-154441100D01*
X142485667Y-154258003D01*
X142557693Y-154179580D01*
X142662367Y-154160057D01*
X142753916Y-154186308D01*
X142714209Y-154670303D01*
X143225116Y-153925117D02*
X143297141Y-153846694D01*
X143349644Y-153663597D01*
X143330120Y-153558923D01*
X143251697Y-153486897D01*
X143205923Y-153473771D01*
X143101248Y-153493295D01*
X143029223Y-153571718D01*
X142989846Y-153709041D01*
X142917821Y-153787464D01*
X142813146Y-153806987D01*
X142767372Y-153793862D01*
X142688949Y-153721836D01*
X142669426Y-153617162D01*
X142708802Y-153479839D01*
X142780828Y-153401415D01*
X142826933Y-153067869D02*
X142931937Y-152701674D01*
X142545889Y-152838667D02*
X143369827Y-153074928D01*
X143474502Y-153055404D01*
X143546527Y-152976981D01*
X143572779Y-152885433D01*
X143664658Y-152565012D02*
X142703396Y-152289375D01*
X142808401Y-151923180D01*
X142880426Y-151844757D01*
X142939326Y-151812108D01*
X143044000Y-151792585D01*
X143181324Y-151831961D01*
X143259747Y-151903987D01*
X143292395Y-151962887D01*
X143311919Y-152067561D01*
X143206914Y-152433756D01*
X143979672Y-151466427D02*
X143907646Y-151544850D01*
X143848746Y-151577499D01*
X143744072Y-151597022D01*
X143469426Y-151518269D01*
X143391003Y-151446243D01*
X143358354Y-151387343D01*
X143338831Y-151282669D01*
X143378207Y-151145346D01*
X143450233Y-151066923D01*
X143509133Y-151034274D01*
X143613807Y-151014751D01*
X143888453Y-151093504D01*
X143966877Y-151165530D01*
X143999525Y-151224430D01*
X144019049Y-151329104D01*
X143979672Y-151466427D01*
X144189681Y-150734037D02*
X143548840Y-150550279D01*
X143228419Y-150458400D02*
X143261068Y-150517300D01*
X143319968Y-150484651D01*
X143287319Y-150425751D01*
X143228419Y-150458400D01*
X143319968Y-150484651D01*
X143680096Y-150092535D02*
X144320937Y-150276294D01*
X143771645Y-150118787D02*
X143738996Y-150059887D01*
X143719473Y-149955212D01*
X143758849Y-149817889D01*
X143830875Y-149739466D01*
X143935549Y-149719943D01*
X144439067Y-149864324D01*
X143890105Y-149360146D02*
X143995110Y-148993951D01*
X143609062Y-149130943D02*
X144433000Y-149367204D01*
X144537674Y-149347681D01*
X144609700Y-149269258D01*
X144635951Y-149177709D01*
%TO.C,OesenPinHeader1*%
X146128571Y-148252380D02*
X146319047Y-148252380D01*
X146414285Y-148300000D01*
X146509523Y-148395238D01*
X146557142Y-148585714D01*
X146557142Y-148919047D01*
X146509523Y-149109523D01*
X146414285Y-149204761D01*
X146319047Y-149252380D01*
X146128571Y-149252380D01*
X146033333Y-149204761D01*
X145938095Y-149109523D01*
X145890476Y-148919047D01*
X145890476Y-148585714D01*
X145938095Y-148395238D01*
X146033333Y-148300000D01*
X146128571Y-148252380D01*
X147366666Y-149204761D02*
X147271428Y-149252380D01*
X147080952Y-149252380D01*
X146985714Y-149204761D01*
X146938095Y-149109523D01*
X146938095Y-148728571D01*
X146985714Y-148633333D01*
X147080952Y-148585714D01*
X147271428Y-148585714D01*
X147366666Y-148633333D01*
X147414285Y-148728571D01*
X147414285Y-148823809D01*
X146938095Y-148919047D01*
X147795238Y-149204761D02*
X147890476Y-149252380D01*
X148080952Y-149252380D01*
X148176190Y-149204761D01*
X148223809Y-149109523D01*
X148223809Y-149061904D01*
X148176190Y-148966666D01*
X148080952Y-148919047D01*
X147938095Y-148919047D01*
X147842857Y-148871428D01*
X147795238Y-148776190D01*
X147795238Y-148728571D01*
X147842857Y-148633333D01*
X147938095Y-148585714D01*
X148080952Y-148585714D01*
X148176190Y-148633333D01*
X149033333Y-149204761D02*
X148938095Y-149252380D01*
X148747619Y-149252380D01*
X148652380Y-149204761D01*
X148604761Y-149109523D01*
X148604761Y-148728571D01*
X148652380Y-148633333D01*
X148747619Y-148585714D01*
X148938095Y-148585714D01*
X149033333Y-148633333D01*
X149080952Y-148728571D01*
X149080952Y-148823809D01*
X148604761Y-148919047D01*
X149509523Y-148585714D02*
X149509523Y-149252380D01*
X149509523Y-148680952D02*
X149557142Y-148633333D01*
X149652380Y-148585714D01*
X149795238Y-148585714D01*
X149890476Y-148633333D01*
X149938095Y-148728571D01*
X149938095Y-149252380D01*
X150414285Y-149252380D02*
X150414285Y-148252380D01*
X150795238Y-148252380D01*
X150890476Y-148300000D01*
X150938095Y-148347619D01*
X150985714Y-148442857D01*
X150985714Y-148585714D01*
X150938095Y-148680952D01*
X150890476Y-148728571D01*
X150795238Y-148776190D01*
X150414285Y-148776190D01*
X151414285Y-149252380D02*
X151414285Y-148585714D01*
X151414285Y-148252380D02*
X151366666Y-148300000D01*
X151414285Y-148347619D01*
X151461904Y-148300000D01*
X151414285Y-148252380D01*
X151414285Y-148347619D01*
X151890476Y-148585714D02*
X151890476Y-149252380D01*
X151890476Y-148680952D02*
X151938095Y-148633333D01*
X152033333Y-148585714D01*
X152176190Y-148585714D01*
X152271428Y-148633333D01*
X152319047Y-148728571D01*
X152319047Y-149252380D01*
X152795238Y-149252380D02*
X152795238Y-148252380D01*
X152795238Y-148728571D02*
X153366666Y-148728571D01*
X153366666Y-149252380D02*
X153366666Y-148252380D01*
X154223809Y-149204761D02*
X154128571Y-149252380D01*
X153938095Y-149252380D01*
X153842857Y-149204761D01*
X153795238Y-149109523D01*
X153795238Y-148728571D01*
X153842857Y-148633333D01*
X153938095Y-148585714D01*
X154128571Y-148585714D01*
X154223809Y-148633333D01*
X154271428Y-148728571D01*
X154271428Y-148823809D01*
X153795238Y-148919047D01*
X155128571Y-149252380D02*
X155128571Y-148728571D01*
X155080952Y-148633333D01*
X154985714Y-148585714D01*
X154795238Y-148585714D01*
X154700000Y-148633333D01*
X155128571Y-149204761D02*
X155033333Y-149252380D01*
X154795238Y-149252380D01*
X154700000Y-149204761D01*
X154652380Y-149109523D01*
X154652380Y-149014285D01*
X154700000Y-148919047D01*
X154795238Y-148871428D01*
X155033333Y-148871428D01*
X155128571Y-148823809D01*
X156033333Y-149252380D02*
X156033333Y-148252380D01*
X156033333Y-149204761D02*
X155938095Y-149252380D01*
X155747619Y-149252380D01*
X155652380Y-149204761D01*
X155604761Y-149157142D01*
X155557142Y-149061904D01*
X155557142Y-148776190D01*
X155604761Y-148680952D01*
X155652380Y-148633333D01*
X155747619Y-148585714D01*
X155938095Y-148585714D01*
X156033333Y-148633333D01*
X156890476Y-149204761D02*
X156795238Y-149252380D01*
X156604761Y-149252380D01*
X156509523Y-149204761D01*
X156461904Y-149109523D01*
X156461904Y-148728571D01*
X156509523Y-148633333D01*
X156604761Y-148585714D01*
X156795238Y-148585714D01*
X156890476Y-148633333D01*
X156938095Y-148728571D01*
X156938095Y-148823809D01*
X156461904Y-148919047D01*
X157366666Y-149252380D02*
X157366666Y-148585714D01*
X157366666Y-148776190D02*
X157414285Y-148680952D01*
X157461904Y-148633333D01*
X157557142Y-148585714D01*
X157652380Y-148585714D01*
X158509523Y-149252380D02*
X157938095Y-149252380D01*
X158223809Y-149252380D02*
X158223809Y-148252380D01*
X158128571Y-148395238D01*
X158033333Y-148490476D01*
X157938095Y-148538095D01*
X144314285Y-144557142D02*
X144266666Y-144604761D01*
X144123809Y-144652380D01*
X144028571Y-144652380D01*
X143885714Y-144604761D01*
X143790476Y-144509523D01*
X143742857Y-144414285D01*
X143695238Y-144223809D01*
X143695238Y-144080952D01*
X143742857Y-143890476D01*
X143790476Y-143795238D01*
X143885714Y-143700000D01*
X144028571Y-143652380D01*
X144123809Y-143652380D01*
X144266666Y-143700000D01*
X144314285Y-143747619D01*
X144885714Y-144652380D02*
X144790476Y-144604761D01*
X144742857Y-144557142D01*
X144695238Y-144461904D01*
X144695238Y-144176190D01*
X144742857Y-144080952D01*
X144790476Y-144033333D01*
X144885714Y-143985714D01*
X145028571Y-143985714D01*
X145123809Y-144033333D01*
X145171428Y-144080952D01*
X145219047Y-144176190D01*
X145219047Y-144461904D01*
X145171428Y-144557142D01*
X145123809Y-144604761D01*
X145028571Y-144652380D01*
X144885714Y-144652380D01*
X145647619Y-143985714D02*
X145647619Y-144652380D01*
X145647619Y-144080952D02*
X145695238Y-144033333D01*
X145790476Y-143985714D01*
X145933333Y-143985714D01*
X146028571Y-144033333D01*
X146076190Y-144128571D01*
X146076190Y-144652380D01*
X146552380Y-143985714D02*
X146552380Y-144652380D01*
X146552380Y-144080952D02*
X146600000Y-144033333D01*
X146695238Y-143985714D01*
X146838095Y-143985714D01*
X146933333Y-144033333D01*
X146980952Y-144128571D01*
X146980952Y-144652380D01*
X147219047Y-144747619D02*
X147980952Y-144747619D01*
X148409523Y-143652380D02*
X148504761Y-143652380D01*
X148600000Y-143700000D01*
X148647619Y-143747619D01*
X148695238Y-143842857D01*
X148742857Y-144033333D01*
X148742857Y-144271428D01*
X148695238Y-144461904D01*
X148647619Y-144557142D01*
X148600000Y-144604761D01*
X148504761Y-144652380D01*
X148409523Y-144652380D01*
X148314285Y-144604761D01*
X148266666Y-144557142D01*
X148219047Y-144461904D01*
X148171428Y-144271428D01*
X148171428Y-144033333D01*
X148219047Y-143842857D01*
X148266666Y-143747619D01*
X148314285Y-143700000D01*
X148409523Y-143652380D01*
X149695238Y-144652380D02*
X149123809Y-144652380D01*
X149409523Y-144652380D02*
X149409523Y-143652380D01*
X149314285Y-143795238D01*
X149219047Y-143890476D01*
X149123809Y-143938095D01*
X150028571Y-144652380D02*
X150552380Y-143985714D01*
X150028571Y-143985714D02*
X150552380Y-144652380D01*
X151123809Y-143652380D02*
X151219047Y-143652380D01*
X151314285Y-143700000D01*
X151361904Y-143747619D01*
X151409523Y-143842857D01*
X151457142Y-144033333D01*
X151457142Y-144271428D01*
X151409523Y-144461904D01*
X151361904Y-144557142D01*
X151314285Y-144604761D01*
X151219047Y-144652380D01*
X151123809Y-144652380D01*
X151028571Y-144604761D01*
X150980952Y-144557142D01*
X150933333Y-144461904D01*
X150885714Y-144271428D01*
X150885714Y-144033333D01*
X150933333Y-143842857D01*
X150980952Y-143747619D01*
X151028571Y-143700000D01*
X151123809Y-143652380D01*
X151790476Y-143652380D02*
X152409523Y-143652380D01*
X152076190Y-144033333D01*
X152219047Y-144033333D01*
X152314285Y-144080952D01*
X152361904Y-144128571D01*
X152409523Y-144223809D01*
X152409523Y-144461904D01*
X152361904Y-144557142D01*
X152314285Y-144604761D01*
X152219047Y-144652380D01*
X151933333Y-144652380D01*
X151838095Y-144604761D01*
X151790476Y-144557142D01*
X152600000Y-144747619D02*
X153361904Y-144747619D01*
X153933333Y-144128571D02*
X153600000Y-144128571D01*
X153600000Y-144652380D02*
X153600000Y-143652380D01*
X154076190Y-143652380D01*
X154838095Y-144604761D02*
X154742857Y-144652380D01*
X154552380Y-144652380D01*
X154457142Y-144604761D01*
X154409523Y-144509523D01*
X154409523Y-144128571D01*
X154457142Y-144033333D01*
X154552380Y-143985714D01*
X154742857Y-143985714D01*
X154838095Y-144033333D01*
X154885714Y-144128571D01*
X154885714Y-144223809D01*
X154409523Y-144319047D01*
X155314285Y-144652380D02*
X155314285Y-143985714D01*
X155314285Y-144080952D02*
X155361904Y-144033333D01*
X155457142Y-143985714D01*
X155600000Y-143985714D01*
X155695238Y-144033333D01*
X155742857Y-144128571D01*
X155742857Y-144652380D01*
X155742857Y-144128571D02*
X155790476Y-144033333D01*
X155885714Y-143985714D01*
X156028571Y-143985714D01*
X156123809Y-144033333D01*
X156171428Y-144128571D01*
X156171428Y-144652380D01*
X157076190Y-144652380D02*
X157076190Y-144128571D01*
X157028571Y-144033333D01*
X156933333Y-143985714D01*
X156742857Y-143985714D01*
X156647619Y-144033333D01*
X157076190Y-144604761D02*
X156980952Y-144652380D01*
X156742857Y-144652380D01*
X156647619Y-144604761D01*
X156600000Y-144509523D01*
X156600000Y-144414285D01*
X156647619Y-144319047D01*
X156742857Y-144271428D01*
X156980952Y-144271428D01*
X157076190Y-144223809D01*
X157695238Y-144652380D02*
X157600000Y-144604761D01*
X157552380Y-144509523D01*
X157552380Y-143652380D01*
X158457142Y-144604761D02*
X158361904Y-144652380D01*
X158171428Y-144652380D01*
X158076190Y-144604761D01*
X158028571Y-144509523D01*
X158028571Y-144128571D01*
X158076190Y-144033333D01*
X158171428Y-143985714D01*
X158361904Y-143985714D01*
X158457142Y-144033333D01*
X158504761Y-144128571D01*
X158504761Y-144223809D01*
X158028571Y-144319047D01*
X145028571Y-146052380D02*
X145219047Y-146052380D01*
X145314285Y-146100000D01*
X145409523Y-146195238D01*
X145457142Y-146385714D01*
X145457142Y-146719047D01*
X145409523Y-146909523D01*
X145314285Y-147004761D01*
X145219047Y-147052380D01*
X145028571Y-147052380D01*
X144933333Y-147004761D01*
X144838095Y-146909523D01*
X144790476Y-146719047D01*
X144790476Y-146385714D01*
X144838095Y-146195238D01*
X144933333Y-146100000D01*
X145028571Y-146052380D01*
X146266666Y-147004761D02*
X146171428Y-147052380D01*
X145980952Y-147052380D01*
X145885714Y-147004761D01*
X145838095Y-146909523D01*
X145838095Y-146528571D01*
X145885714Y-146433333D01*
X145980952Y-146385714D01*
X146171428Y-146385714D01*
X146266666Y-146433333D01*
X146314285Y-146528571D01*
X146314285Y-146623809D01*
X145838095Y-146719047D01*
X146695238Y-147004761D02*
X146790476Y-147052380D01*
X146980952Y-147052380D01*
X147076190Y-147004761D01*
X147123809Y-146909523D01*
X147123809Y-146861904D01*
X147076190Y-146766666D01*
X146980952Y-146719047D01*
X146838095Y-146719047D01*
X146742857Y-146671428D01*
X146695238Y-146576190D01*
X146695238Y-146528571D01*
X146742857Y-146433333D01*
X146838095Y-146385714D01*
X146980952Y-146385714D01*
X147076190Y-146433333D01*
X147933333Y-147004761D02*
X147838095Y-147052380D01*
X147647619Y-147052380D01*
X147552380Y-147004761D01*
X147504761Y-146909523D01*
X147504761Y-146528571D01*
X147552380Y-146433333D01*
X147647619Y-146385714D01*
X147838095Y-146385714D01*
X147933333Y-146433333D01*
X147980952Y-146528571D01*
X147980952Y-146623809D01*
X147504761Y-146719047D01*
X148409523Y-146385714D02*
X148409523Y-147052380D01*
X148409523Y-146480952D02*
X148457142Y-146433333D01*
X148552380Y-146385714D01*
X148695238Y-146385714D01*
X148790476Y-146433333D01*
X148838095Y-146528571D01*
X148838095Y-147052380D01*
X149314285Y-147052380D02*
X149314285Y-146052380D01*
X149695238Y-146052380D01*
X149790476Y-146100000D01*
X149838095Y-146147619D01*
X149885714Y-146242857D01*
X149885714Y-146385714D01*
X149838095Y-146480952D01*
X149790476Y-146528571D01*
X149695238Y-146576190D01*
X149314285Y-146576190D01*
X150314285Y-147052380D02*
X150314285Y-146385714D01*
X150314285Y-146052380D02*
X150266666Y-146100000D01*
X150314285Y-146147619D01*
X150361904Y-146100000D01*
X150314285Y-146052380D01*
X150314285Y-146147619D01*
X150790476Y-146385714D02*
X150790476Y-147052380D01*
X150790476Y-146480952D02*
X150838095Y-146433333D01*
X150933333Y-146385714D01*
X151076190Y-146385714D01*
X151171428Y-146433333D01*
X151219047Y-146528571D01*
X151219047Y-147052380D01*
X151695238Y-147052380D02*
X151695238Y-146052380D01*
X151695238Y-146528571D02*
X152266666Y-146528571D01*
X152266666Y-147052380D02*
X152266666Y-146052380D01*
X153123809Y-147004761D02*
X153028571Y-147052380D01*
X152838095Y-147052380D01*
X152742857Y-147004761D01*
X152695238Y-146909523D01*
X152695238Y-146528571D01*
X152742857Y-146433333D01*
X152838095Y-146385714D01*
X153028571Y-146385714D01*
X153123809Y-146433333D01*
X153171428Y-146528571D01*
X153171428Y-146623809D01*
X152695238Y-146719047D01*
X154028571Y-147052380D02*
X154028571Y-146528571D01*
X153980952Y-146433333D01*
X153885714Y-146385714D01*
X153695238Y-146385714D01*
X153600000Y-146433333D01*
X154028571Y-147004761D02*
X153933333Y-147052380D01*
X153695238Y-147052380D01*
X153600000Y-147004761D01*
X153552380Y-146909523D01*
X153552380Y-146814285D01*
X153600000Y-146719047D01*
X153695238Y-146671428D01*
X153933333Y-146671428D01*
X154028571Y-146623809D01*
X154933333Y-147052380D02*
X154933333Y-146052380D01*
X154933333Y-147004761D02*
X154838095Y-147052380D01*
X154647619Y-147052380D01*
X154552380Y-147004761D01*
X154504761Y-146957142D01*
X154457142Y-146861904D01*
X154457142Y-146576190D01*
X154504761Y-146480952D01*
X154552380Y-146433333D01*
X154647619Y-146385714D01*
X154838095Y-146385714D01*
X154933333Y-146433333D01*
X155790476Y-147004761D02*
X155695238Y-147052380D01*
X155504761Y-147052380D01*
X155409523Y-147004761D01*
X155361904Y-146909523D01*
X155361904Y-146528571D01*
X155409523Y-146433333D01*
X155504761Y-146385714D01*
X155695238Y-146385714D01*
X155790476Y-146433333D01*
X155838095Y-146528571D01*
X155838095Y-146623809D01*
X155361904Y-146719047D01*
X156266666Y-147052380D02*
X156266666Y-146385714D01*
X156266666Y-146576190D02*
X156314285Y-146480952D01*
X156361904Y-146433333D01*
X156457142Y-146385714D01*
X156552380Y-146385714D01*
X157409523Y-147052380D02*
X156838095Y-147052380D01*
X157123809Y-147052380D02*
X157123809Y-146052380D01*
X157028571Y-146195238D01*
X156933333Y-146290476D01*
X156838095Y-146338095D01*
D12*
%TO.C,G\u002A\u002A\u002A*%
X148669828Y-109220000D02*
X148524685Y-109147428D01*
X148306971Y-109147428D01*
X148089257Y-109220000D01*
X147944114Y-109365142D01*
X147871542Y-109510285D01*
X147798971Y-109800571D01*
X147798971Y-110018285D01*
X147871542Y-110308571D01*
X147944114Y-110453714D01*
X148089257Y-110598857D01*
X148306971Y-110671428D01*
X148452114Y-110671428D01*
X148669828Y-110598857D01*
X148742400Y-110526285D01*
X148742400Y-110018285D01*
X148452114Y-110018285D01*
X149613257Y-109147428D02*
X149613257Y-109510285D01*
X149250400Y-109365142D02*
X149613257Y-109510285D01*
X149976114Y-109365142D01*
X149395542Y-109800571D02*
X149613257Y-109510285D01*
X149830971Y-109800571D01*
X150774400Y-109147428D02*
X150774400Y-109510285D01*
X150411542Y-109365142D02*
X150774400Y-109510285D01*
X151137257Y-109365142D01*
X150556685Y-109800571D02*
X150774400Y-109510285D01*
X150992114Y-109800571D01*
X151935542Y-109147428D02*
X151935542Y-109510285D01*
X151572685Y-109365142D02*
X151935542Y-109510285D01*
X152298400Y-109365142D01*
X151717828Y-109800571D02*
X151935542Y-109510285D01*
X152153257Y-109800571D01*
D10*
%TO.C,NeoPixel1*%
X152423809Y-135352380D02*
X152423809Y-134352380D01*
X152995238Y-135352380D01*
X152995238Y-134352380D01*
X153852380Y-135304761D02*
X153757142Y-135352380D01*
X153566666Y-135352380D01*
X153471428Y-135304761D01*
X153423809Y-135209523D01*
X153423809Y-134828571D01*
X153471428Y-134733333D01*
X153566666Y-134685714D01*
X153757142Y-134685714D01*
X153852380Y-134733333D01*
X153900000Y-134828571D01*
X153900000Y-134923809D01*
X153423809Y-135019047D01*
X154471428Y-135352380D02*
X154376190Y-135304761D01*
X154328571Y-135257142D01*
X154280952Y-135161904D01*
X154280952Y-134876190D01*
X154328571Y-134780952D01*
X154376190Y-134733333D01*
X154471428Y-134685714D01*
X154614285Y-134685714D01*
X154709523Y-134733333D01*
X154757142Y-134780952D01*
X154804761Y-134876190D01*
X154804761Y-135161904D01*
X154757142Y-135257142D01*
X154709523Y-135304761D01*
X154614285Y-135352380D01*
X154471428Y-135352380D01*
X155233333Y-135352380D02*
X155233333Y-134352380D01*
X155614285Y-134352380D01*
X155709523Y-134400000D01*
X155757142Y-134447619D01*
X155804761Y-134542857D01*
X155804761Y-134685714D01*
X155757142Y-134780952D01*
X155709523Y-134828571D01*
X155614285Y-134876190D01*
X155233333Y-134876190D01*
X156233333Y-135352380D02*
X156233333Y-134685714D01*
X156233333Y-134352380D02*
X156185714Y-134400000D01*
X156233333Y-134447619D01*
X156280952Y-134400000D01*
X156233333Y-134352380D01*
X156233333Y-134447619D01*
X156614285Y-135352380D02*
X157138095Y-134685714D01*
X156614285Y-134685714D02*
X157138095Y-135352380D01*
X157900000Y-135304761D02*
X157804761Y-135352380D01*
X157614285Y-135352380D01*
X157519047Y-135304761D01*
X157471428Y-135209523D01*
X157471428Y-134828571D01*
X157519047Y-134733333D01*
X157614285Y-134685714D01*
X157804761Y-134685714D01*
X157900000Y-134733333D01*
X157947619Y-134828571D01*
X157947619Y-134923809D01*
X157471428Y-135019047D01*
X158519047Y-135352380D02*
X158423809Y-135304761D01*
X158376190Y-135209523D01*
X158376190Y-134352380D01*
X159423809Y-135352380D02*
X158852380Y-135352380D01*
X159138095Y-135352380D02*
X159138095Y-134352380D01*
X159042857Y-134495238D01*
X158947619Y-134590476D01*
X158852380Y-134638095D01*
X138876190Y-139352380D02*
X138876190Y-138352380D01*
X139447619Y-139352380D01*
X139447619Y-138352380D01*
X140304761Y-139304761D02*
X140209523Y-139352380D01*
X140019047Y-139352380D01*
X139923809Y-139304761D01*
X139876190Y-139209523D01*
X139876190Y-138828571D01*
X139923809Y-138733333D01*
X140019047Y-138685714D01*
X140209523Y-138685714D01*
X140304761Y-138733333D01*
X140352380Y-138828571D01*
X140352380Y-138923809D01*
X139876190Y-139019047D01*
X140923809Y-139352380D02*
X140828571Y-139304761D01*
X140780952Y-139257142D01*
X140733333Y-139161904D01*
X140733333Y-138876190D01*
X140780952Y-138780952D01*
X140828571Y-138733333D01*
X140923809Y-138685714D01*
X141066666Y-138685714D01*
X141161904Y-138733333D01*
X141209523Y-138780952D01*
X141257142Y-138876190D01*
X141257142Y-139161904D01*
X141209523Y-139257142D01*
X141161904Y-139304761D01*
X141066666Y-139352380D01*
X140923809Y-139352380D01*
X141685714Y-139352380D02*
X141685714Y-138352380D01*
X142066666Y-138352380D01*
X142161904Y-138400000D01*
X142209523Y-138447619D01*
X142257142Y-138542857D01*
X142257142Y-138685714D01*
X142209523Y-138780952D01*
X142161904Y-138828571D01*
X142066666Y-138876190D01*
X141685714Y-138876190D01*
X142685714Y-139352380D02*
X142685714Y-138685714D01*
X142685714Y-138352380D02*
X142638095Y-138400000D01*
X142685714Y-138447619D01*
X142733333Y-138400000D01*
X142685714Y-138352380D01*
X142685714Y-138447619D01*
X143066666Y-139352380D02*
X143590476Y-138685714D01*
X143066666Y-138685714D02*
X143590476Y-139352380D01*
X144352380Y-139304761D02*
X144257142Y-139352380D01*
X144066666Y-139352380D01*
X143971428Y-139304761D01*
X143923809Y-139209523D01*
X143923809Y-138828571D01*
X143971428Y-138733333D01*
X144066666Y-138685714D01*
X144257142Y-138685714D01*
X144352380Y-138733333D01*
X144400000Y-138828571D01*
X144400000Y-138923809D01*
X143923809Y-139019047D01*
X144971428Y-139352380D02*
X144876190Y-139304761D01*
X144828571Y-139209523D01*
X144828571Y-138352380D01*
X145114285Y-139447619D02*
X145876190Y-139447619D01*
X145971428Y-138352380D02*
X146542857Y-138352380D01*
X146257142Y-139352380D02*
X146257142Y-138352380D01*
X146876190Y-139352380D02*
X146876190Y-138352380D01*
X146876190Y-138828571D02*
X147447619Y-138828571D01*
X147447619Y-139352380D02*
X147447619Y-138352380D01*
X147780952Y-138352380D02*
X148352380Y-138352380D01*
X148066666Y-139352380D02*
X148066666Y-138352380D01*
X148447619Y-139447619D02*
X149209523Y-139447619D01*
X150019047Y-139352380D02*
X149685714Y-138876190D01*
X149447619Y-139352380D02*
X149447619Y-138352380D01*
X149828571Y-138352380D01*
X149923809Y-138400000D01*
X149971428Y-138447619D01*
X150019047Y-138542857D01*
X150019047Y-138685714D01*
X149971428Y-138780952D01*
X149923809Y-138828571D01*
X149828571Y-138876190D01*
X149447619Y-138876190D01*
X150828571Y-139304761D02*
X150733333Y-139352380D01*
X150542857Y-139352380D01*
X150447619Y-139304761D01*
X150399999Y-139209523D01*
X150399999Y-138828571D01*
X150447619Y-138733333D01*
X150542857Y-138685714D01*
X150733333Y-138685714D01*
X150828571Y-138733333D01*
X150876190Y-138828571D01*
X150876190Y-138923809D01*
X150399999Y-139019047D01*
X151209523Y-138685714D02*
X151447619Y-139352380D01*
X151685714Y-138685714D01*
X152066666Y-139352380D02*
X152066666Y-138352380D01*
X152399999Y-139066666D01*
X152733333Y-138352380D01*
X152733333Y-139352380D01*
X153352380Y-139352380D02*
X153257142Y-139304761D01*
X153209523Y-139257142D01*
X153161904Y-139161904D01*
X153161904Y-138876190D01*
X153209523Y-138780952D01*
X153257142Y-138733333D01*
X153352380Y-138685714D01*
X153495238Y-138685714D01*
X153590476Y-138733333D01*
X153638095Y-138780952D01*
X153685714Y-138876190D01*
X153685714Y-139161904D01*
X153638095Y-139257142D01*
X153590476Y-139304761D01*
X153495238Y-139352380D01*
X153352380Y-139352380D01*
X154542857Y-138685714D02*
X154542857Y-139352380D01*
X154114285Y-138685714D02*
X154114285Y-139209523D01*
X154161904Y-139304761D01*
X154257142Y-139352380D01*
X154399999Y-139352380D01*
X154495238Y-139304761D01*
X154542857Y-139257142D01*
X155019047Y-138685714D02*
X155019047Y-139352380D01*
X155019047Y-138780952D02*
X155066666Y-138733333D01*
X155161904Y-138685714D01*
X155304761Y-138685714D01*
X155399999Y-138733333D01*
X155447619Y-138828571D01*
X155447619Y-139352380D01*
X155780952Y-138685714D02*
X156161904Y-138685714D01*
X155923809Y-138352380D02*
X155923809Y-139209523D01*
X155971428Y-139304761D01*
X156066666Y-139352380D01*
X156161904Y-139352380D01*
X156447619Y-139066666D02*
X156923809Y-139066666D01*
X156352380Y-139352380D02*
X156685714Y-138352380D01*
X157019047Y-139352380D01*
X157352380Y-138685714D02*
X157352380Y-139352380D01*
X157352380Y-138780952D02*
X157399999Y-138733333D01*
X157495238Y-138685714D01*
X157638095Y-138685714D01*
X157733333Y-138733333D01*
X157780952Y-138828571D01*
X157780952Y-139352380D01*
X158257142Y-138685714D02*
X158257142Y-139685714D01*
X158257142Y-138733333D02*
X158352380Y-138685714D01*
X158542857Y-138685714D01*
X158638095Y-138733333D01*
X158685714Y-138780952D01*
X158733333Y-138876190D01*
X158733333Y-139161904D01*
X158685714Y-139257142D01*
X158638095Y-139304761D01*
X158542857Y-139352380D01*
X158352380Y-139352380D01*
X158257142Y-139304761D01*
X159590476Y-139352380D02*
X159590476Y-138828571D01*
X159542857Y-138733333D01*
X159447619Y-138685714D01*
X159257142Y-138685714D01*
X159161904Y-138733333D01*
X159590476Y-139304761D02*
X159495238Y-139352380D01*
X159257142Y-139352380D01*
X159161904Y-139304761D01*
X159114285Y-139209523D01*
X159114285Y-139114285D01*
X159161904Y-139019047D01*
X159257142Y-138971428D01*
X159495238Y-138971428D01*
X159590476Y-138923809D01*
X160019047Y-139304761D02*
X160114285Y-139352380D01*
X160304761Y-139352380D01*
X160399999Y-139304761D01*
X160447619Y-139209523D01*
X160447619Y-139161904D01*
X160399999Y-139066666D01*
X160304761Y-139019047D01*
X160161904Y-139019047D01*
X160066666Y-138971428D01*
X160019047Y-138876190D01*
X160019047Y-138828571D01*
X160066666Y-138733333D01*
X160161904Y-138685714D01*
X160304761Y-138685714D01*
X160399999Y-138733333D01*
X160828571Y-139304761D02*
X160923809Y-139352380D01*
X161114285Y-139352380D01*
X161209523Y-139304761D01*
X161257142Y-139209523D01*
X161257142Y-139161904D01*
X161209523Y-139066666D01*
X161114285Y-139019047D01*
X160971428Y-139019047D01*
X160876190Y-138971428D01*
X160828571Y-138876190D01*
X160828571Y-138828571D01*
X160876190Y-138733333D01*
X160971428Y-138685714D01*
X161114285Y-138685714D01*
X161209523Y-138733333D01*
X162114285Y-138685714D02*
X162114285Y-139352380D01*
X161685714Y-138685714D02*
X161685714Y-139209523D01*
X161733333Y-139304761D01*
X161828571Y-139352380D01*
X161971428Y-139352380D01*
X162066666Y-139304761D01*
X162114285Y-139257142D01*
X162590476Y-138685714D02*
X162590476Y-139352380D01*
X162590476Y-138780952D02*
X162638095Y-138733333D01*
X162733333Y-138685714D01*
X162876190Y-138685714D01*
X162971428Y-138733333D01*
X163019047Y-138828571D01*
X163019047Y-139352380D01*
X163923809Y-138685714D02*
X163923809Y-139495238D01*
X163876190Y-139590476D01*
X163828571Y-139638095D01*
X163733333Y-139685714D01*
X163590476Y-139685714D01*
X163495238Y-139638095D01*
X163923809Y-139304761D02*
X163828571Y-139352380D01*
X163638095Y-139352380D01*
X163542857Y-139304761D01*
X163495238Y-139257142D01*
X163447619Y-139161904D01*
X163447619Y-138876190D01*
X163495238Y-138780952D01*
X163542857Y-138733333D01*
X163638095Y-138685714D01*
X163828571Y-138685714D01*
X163923809Y-138733333D01*
X153019047Y-136661904D02*
X153019047Y-135861904D01*
X153476190Y-136661904D01*
X153476190Y-135861904D01*
X154161904Y-136623809D02*
X154085714Y-136661904D01*
X153933333Y-136661904D01*
X153857142Y-136623809D01*
X153819047Y-136547619D01*
X153819047Y-136242857D01*
X153857142Y-136166666D01*
X153933333Y-136128571D01*
X154085714Y-136128571D01*
X154161904Y-136166666D01*
X154200000Y-136242857D01*
X154200000Y-136319047D01*
X153819047Y-136395238D01*
X154657142Y-136661904D02*
X154580952Y-136623809D01*
X154542857Y-136585714D01*
X154504761Y-136509523D01*
X154504761Y-136280952D01*
X154542857Y-136204761D01*
X154580952Y-136166666D01*
X154657142Y-136128571D01*
X154771428Y-136128571D01*
X154847619Y-136166666D01*
X154885714Y-136204761D01*
X154923809Y-136280952D01*
X154923809Y-136509523D01*
X154885714Y-136585714D01*
X154847619Y-136623809D01*
X154771428Y-136661904D01*
X154657142Y-136661904D01*
X155266666Y-136661904D02*
X155266666Y-135861904D01*
X155571428Y-135861904D01*
X155647619Y-135900000D01*
X155685714Y-135938095D01*
X155723809Y-136014285D01*
X155723809Y-136128571D01*
X155685714Y-136204761D01*
X155647619Y-136242857D01*
X155571428Y-136280952D01*
X155266666Y-136280952D01*
X156066666Y-136661904D02*
X156066666Y-136128571D01*
X156066666Y-135861904D02*
X156028571Y-135900000D01*
X156066666Y-135938095D01*
X156104761Y-135900000D01*
X156066666Y-135861904D01*
X156066666Y-135938095D01*
X156371428Y-136661904D02*
X156790476Y-136128571D01*
X156371428Y-136128571D02*
X156790476Y-136661904D01*
X157400000Y-136623809D02*
X157323809Y-136661904D01*
X157171428Y-136661904D01*
X157095238Y-136623809D01*
X157057142Y-136547619D01*
X157057142Y-136242857D01*
X157095238Y-136166666D01*
X157171428Y-136128571D01*
X157323809Y-136128571D01*
X157400000Y-136166666D01*
X157438095Y-136242857D01*
X157438095Y-136319047D01*
X157057142Y-136395238D01*
X157895238Y-136661904D02*
X157819047Y-136623809D01*
X157780952Y-136547619D01*
X157780952Y-135861904D01*
X158619047Y-136661904D02*
X158161904Y-136661904D01*
X158390476Y-136661904D02*
X158390476Y-135861904D01*
X158314285Y-135976190D01*
X158238095Y-136052380D01*
X158161904Y-136090476D01*
%TO.C,PWR2*%
X181367159Y-85680525D02*
X180635805Y-84998526D01*
X180895614Y-84719915D01*
X180995393Y-84682739D01*
X181062695Y-84680388D01*
X181164824Y-84710514D01*
X181269303Y-84807943D01*
X181306480Y-84907721D01*
X181308830Y-84975024D01*
X181278704Y-85077152D01*
X181018895Y-85355763D01*
X181252851Y-84336825D02*
X182146585Y-84844692D01*
X181754094Y-84218245D01*
X182406394Y-84566081D01*
X181837421Y-83709951D01*
X183218297Y-83695422D02*
X182642701Y-83614445D01*
X182828584Y-84113338D02*
X182097230Y-83431340D01*
X182357039Y-83152729D01*
X182456818Y-83115552D01*
X182524120Y-83113202D01*
X182626249Y-83143328D01*
X182730728Y-83240756D01*
X182767905Y-83340535D01*
X182770255Y-83407837D01*
X182740129Y-83509966D01*
X182480320Y-83788577D01*
X182816405Y-82799765D02*
X182814055Y-82732462D01*
X182844181Y-82630333D01*
X183006561Y-82456201D01*
X183106340Y-82419025D01*
X183173642Y-82416674D01*
X183275771Y-82446800D01*
X183345424Y-82511753D01*
X183417427Y-82644007D01*
X183445630Y-83451637D01*
X183867819Y-82998894D01*
X174394685Y-79575115D02*
X174784399Y-79157199D01*
X175320896Y-80048156D02*
X174589542Y-79366157D01*
X175743085Y-79595413D02*
X175011732Y-78913414D01*
X175271540Y-78634804D01*
X175371319Y-78597627D01*
X175438621Y-78595277D01*
X175540750Y-78625403D01*
X175645229Y-78722831D01*
X175682406Y-78822609D01*
X175684756Y-78889912D01*
X175654630Y-78992041D01*
X175394822Y-79270652D01*
X176148395Y-77694492D02*
X176570585Y-77241749D01*
X176621863Y-77745342D01*
X176719291Y-77640863D01*
X176819070Y-77603687D01*
X176886372Y-77601336D01*
X176988501Y-77631462D01*
X177162633Y-77793843D01*
X177199810Y-77893621D01*
X177202160Y-77960924D01*
X177172034Y-78063053D01*
X176977177Y-78272011D01*
X176877399Y-78309188D01*
X176810096Y-78311538D01*
X177041702Y-77225297D02*
X177691652Y-77505831D01*
X177366463Y-76877033D01*
X177317535Y-76440742D02*
X177739725Y-75988000D01*
X177791003Y-76491593D01*
X177888431Y-76387114D01*
X177988210Y-76349937D01*
X178055513Y-76347587D01*
X178157641Y-76377713D01*
X178331773Y-76540094D01*
X178368950Y-76639872D01*
X178371300Y-76707175D01*
X178341174Y-76809304D01*
X178146318Y-77018262D01*
X178046539Y-77055438D01*
X177979236Y-77057789D01*
%TO.C,R8*%
X159714285Y-124632380D02*
X159142857Y-124632380D01*
X159428571Y-124632380D02*
X159428571Y-123632380D01*
X159333333Y-123775238D01*
X159238095Y-123870476D01*
X159142857Y-123918095D01*
X160142857Y-124632380D02*
X160142857Y-123632380D01*
X160476190Y-124346666D01*
X160809523Y-123632380D01*
X160809523Y-124632380D01*
D11*
X159866666Y-126361904D02*
X159600000Y-125980952D01*
X159409523Y-126361904D02*
X159409523Y-125561904D01*
X159714285Y-125561904D01*
X159790476Y-125600000D01*
X159828571Y-125638095D01*
X159866666Y-125714285D01*
X159866666Y-125828571D01*
X159828571Y-125904761D01*
X159790476Y-125942857D01*
X159714285Y-125980952D01*
X159409523Y-125980952D01*
X160323809Y-125904761D02*
X160247619Y-125866666D01*
X160209523Y-125828571D01*
X160171428Y-125752380D01*
X160171428Y-125714285D01*
X160209523Y-125638095D01*
X160247619Y-125600000D01*
X160323809Y-125561904D01*
X160476190Y-125561904D01*
X160552380Y-125600000D01*
X160590476Y-125638095D01*
X160628571Y-125714285D01*
X160628571Y-125752380D01*
X160590476Y-125828571D01*
X160552380Y-125866666D01*
X160476190Y-125904761D01*
X160323809Y-125904761D01*
X160247619Y-125942857D01*
X160209523Y-125980952D01*
X160171428Y-126057142D01*
X160171428Y-126209523D01*
X160209523Y-126285714D01*
X160247619Y-126323809D01*
X160323809Y-126361904D01*
X160476190Y-126361904D01*
X160552380Y-126323809D01*
X160590476Y-126285714D01*
X160628571Y-126209523D01*
X160628571Y-126057142D01*
X160590476Y-125980952D01*
X160552380Y-125942857D01*
X160476190Y-125904761D01*
D10*
%TO.C,BieneTouchPoint1*%
X144252380Y-130928571D02*
X144395238Y-130976190D01*
X144442857Y-131023809D01*
X144490476Y-131119047D01*
X144490476Y-131261904D01*
X144442857Y-131357142D01*
X144395238Y-131404761D01*
X144300000Y-131452380D01*
X143919047Y-131452380D01*
X143919047Y-130452380D01*
X144252380Y-130452380D01*
X144347619Y-130500000D01*
X144395238Y-130547619D01*
X144442857Y-130642857D01*
X144442857Y-130738095D01*
X144395238Y-130833333D01*
X144347619Y-130880952D01*
X144252380Y-130928571D01*
X143919047Y-130928571D01*
X144919047Y-131452380D02*
X144919047Y-130785714D01*
X144919047Y-130452380D02*
X144871428Y-130500000D01*
X144919047Y-130547619D01*
X144966666Y-130500000D01*
X144919047Y-130452380D01*
X144919047Y-130547619D01*
X145776190Y-131404761D02*
X145680952Y-131452380D01*
X145490476Y-131452380D01*
X145395238Y-131404761D01*
X145347619Y-131309523D01*
X145347619Y-130928571D01*
X145395238Y-130833333D01*
X145490476Y-130785714D01*
X145680952Y-130785714D01*
X145776190Y-130833333D01*
X145823809Y-130928571D01*
X145823809Y-131023809D01*
X145347619Y-131119047D01*
X146252380Y-130785714D02*
X146252380Y-131452380D01*
X146252380Y-130880952D02*
X146300000Y-130833333D01*
X146395238Y-130785714D01*
X146538095Y-130785714D01*
X146633333Y-130833333D01*
X146680952Y-130928571D01*
X146680952Y-131452380D01*
X147538095Y-131404761D02*
X147442857Y-131452380D01*
X147252380Y-131452380D01*
X147157142Y-131404761D01*
X147109523Y-131309523D01*
X147109523Y-130928571D01*
X147157142Y-130833333D01*
X147252380Y-130785714D01*
X147442857Y-130785714D01*
X147538095Y-130833333D01*
X147585714Y-130928571D01*
X147585714Y-131023809D01*
X147109523Y-131119047D01*
X147871428Y-130452380D02*
X148442857Y-130452380D01*
X148157142Y-131452380D02*
X148157142Y-130452380D01*
X148919047Y-131452380D02*
X148823809Y-131404761D01*
X148776190Y-131357142D01*
X148728571Y-131261904D01*
X148728571Y-130976190D01*
X148776190Y-130880952D01*
X148823809Y-130833333D01*
X148919047Y-130785714D01*
X149061904Y-130785714D01*
X149157142Y-130833333D01*
X149204761Y-130880952D01*
X149252380Y-130976190D01*
X149252380Y-131261904D01*
X149204761Y-131357142D01*
X149157142Y-131404761D01*
X149061904Y-131452380D01*
X148919047Y-131452380D01*
X150109523Y-130785714D02*
X150109523Y-131452380D01*
X149680952Y-130785714D02*
X149680952Y-131309523D01*
X149728571Y-131404761D01*
X149823809Y-131452380D01*
X149966666Y-131452380D01*
X150061904Y-131404761D01*
X150109523Y-131357142D01*
X151014285Y-131404761D02*
X150919047Y-131452380D01*
X150728571Y-131452380D01*
X150633333Y-131404761D01*
X150585714Y-131357142D01*
X150538095Y-131261904D01*
X150538095Y-130976190D01*
X150585714Y-130880952D01*
X150633333Y-130833333D01*
X150728571Y-130785714D01*
X150919047Y-130785714D01*
X151014285Y-130833333D01*
X151442857Y-131452380D02*
X151442857Y-130452380D01*
X151871428Y-131452380D02*
X151871428Y-130928571D01*
X151823809Y-130833333D01*
X151728571Y-130785714D01*
X151585714Y-130785714D01*
X151490476Y-130833333D01*
X151442857Y-130880952D01*
X152347619Y-131452380D02*
X152347619Y-130452380D01*
X152728571Y-130452380D01*
X152823809Y-130500000D01*
X152871428Y-130547619D01*
X152919047Y-130642857D01*
X152919047Y-130785714D01*
X152871428Y-130880952D01*
X152823809Y-130928571D01*
X152728571Y-130976190D01*
X152347619Y-130976190D01*
X153490476Y-131452380D02*
X153395238Y-131404761D01*
X153347619Y-131357142D01*
X153300000Y-131261904D01*
X153300000Y-130976190D01*
X153347619Y-130880952D01*
X153395238Y-130833333D01*
X153490476Y-130785714D01*
X153633333Y-130785714D01*
X153728571Y-130833333D01*
X153776190Y-130880952D01*
X153823809Y-130976190D01*
X153823809Y-131261904D01*
X153776190Y-131357142D01*
X153728571Y-131404761D01*
X153633333Y-131452380D01*
X153490476Y-131452380D01*
X154252380Y-131452380D02*
X154252380Y-130785714D01*
X154252380Y-130452380D02*
X154204761Y-130500000D01*
X154252380Y-130547619D01*
X154300000Y-130500000D01*
X154252380Y-130452380D01*
X154252380Y-130547619D01*
X154728571Y-130785714D02*
X154728571Y-131452380D01*
X154728571Y-130880952D02*
X154776190Y-130833333D01*
X154871428Y-130785714D01*
X155014285Y-130785714D01*
X155109523Y-130833333D01*
X155157142Y-130928571D01*
X155157142Y-131452380D01*
X155490476Y-130785714D02*
X155871428Y-130785714D01*
X155633333Y-130452380D02*
X155633333Y-131309523D01*
X155680952Y-131404761D01*
X155776190Y-131452380D01*
X155871428Y-131452380D01*
X156728571Y-131452380D02*
X156157142Y-131452380D01*
X156442857Y-131452380D02*
X156442857Y-130452380D01*
X156347619Y-130595238D01*
X156252380Y-130690476D01*
X156157142Y-130738095D01*
D13*
%TO.C,R1*%
X132359600Y-92773400D02*
X132359600Y-91173400D01*
X135559600Y-91173400D02*
X135559600Y-92773400D01*
X135559600Y-92773400D02*
X132359600Y-92773400D01*
X132359600Y-91173400D02*
X135559600Y-91173400D01*
%TO.C,R2*%
X135559600Y-95542000D02*
X132359600Y-95542000D01*
X132359600Y-95542000D02*
X132359600Y-93942000D01*
X135559600Y-93942000D02*
X135559600Y-95542000D01*
X132359600Y-93942000D02*
X135559600Y-93942000D01*
%TO.C,R3*%
X129921200Y-119037200D02*
X133121200Y-119037200D01*
X133121200Y-119037200D02*
X133121200Y-120637200D01*
X133121200Y-120637200D02*
X129921200Y-120637200D01*
X129921200Y-120637200D02*
X129921200Y-119037200D01*
%TO.C,R6*%
X168807600Y-100825400D02*
X168807600Y-102425400D01*
X168807600Y-102425400D02*
X165607600Y-102425400D01*
X165607600Y-100825400D02*
X168807600Y-100825400D01*
X165607600Y-102425400D02*
X165607600Y-100825400D01*
%TO.C,R5*%
X168833000Y-103619400D02*
X168833000Y-105219400D01*
X165633000Y-103619400D02*
X168833000Y-103619400D01*
X168833000Y-105219400D02*
X165633000Y-105219400D01*
X165633000Y-105219400D02*
X165633000Y-103619400D01*
%TO.C,R4*%
X129921200Y-123482000D02*
X129921200Y-121882000D01*
X133121200Y-123482000D02*
X129921200Y-123482000D01*
X133121200Y-121882000D02*
X133121200Y-123482000D01*
X129921200Y-121882000D02*
X133121200Y-121882000D01*
%TO.C,R7*%
X141935000Y-125285600D02*
X141935000Y-126885600D01*
X141935000Y-126885600D02*
X138735000Y-126885600D01*
X138735000Y-125285600D02*
X141935000Y-125285600D01*
X138735000Y-126885600D02*
X138735000Y-125285600D01*
D11*
%TO.C,U1*%
X160500000Y-118500000D02*
X139500000Y-118500000D01*
X139500000Y-68800000D02*
X140800000Y-67500000D01*
X160500000Y-67500000D02*
X160500000Y-118500000D01*
X139500000Y-67500000D02*
X160500000Y-67500000D01*
X139500000Y-118500000D02*
X139500000Y-67500000D01*
D13*
%TO.C,OesenPinHeader1*%
X153995000Y-147870000D02*
X146375000Y-147870000D01*
X153360000Y-145330000D02*
X153995000Y-145965000D01*
X146375000Y-147870000D02*
X146375000Y-145330000D01*
X153995000Y-145965000D02*
X153995000Y-147870000D01*
X146375000Y-145330000D02*
X153360000Y-145330000D01*
D11*
%TO.C,NeoPixel1*%
X153750000Y-132050000D02*
X146450000Y-132050000D01*
D13*
X151700000Y-133400000D02*
X151700000Y-136200000D01*
X148500000Y-136200000D02*
X148500000Y-133400000D01*
X151700000Y-134400000D02*
X150700000Y-133400000D01*
X151700000Y-136200000D02*
X148500000Y-136200000D01*
D11*
X153750000Y-137550000D02*
X146450000Y-137550000D01*
X146450000Y-132050000D02*
X146450000Y-133200000D01*
D13*
X148500000Y-133400000D02*
X151700000Y-133400000D01*
%TO.C,R8*%
X158400000Y-125200000D02*
X161600000Y-125200000D01*
X161600000Y-126800000D02*
X158400000Y-126800000D01*
X158400000Y-126800000D02*
X158400000Y-125200000D01*
X161600000Y-125200000D02*
X161600000Y-126800000D01*
%TD*%
M02*
