M48
; DRILL file {KiCad (5.1.10)-1} date 06/07/21 23:37:09
; FORMAT={-:-/ absolute / inch / decimal}
; #@! TF.CreationDate,2021-06-07T23:37:09+02:00
; #@! TF.GenerationSoftware,Kicad,Pcbnew,(5.1.10)-1
FMAT,2
INCH
T1C0.0157
T2C0.0295
T3C0.0402
T4C0.1378
T5C0.0591
T6C0.0709
%
G90
G05
T1
X6.2205Y-5.0295
T2
X6.7224Y-3.4547
X6.7224Y-3.5547
T3
X5.5555Y-2.7114
X5.5555Y-2.8114
X5.5555Y-2.9114
X5.5555Y-3.0114
X5.5555Y-3.1114
X5.5555Y-3.2114
X5.5555Y-3.3114
X5.5555Y-3.4114
X5.5555Y-3.5114
X5.5555Y-3.6114
X5.5555Y-3.7114
X5.5555Y-3.8114
X5.5555Y-3.9114
X5.5555Y-4.0114
X5.5555Y-4.1114
X5.5555Y-4.2114
X5.5555Y-4.3114
X5.5555Y-4.4114
X5.5555Y-4.5114
X5.5555Y-4.6114
X5.8055Y-4.6024
X5.9055Y-4.6024
X6.0055Y-4.6024
X6.2555Y-2.7114
X6.2555Y-2.8114
X6.2555Y-2.9114
X6.2555Y-3.0114
X6.2555Y-3.1114
X6.2555Y-3.2114
X6.2555Y-3.3114
X6.2555Y-3.4114
X6.2555Y-3.5114
X6.2555Y-3.6114
X6.2555Y-3.7114
X6.2555Y-3.8114
X6.2555Y-3.9114
X6.2555Y-4.0114
X6.2555Y-4.1114
X6.2555Y-4.2114
X6.2555Y-4.3114
X6.2555Y-4.4114
X6.2555Y-4.5114
X6.2555Y-4.6114
T4
X4.3406Y-4.0354
X4.3406Y-4.6358
X4.4488Y-4.9902
X4.4685Y-3.6516
X4.4685Y-4.3307
X4.6555Y-5.3051
X4.6654Y-4.3307
X4.6949Y-3.3071
X4.872Y-3.8976
X4.872Y-4.0945
X4.872Y-4.5472
X4.872Y-4.7441
X4.9311Y-5.5906
X4.9803Y-3.0315
X5.0787Y-4.3307
X5.2756Y-4.3307
X5.3642Y-5.8268
X5.689Y-5.9154
X6.1417Y-5.9055
X6.4764Y-5.8169
X6.6732Y-2.9134
X6.8898Y-3.937
X6.8898Y-4.1339
X6.8898Y-4.5079
X6.8898Y-4.7047
X6.9291Y-5.5709
X6.9685Y-3.1299
X7.1752Y-5.3051
X7.2343Y-3.4744
X7.3524Y-4.9803
X7.4016Y-3.7992
X7.4508Y-4.6358
X7.4803Y-4.1634
T5
X5.81Y-2.8358
X6.001Y-2.8358
T6
X5.7982Y-2.7165
X6.0128Y-2.7165
T0
M30
