%TF.GenerationSoftware,KiCad,Pcbnew,(5.1.10)-1*%
%TF.CreationDate,2021-06-07T23:37:17+02:00*%
%TF.ProjectId,Frisbee_v01,46726973-6265-4655-9f76-30312e6b6963,rev?*%
%TF.SameCoordinates,Original*%
%TF.FileFunction,Soldermask,Top*%
%TF.FilePolarity,Negative*%
%FSLAX46Y46*%
G04 Gerber Fmt 4.6, Leading zero omitted, Abs format (unit mm)*
G04 Created by KiCad (PCBNEW (5.1.10)-1) date 2021-06-07 23:37:17*
%MOMM*%
%LPD*%
G01*
G04 APERTURE LIST*
%ADD10C,0.100000*%
%ADD11C,5.000000*%
%ADD12C,1.800000*%
%ADD13R,1.800000X1.800000*%
%ADD14C,6.000000*%
%ADD15R,2.050000X0.600000*%
%ADD16O,1.700000X1.700000*%
%ADD17R,1.700000X1.700000*%
%ADD18R,3.500000X1.700000*%
%ADD19O,1.800000X1.800000*%
%ADD20O,1.500000X1.500000*%
%ADD21R,1.700000X3.500000*%
G04 APERTURE END LIST*
D10*
%TO.C,D9/Space1*%
G36*
X177472941Y-100366826D02*
G01*
X177425078Y-100607450D01*
X177353860Y-100842225D01*
X177259973Y-101068888D01*
X177144322Y-101285257D01*
X177008019Y-101489248D01*
X176852378Y-101678897D01*
X176678897Y-101852378D01*
X176550000Y-101958161D01*
X176550000Y-103250000D01*
X176549039Y-103259755D01*
X176546194Y-103269134D01*
X176541573Y-103277779D01*
X176535355Y-103285355D01*
X176527779Y-103291573D01*
X176519134Y-103296194D01*
X176509755Y-103299039D01*
X176500000Y-103300000D01*
X173500000Y-103300000D01*
X173490245Y-103299039D01*
X173480866Y-103296194D01*
X173472221Y-103291573D01*
X173464645Y-103285355D01*
X173458427Y-103277779D01*
X173453806Y-103269134D01*
X173450961Y-103259755D01*
X173450000Y-103250000D01*
X173450000Y-101958161D01*
X173321103Y-101852378D01*
X173147622Y-101678897D01*
X172991981Y-101489248D01*
X172855678Y-101285257D01*
X172740027Y-101068888D01*
X172646140Y-100842225D01*
X172574922Y-100607450D01*
X172527059Y-100366826D01*
X172503011Y-100122669D01*
X172503011Y-99877331D01*
X172527059Y-99633174D01*
X172574922Y-99392550D01*
X172646140Y-99157775D01*
X172740027Y-98931112D01*
X172855678Y-98714743D01*
X172991981Y-98510752D01*
X173147622Y-98321103D01*
X173321103Y-98147622D01*
X173510752Y-97991981D01*
X173714743Y-97855678D01*
X173931112Y-97740027D01*
X174157775Y-97646140D01*
X174392550Y-97574922D01*
X174633174Y-97527059D01*
X174877331Y-97503011D01*
X175122669Y-97503011D01*
X175366826Y-97527059D01*
X175607450Y-97574922D01*
X175842225Y-97646140D01*
X176068888Y-97740027D01*
X176285257Y-97855678D01*
X176489248Y-97991981D01*
X176678897Y-98147622D01*
X176852378Y-98321103D01*
X177008019Y-98510752D01*
X177144322Y-98714743D01*
X177259973Y-98931112D01*
X177353860Y-99157775D01*
X177425078Y-99392550D01*
X177472941Y-99633174D01*
X177496989Y-99877331D01*
X177496989Y-100122669D01*
X177472941Y-100366826D01*
G37*
D11*
X175000000Y-105000000D03*
%TD*%
D10*
%TO.C,D8/Click1*%
G36*
X172527059Y-119133174D02*
G01*
X172574922Y-118892550D01*
X172646140Y-118657775D01*
X172740027Y-118431112D01*
X172855678Y-118214743D01*
X172991981Y-118010752D01*
X173147622Y-117821103D01*
X173321103Y-117647622D01*
X173450000Y-117541839D01*
X173450000Y-116250000D01*
X173450961Y-116240245D01*
X173453806Y-116230866D01*
X173458427Y-116222221D01*
X173464645Y-116214645D01*
X173472221Y-116208427D01*
X173480866Y-116203806D01*
X173490245Y-116200961D01*
X173500000Y-116200000D01*
X176500000Y-116200000D01*
X176509755Y-116200961D01*
X176519134Y-116203806D01*
X176527779Y-116208427D01*
X176535355Y-116214645D01*
X176541573Y-116222221D01*
X176546194Y-116230866D01*
X176549039Y-116240245D01*
X176550000Y-116250000D01*
X176550000Y-117541839D01*
X176678897Y-117647622D01*
X176852378Y-117821103D01*
X177008019Y-118010752D01*
X177144322Y-118214743D01*
X177259973Y-118431112D01*
X177353860Y-118657775D01*
X177425078Y-118892550D01*
X177472941Y-119133174D01*
X177496989Y-119377331D01*
X177496989Y-119622669D01*
X177472941Y-119866826D01*
X177425078Y-120107450D01*
X177353860Y-120342225D01*
X177259973Y-120568888D01*
X177144322Y-120785257D01*
X177008019Y-120989248D01*
X176852378Y-121178897D01*
X176678897Y-121352378D01*
X176489248Y-121508019D01*
X176285257Y-121644322D01*
X176068888Y-121759973D01*
X175842225Y-121853860D01*
X175607450Y-121925078D01*
X175366826Y-121972941D01*
X175122669Y-121996989D01*
X174877331Y-121996989D01*
X174633174Y-121972941D01*
X174392550Y-121925078D01*
X174157775Y-121853860D01*
X173931112Y-121759973D01*
X173714743Y-121644322D01*
X173510752Y-121508019D01*
X173321103Y-121352378D01*
X173147622Y-121178897D01*
X172991981Y-120989248D01*
X172855678Y-120785257D01*
X172740027Y-120568888D01*
X172646140Y-120342225D01*
X172574922Y-120107450D01*
X172527059Y-119866826D01*
X172503011Y-119622669D01*
X172503011Y-119377331D01*
X172527059Y-119133174D01*
G37*
D11*
X175000000Y-114500000D03*
%TD*%
D10*
%TO.C,D7/Down1*%
G36*
X126222941Y-115866826D02*
G01*
X126175078Y-116107450D01*
X126103860Y-116342225D01*
X126009973Y-116568888D01*
X125894322Y-116785257D01*
X125758019Y-116989248D01*
X125602378Y-117178897D01*
X125428897Y-117352378D01*
X125300000Y-117458161D01*
X125300000Y-118750000D01*
X125299039Y-118759755D01*
X125296194Y-118769134D01*
X125291573Y-118777779D01*
X125285355Y-118785355D01*
X125277779Y-118791573D01*
X125269134Y-118796194D01*
X125259755Y-118799039D01*
X125250000Y-118800000D01*
X122250000Y-118800000D01*
X122240245Y-118799039D01*
X122230866Y-118796194D01*
X122222221Y-118791573D01*
X122214645Y-118785355D01*
X122208427Y-118777779D01*
X122203806Y-118769134D01*
X122200961Y-118759755D01*
X122200000Y-118750000D01*
X122200000Y-117458161D01*
X122071103Y-117352378D01*
X121897622Y-117178897D01*
X121741981Y-116989248D01*
X121605678Y-116785257D01*
X121490027Y-116568888D01*
X121396140Y-116342225D01*
X121324922Y-116107450D01*
X121277059Y-115866826D01*
X121253011Y-115622669D01*
X121253011Y-115377331D01*
X121277059Y-115133174D01*
X121324922Y-114892550D01*
X121396140Y-114657775D01*
X121490027Y-114431112D01*
X121605678Y-114214743D01*
X121741981Y-114010752D01*
X121897622Y-113821103D01*
X122071103Y-113647622D01*
X122260752Y-113491981D01*
X122464743Y-113355678D01*
X122681112Y-113240027D01*
X122907775Y-113146140D01*
X123142550Y-113074922D01*
X123383174Y-113027059D01*
X123627331Y-113003011D01*
X123872669Y-113003011D01*
X124116826Y-113027059D01*
X124357450Y-113074922D01*
X124592225Y-113146140D01*
X124818888Y-113240027D01*
X125035257Y-113355678D01*
X125239248Y-113491981D01*
X125428897Y-113647622D01*
X125602378Y-113821103D01*
X125758019Y-114010752D01*
X125894322Y-114214743D01*
X126009973Y-114431112D01*
X126103860Y-114657775D01*
X126175078Y-114892550D01*
X126222941Y-115133174D01*
X126246989Y-115377331D01*
X126246989Y-115622669D01*
X126222941Y-115866826D01*
G37*
D11*
X123750000Y-120500000D03*
%TD*%
D10*
%TO.C,D6/Right1*%
G36*
X118133174Y-112472941D02*
G01*
X117892550Y-112425078D01*
X117657775Y-112353860D01*
X117431112Y-112259973D01*
X117214743Y-112144322D01*
X117010752Y-112008019D01*
X116821103Y-111852378D01*
X116647622Y-111678897D01*
X116541839Y-111550000D01*
X115250000Y-111550000D01*
X115240245Y-111549039D01*
X115230866Y-111546194D01*
X115222221Y-111541573D01*
X115214645Y-111535355D01*
X115208427Y-111527779D01*
X115203806Y-111519134D01*
X115200961Y-111509755D01*
X115200000Y-111500000D01*
X115200000Y-108500000D01*
X115200961Y-108490245D01*
X115203806Y-108480866D01*
X115208427Y-108472221D01*
X115214645Y-108464645D01*
X115222221Y-108458427D01*
X115230866Y-108453806D01*
X115240245Y-108450961D01*
X115250000Y-108450000D01*
X116541839Y-108450000D01*
X116647622Y-108321103D01*
X116821103Y-108147622D01*
X117010752Y-107991981D01*
X117214743Y-107855678D01*
X117431112Y-107740027D01*
X117657775Y-107646140D01*
X117892550Y-107574922D01*
X118133174Y-107527059D01*
X118377331Y-107503011D01*
X118622669Y-107503011D01*
X118866826Y-107527059D01*
X119107450Y-107574922D01*
X119342225Y-107646140D01*
X119568888Y-107740027D01*
X119785257Y-107855678D01*
X119989248Y-107991981D01*
X120178897Y-108147622D01*
X120352378Y-108321103D01*
X120508019Y-108510752D01*
X120644322Y-108714743D01*
X120759973Y-108931112D01*
X120853860Y-109157775D01*
X120925078Y-109392550D01*
X120972941Y-109633174D01*
X120996989Y-109877331D01*
X120996989Y-110122669D01*
X120972941Y-110366826D01*
X120925078Y-110607450D01*
X120853860Y-110842225D01*
X120759973Y-111068888D01*
X120644322Y-111285257D01*
X120508019Y-111489248D01*
X120352378Y-111678897D01*
X120178897Y-111852378D01*
X119989248Y-112008019D01*
X119785257Y-112144322D01*
X119568888Y-112259973D01*
X119342225Y-112353860D01*
X119107450Y-112425078D01*
X118866826Y-112472941D01*
X118622669Y-112496989D01*
X118377331Y-112496989D01*
X118133174Y-112472941D01*
G37*
D11*
X113500000Y-110000000D03*
%TD*%
D10*
%TO.C,D5/Left1*%
G36*
X129366826Y-107527059D02*
G01*
X129607450Y-107574922D01*
X129842225Y-107646140D01*
X130068888Y-107740027D01*
X130285257Y-107855678D01*
X130489248Y-107991981D01*
X130678897Y-108147622D01*
X130852378Y-108321103D01*
X130958161Y-108450000D01*
X132250000Y-108450000D01*
X132259755Y-108450961D01*
X132269134Y-108453806D01*
X132277779Y-108458427D01*
X132285355Y-108464645D01*
X132291573Y-108472221D01*
X132296194Y-108480866D01*
X132299039Y-108490245D01*
X132300000Y-108500000D01*
X132300000Y-111500000D01*
X132299039Y-111509755D01*
X132296194Y-111519134D01*
X132291573Y-111527779D01*
X132285355Y-111535355D01*
X132277779Y-111541573D01*
X132269134Y-111546194D01*
X132259755Y-111549039D01*
X132250000Y-111550000D01*
X130958161Y-111550000D01*
X130852378Y-111678897D01*
X130678897Y-111852378D01*
X130489248Y-112008019D01*
X130285257Y-112144322D01*
X130068888Y-112259973D01*
X129842225Y-112353860D01*
X129607450Y-112425078D01*
X129366826Y-112472941D01*
X129122669Y-112496989D01*
X128877331Y-112496989D01*
X128633174Y-112472941D01*
X128392550Y-112425078D01*
X128157775Y-112353860D01*
X127931112Y-112259973D01*
X127714743Y-112144322D01*
X127510752Y-112008019D01*
X127321103Y-111852378D01*
X127147622Y-111678897D01*
X126991981Y-111489248D01*
X126855678Y-111285257D01*
X126740027Y-111068888D01*
X126646140Y-110842225D01*
X126574922Y-110607450D01*
X126527059Y-110366826D01*
X126503011Y-110122669D01*
X126503011Y-109877331D01*
X126527059Y-109633174D01*
X126574922Y-109392550D01*
X126646140Y-109157775D01*
X126740027Y-108931112D01*
X126855678Y-108714743D01*
X126991981Y-108510752D01*
X127147622Y-108321103D01*
X127321103Y-108147622D01*
X127510752Y-107991981D01*
X127714743Y-107855678D01*
X127931112Y-107740027D01*
X128157775Y-107646140D01*
X128392550Y-107574922D01*
X128633174Y-107527059D01*
X128877331Y-107503011D01*
X129122669Y-107503011D01*
X129366826Y-107527059D01*
G37*
D11*
X134000000Y-110000000D03*
%TD*%
D10*
%TO.C,D4/Up1*%
G36*
X126222941Y-99366826D02*
G01*
X126175078Y-99607450D01*
X126103860Y-99842225D01*
X126009973Y-100068888D01*
X125894322Y-100285257D01*
X125758019Y-100489248D01*
X125602378Y-100678897D01*
X125428897Y-100852378D01*
X125300000Y-100958161D01*
X125300000Y-102250000D01*
X125299039Y-102259755D01*
X125296194Y-102269134D01*
X125291573Y-102277779D01*
X125285355Y-102285355D01*
X125277779Y-102291573D01*
X125269134Y-102296194D01*
X125259755Y-102299039D01*
X125250000Y-102300000D01*
X122250000Y-102300000D01*
X122240245Y-102299039D01*
X122230866Y-102296194D01*
X122222221Y-102291573D01*
X122214645Y-102285355D01*
X122208427Y-102277779D01*
X122203806Y-102269134D01*
X122200961Y-102259755D01*
X122200000Y-102250000D01*
X122200000Y-100958161D01*
X122071103Y-100852378D01*
X121897622Y-100678897D01*
X121741981Y-100489248D01*
X121605678Y-100285257D01*
X121490027Y-100068888D01*
X121396140Y-99842225D01*
X121324922Y-99607450D01*
X121277059Y-99366826D01*
X121253011Y-99122669D01*
X121253011Y-98877331D01*
X121277059Y-98633174D01*
X121324922Y-98392550D01*
X121396140Y-98157775D01*
X121490027Y-97931112D01*
X121605678Y-97714743D01*
X121741981Y-97510752D01*
X121897622Y-97321103D01*
X122071103Y-97147622D01*
X122260752Y-96991981D01*
X122464743Y-96855678D01*
X122681112Y-96740027D01*
X122907775Y-96646140D01*
X123142550Y-96574922D01*
X123383174Y-96527059D01*
X123627331Y-96503011D01*
X123872669Y-96503011D01*
X124116826Y-96527059D01*
X124357450Y-96574922D01*
X124592225Y-96646140D01*
X124818888Y-96740027D01*
X125035257Y-96855678D01*
X125239248Y-96991981D01*
X125428897Y-97147622D01*
X125602378Y-97321103D01*
X125758019Y-97510752D01*
X125894322Y-97714743D01*
X126009973Y-97931112D01*
X126103860Y-98157775D01*
X126175078Y-98392550D01*
X126222941Y-98633174D01*
X126246989Y-98877331D01*
X126246989Y-99122669D01*
X126222941Y-99366826D01*
G37*
D11*
X123750000Y-104000000D03*
%TD*%
%TO.C,R7*%
G36*
G01*
X167875001Y-96150000D02*
X166624999Y-96150000D01*
G75*
G02*
X166375000Y-95900001I0J249999D01*
G01*
X166375000Y-95099999D01*
G75*
G02*
X166624999Y-94850000I249999J0D01*
G01*
X167875001Y-94850000D01*
G75*
G02*
X168125000Y-95099999I0J-249999D01*
G01*
X168125000Y-95900001D01*
G75*
G02*
X167875001Y-96150000I-249999J0D01*
G01*
G37*
G36*
G01*
X167875001Y-99250000D02*
X166624999Y-99250000D01*
G75*
G02*
X166375000Y-99000001I0J249999D01*
G01*
X166375000Y-98199999D01*
G75*
G02*
X166624999Y-97950000I249999J0D01*
G01*
X167875001Y-97950000D01*
G75*
G02*
X168125000Y-98199999I0J-249999D01*
G01*
X168125000Y-99000001D01*
G75*
G02*
X167875001Y-99250000I-249999J0D01*
G01*
G37*
%TD*%
D12*
%TO.C,LED1*%
X170750000Y-90290000D03*
D13*
X170750000Y-87750000D03*
%TD*%
D14*
%TO.C,VBUS1*%
X177000000Y-79500000D03*
D10*
G36*
X183476253Y-76449074D02*
G01*
X179298133Y-81428363D01*
X179295365Y-81426040D01*
X179200745Y-81538804D01*
X178990311Y-81744697D01*
X178760707Y-81928974D01*
X178514147Y-82089857D01*
X178253007Y-82225798D01*
X177979798Y-82335489D01*
X177697154Y-82417872D01*
X177407795Y-82472154D01*
X177114510Y-82497814D01*
X176820121Y-82494603D01*
X176527464Y-82462551D01*
X176239359Y-82401969D01*
X175958580Y-82313440D01*
X175687829Y-82197816D01*
X175429714Y-82056209D01*
X175186724Y-81889985D01*
X174961196Y-81700745D01*
X174755303Y-81490311D01*
X174571026Y-81260707D01*
X174410143Y-81014147D01*
X174274202Y-80753007D01*
X174164511Y-80479798D01*
X174082128Y-80197154D01*
X174027846Y-79907795D01*
X174002186Y-79614510D01*
X174005397Y-79320121D01*
X174037449Y-79027464D01*
X174098031Y-78739359D01*
X174186560Y-78458580D01*
X174302184Y-78187829D01*
X174443791Y-77929714D01*
X174610015Y-77686724D01*
X174704635Y-77573960D01*
X174701867Y-77571637D01*
X178879986Y-72592348D01*
X183476253Y-76449074D01*
G37*
%TD*%
D14*
%TO.C,M2-1*%
X156000000Y-150000000D03*
D10*
G36*
X154174290Y-156922195D02*
G01*
X153045577Y-150520945D01*
X153049136Y-150520317D01*
X153023574Y-150375350D01*
X153001115Y-150081803D01*
X153007538Y-149787466D01*
X153042780Y-149495177D01*
X153106500Y-149207750D01*
X153198088Y-148927952D01*
X153316658Y-148658479D01*
X153461072Y-148401925D01*
X153629936Y-148160762D01*
X153821625Y-147937311D01*
X154034294Y-147733725D01*
X154265893Y-147551965D01*
X154514192Y-147393782D01*
X154776801Y-147260696D01*
X155051190Y-147153992D01*
X155334716Y-147074697D01*
X155624650Y-147023574D01*
X155918197Y-147001115D01*
X156212534Y-147007538D01*
X156504823Y-147042780D01*
X156792250Y-147106500D01*
X157072048Y-147198088D01*
X157341521Y-147316658D01*
X157598075Y-147461072D01*
X157839238Y-147629936D01*
X158062689Y-147821625D01*
X158266275Y-148034294D01*
X158448035Y-148265893D01*
X158606218Y-148514192D01*
X158739304Y-148776801D01*
X158846008Y-149051190D01*
X158925303Y-149334716D01*
X158950864Y-149479683D01*
X158954423Y-149479055D01*
X160083136Y-155880306D01*
X154174290Y-156922195D01*
G37*
%TD*%
D14*
%TO.C,M2+1*%
X164500000Y-147750000D03*
D10*
G36*
X163904053Y-154884062D02*
G01*
X161680922Y-148776060D01*
X161684318Y-148774824D01*
X161633972Y-148636499D01*
X161560880Y-148351311D01*
X161516094Y-148060330D01*
X161500045Y-147766362D01*
X161512886Y-147472237D01*
X161554496Y-147180786D01*
X161624472Y-146894817D01*
X161722141Y-146617083D01*
X161846562Y-146350262D01*
X161996538Y-146096919D01*
X162170623Y-145859497D01*
X162367141Y-145640281D01*
X162584200Y-145441384D01*
X162819709Y-145264719D01*
X163071401Y-145111988D01*
X163336850Y-144984665D01*
X163613501Y-144883972D01*
X163898689Y-144810880D01*
X164189670Y-144766094D01*
X164483638Y-144750045D01*
X164777763Y-144762886D01*
X165069214Y-144804496D01*
X165355183Y-144874472D01*
X165632917Y-144972141D01*
X165899738Y-145096562D01*
X166153081Y-145246538D01*
X166390503Y-145420623D01*
X166609719Y-145617141D01*
X166808616Y-145834200D01*
X166985281Y-146069709D01*
X167138012Y-146321401D01*
X167265335Y-146586850D01*
X167315682Y-146725176D01*
X167319078Y-146723940D01*
X169542209Y-152831942D01*
X163904053Y-154884062D01*
G37*
%TD*%
D14*
%TO.C,M1-1*%
X144500000Y-150250000D03*
D10*
G36*
X140416864Y-156130306D02*
G01*
X141545577Y-149729055D01*
X141549136Y-149729683D01*
X141574697Y-149584716D01*
X141653992Y-149301190D01*
X141760696Y-149026801D01*
X141893782Y-148764192D01*
X142051965Y-148515893D01*
X142233725Y-148284294D01*
X142437311Y-148071625D01*
X142660762Y-147879936D01*
X142901925Y-147711072D01*
X143158479Y-147566658D01*
X143427952Y-147448088D01*
X143707750Y-147356500D01*
X143995177Y-147292780D01*
X144287466Y-147257538D01*
X144581803Y-147251115D01*
X144875350Y-147273574D01*
X145165284Y-147324697D01*
X145448810Y-147403992D01*
X145723199Y-147510696D01*
X145985808Y-147643782D01*
X146234107Y-147801965D01*
X146465706Y-147983725D01*
X146678375Y-148187311D01*
X146870064Y-148410762D01*
X147038928Y-148651925D01*
X147183342Y-148908479D01*
X147301912Y-149177952D01*
X147393500Y-149457750D01*
X147457220Y-149745177D01*
X147492462Y-150037466D01*
X147498885Y-150331803D01*
X147476426Y-150625350D01*
X147450864Y-150770317D01*
X147454423Y-150770945D01*
X146325710Y-157172195D01*
X140416864Y-156130306D01*
G37*
%TD*%
D14*
%TO.C,M1+1*%
X136250000Y-148000000D03*
D10*
G36*
X131207791Y-153081942D02*
G01*
X133430922Y-146973940D01*
X133434318Y-146975176D01*
X133484665Y-146836850D01*
X133611988Y-146571401D01*
X133764719Y-146319709D01*
X133941384Y-146084200D01*
X134140281Y-145867141D01*
X134359497Y-145670623D01*
X134596919Y-145496538D01*
X134850262Y-145346562D01*
X135117083Y-145222141D01*
X135394817Y-145124472D01*
X135680786Y-145054496D01*
X135972237Y-145012886D01*
X136266362Y-145000045D01*
X136560330Y-145016094D01*
X136851311Y-145060880D01*
X137136499Y-145133972D01*
X137413150Y-145234665D01*
X137678599Y-145361988D01*
X137930291Y-145514719D01*
X138165800Y-145691384D01*
X138382859Y-145890281D01*
X138579377Y-146109497D01*
X138753462Y-146346919D01*
X138903438Y-146600262D01*
X139027859Y-146867083D01*
X139125528Y-147144817D01*
X139195504Y-147430786D01*
X139237114Y-147722237D01*
X139249955Y-148016362D01*
X139233906Y-148310330D01*
X139189120Y-148601311D01*
X139116028Y-148886499D01*
X139065682Y-149024824D01*
X139069078Y-149026060D01*
X136845947Y-155134062D01*
X131207791Y-153081942D01*
G37*
%TD*%
D14*
%TO.C,D3*%
X110250000Y-102500000D03*
D10*
G36*
X104747939Y-97919899D02*
G01*
X111026457Y-99602223D01*
X111025522Y-99605713D01*
X111167709Y-99643812D01*
X111443245Y-99747516D01*
X111707291Y-99877729D01*
X111957301Y-100033196D01*
X112190868Y-100212418D01*
X112405745Y-100413672D01*
X112599860Y-100635018D01*
X112771345Y-100874326D01*
X112918548Y-101129288D01*
X113040052Y-101397452D01*
X113134685Y-101676234D01*
X113201538Y-101962950D01*
X113239966Y-102254836D01*
X113249599Y-102549085D01*
X113230344Y-102842861D01*
X113182386Y-103133335D01*
X113106188Y-103417709D01*
X113002484Y-103693245D01*
X112872271Y-103957291D01*
X112716804Y-104207301D01*
X112537582Y-104440868D01*
X112336328Y-104655745D01*
X112114982Y-104849860D01*
X111875674Y-105021345D01*
X111620712Y-105168548D01*
X111352548Y-105290052D01*
X111073766Y-105384685D01*
X110787050Y-105451538D01*
X110495164Y-105489966D01*
X110200915Y-105499599D01*
X109907139Y-105480344D01*
X109616665Y-105432386D01*
X109474478Y-105394287D01*
X109473543Y-105397777D01*
X103195025Y-103715454D01*
X104747939Y-97919899D01*
G37*
%TD*%
D14*
%TO.C,D2*%
X113500000Y-92750000D03*
D10*
G36*
X108876854Y-87284058D02*
G01*
X114767855Y-90031077D01*
X114766327Y-90034352D01*
X114899739Y-90096563D01*
X115153081Y-90246537D01*
X115390504Y-90420623D01*
X115609719Y-90617142D01*
X115808616Y-90834200D01*
X115985281Y-91069709D01*
X116138012Y-91321400D01*
X116265336Y-91586850D01*
X116366028Y-91863501D01*
X116439120Y-92148690D01*
X116483906Y-92439670D01*
X116499955Y-92733638D01*
X116487114Y-93027763D01*
X116445505Y-93319214D01*
X116375528Y-93605184D01*
X116277859Y-93882916D01*
X116153437Y-94149739D01*
X116003463Y-94403081D01*
X115829377Y-94640504D01*
X115632858Y-94859719D01*
X115415800Y-95058616D01*
X115180291Y-95235281D01*
X114928600Y-95388012D01*
X114663150Y-95515336D01*
X114386499Y-95616028D01*
X114101310Y-95689120D01*
X113810330Y-95733906D01*
X113516362Y-95749955D01*
X113222237Y-95737114D01*
X112930786Y-95695505D01*
X112644816Y-95625528D01*
X112367084Y-95527859D01*
X112233673Y-95465648D01*
X112232145Y-95468923D01*
X106341145Y-92721905D01*
X108876854Y-87284058D01*
G37*
%TD*%
D14*
%TO.C,D1*%
X119250000Y-84000000D03*
D10*
G36*
X116199074Y-77523747D02*
G01*
X121178363Y-81701867D01*
X121176040Y-81704635D01*
X121288804Y-81799255D01*
X121494697Y-82009689D01*
X121678974Y-82239293D01*
X121839857Y-82485853D01*
X121975798Y-82746993D01*
X122085489Y-83020202D01*
X122167872Y-83302846D01*
X122222154Y-83592205D01*
X122247814Y-83885490D01*
X122244603Y-84179879D01*
X122212551Y-84472536D01*
X122151969Y-84760641D01*
X122063440Y-85041420D01*
X121947816Y-85312171D01*
X121806209Y-85570286D01*
X121639985Y-85813276D01*
X121450745Y-86038804D01*
X121240311Y-86244697D01*
X121010707Y-86428974D01*
X120764147Y-86589857D01*
X120503007Y-86725798D01*
X120229798Y-86835489D01*
X119947154Y-86917872D01*
X119657795Y-86972154D01*
X119364510Y-86997814D01*
X119070121Y-86994603D01*
X118777464Y-86962551D01*
X118489359Y-86901969D01*
X118208580Y-86813440D01*
X117937829Y-86697816D01*
X117679714Y-86556209D01*
X117436724Y-86389985D01*
X117323960Y-86295365D01*
X117321637Y-86298133D01*
X112342348Y-82120014D01*
X116199074Y-77523747D01*
G37*
%TD*%
D14*
%TO.C,D0*%
X126500000Y-77000000D03*
D10*
G36*
X124620014Y-70092348D02*
G01*
X128798133Y-75071637D01*
X128795365Y-75073960D01*
X128889985Y-75186724D01*
X129056209Y-75429714D01*
X129197816Y-75687829D01*
X129313440Y-75958580D01*
X129401969Y-76239359D01*
X129462551Y-76527464D01*
X129494603Y-76820121D01*
X129497814Y-77114510D01*
X129472154Y-77407795D01*
X129417872Y-77697154D01*
X129335489Y-77979798D01*
X129225798Y-78253007D01*
X129089857Y-78514147D01*
X128928974Y-78760707D01*
X128744697Y-78990311D01*
X128538804Y-79200745D01*
X128313276Y-79389985D01*
X128070286Y-79556209D01*
X127812171Y-79697816D01*
X127541420Y-79813440D01*
X127260641Y-79901969D01*
X126972536Y-79962551D01*
X126679879Y-79994603D01*
X126385490Y-79997814D01*
X126092205Y-79972154D01*
X125802846Y-79917872D01*
X125520202Y-79835489D01*
X125246993Y-79725798D01*
X124985853Y-79589857D01*
X124739293Y-79428974D01*
X124509689Y-79244697D01*
X124299255Y-79038804D01*
X124204635Y-78926040D01*
X124201867Y-78928363D01*
X120023747Y-73949074D01*
X124620014Y-70092348D01*
G37*
%TD*%
D14*
%TO.C,A2*%
X183750000Y-88250000D03*
D10*
G36*
X190879165Y-87598076D02*
G01*
X185250000Y-90848076D01*
X185248193Y-90844946D01*
X185120711Y-90918548D01*
X184852548Y-91040052D01*
X184573766Y-91134686D01*
X184287050Y-91201538D01*
X183995164Y-91239966D01*
X183700915Y-91249598D01*
X183407139Y-91230344D01*
X183116665Y-91182386D01*
X182832291Y-91106188D01*
X182556754Y-91002484D01*
X182292710Y-90872271D01*
X182042699Y-90716804D01*
X181809132Y-90537582D01*
X181594255Y-90336328D01*
X181400139Y-90114982D01*
X181228655Y-89875675D01*
X181081452Y-89620711D01*
X180959948Y-89352548D01*
X180865314Y-89073766D01*
X180798462Y-88787050D01*
X180760034Y-88495164D01*
X180750402Y-88200915D01*
X180769656Y-87907139D01*
X180817614Y-87616665D01*
X180893812Y-87332291D01*
X180997516Y-87056754D01*
X181127729Y-86792710D01*
X181283196Y-86542699D01*
X181462418Y-86309132D01*
X181663672Y-86094255D01*
X181885018Y-85900139D01*
X182124325Y-85728655D01*
X182251807Y-85655054D01*
X182250000Y-85651924D01*
X187879165Y-82401924D01*
X190879165Y-87598076D01*
G37*
%TD*%
D14*
%TO.C,A1*%
X188000000Y-96500000D03*
D10*
G36*
X195134062Y-97095947D02*
G01*
X189026060Y-99319078D01*
X189024824Y-99315682D01*
X188886499Y-99366028D01*
X188601311Y-99439120D01*
X188310330Y-99483906D01*
X188016362Y-99499955D01*
X187722237Y-99487114D01*
X187430786Y-99445504D01*
X187144817Y-99375528D01*
X186867083Y-99277859D01*
X186600262Y-99153438D01*
X186346919Y-99003462D01*
X186109497Y-98829377D01*
X185890281Y-98632859D01*
X185691384Y-98415800D01*
X185514719Y-98180291D01*
X185361988Y-97928599D01*
X185234665Y-97663150D01*
X185133972Y-97386499D01*
X185060880Y-97101311D01*
X185016094Y-96810330D01*
X185000045Y-96516362D01*
X185012886Y-96222237D01*
X185054496Y-95930786D01*
X185124472Y-95644817D01*
X185222141Y-95367083D01*
X185346562Y-95100262D01*
X185496538Y-94846919D01*
X185670623Y-94609497D01*
X185867141Y-94390281D01*
X186084200Y-94191384D01*
X186319709Y-94014719D01*
X186571401Y-93861988D01*
X186836850Y-93734665D01*
X186975176Y-93684318D01*
X186973940Y-93680922D01*
X193081942Y-91457791D01*
X195134062Y-97095947D01*
G37*
%TD*%
D14*
%TO.C,A0*%
X190000000Y-105750000D03*
D10*
G36*
X196736733Y-108172072D02*
G01*
X190261467Y-108738584D01*
X190261152Y-108734984D01*
X190114509Y-108747813D01*
X189820121Y-108744603D01*
X189527464Y-108712552D01*
X189239359Y-108651969D01*
X188958580Y-108563440D01*
X188687829Y-108447815D01*
X188429715Y-108306210D01*
X188186724Y-108139985D01*
X187961196Y-107950745D01*
X187755302Y-107740310D01*
X187571027Y-107510707D01*
X187410143Y-107264148D01*
X187274202Y-107003007D01*
X187164511Y-106729799D01*
X187082128Y-106447153D01*
X187027846Y-106157795D01*
X187002187Y-105864509D01*
X187005397Y-105570121D01*
X187037448Y-105277464D01*
X187098031Y-104989359D01*
X187186560Y-104708580D01*
X187302185Y-104437829D01*
X187443790Y-104179715D01*
X187610015Y-103936724D01*
X187799255Y-103711196D01*
X188009690Y-103505302D01*
X188239293Y-103321027D01*
X188485852Y-103160143D01*
X188746993Y-103024202D01*
X189020201Y-102914511D01*
X189302847Y-102832128D01*
X189592205Y-102777846D01*
X189738848Y-102765016D01*
X189738533Y-102761416D01*
X196213798Y-102194904D01*
X196736733Y-108172072D01*
G37*
%TD*%
D14*
%TO.C,3V3*%
X169500000Y-74000000D03*
D10*
G36*
X175685703Y-70396241D02*
G01*
X171957456Y-75720729D01*
X171954496Y-75718656D01*
X171870064Y-75839238D01*
X171678375Y-76062689D01*
X171465706Y-76266275D01*
X171234107Y-76448035D01*
X170985808Y-76606219D01*
X170723199Y-76739304D01*
X170448810Y-76846008D01*
X170165283Y-76925303D01*
X169875351Y-76976426D01*
X169581802Y-76998885D01*
X169287466Y-76992462D01*
X168995177Y-76957221D01*
X168707750Y-76893500D01*
X168427952Y-76801913D01*
X168158478Y-76683341D01*
X167901925Y-76538928D01*
X167660762Y-76370064D01*
X167437311Y-76178375D01*
X167233725Y-75965706D01*
X167051965Y-75734107D01*
X166893781Y-75485808D01*
X166760696Y-75223199D01*
X166653992Y-74948810D01*
X166574697Y-74665283D01*
X166523574Y-74375351D01*
X166501115Y-74081802D01*
X166507538Y-73787466D01*
X166542779Y-73495177D01*
X166606500Y-73207750D01*
X166698087Y-72927952D01*
X166816659Y-72658478D01*
X166961072Y-72401925D01*
X167045504Y-72281344D01*
X167042544Y-72279271D01*
X170770791Y-66954782D01*
X175685703Y-70396241D01*
G37*
%TD*%
D14*
%TO.C,GND8*%
X176000000Y-141500000D03*
D10*
G36*
X177879986Y-148407652D02*
G01*
X173701867Y-143428363D01*
X173704635Y-143426040D01*
X173610015Y-143313276D01*
X173443791Y-143070286D01*
X173302184Y-142812171D01*
X173186560Y-142541420D01*
X173098031Y-142260641D01*
X173037449Y-141972536D01*
X173005397Y-141679879D01*
X173002186Y-141385490D01*
X173027846Y-141092205D01*
X173082128Y-140802846D01*
X173164511Y-140520202D01*
X173274202Y-140246993D01*
X173410143Y-139985853D01*
X173571026Y-139739293D01*
X173755303Y-139509689D01*
X173961196Y-139299255D01*
X174186724Y-139110015D01*
X174429714Y-138943791D01*
X174687829Y-138802184D01*
X174958580Y-138686560D01*
X175239359Y-138598031D01*
X175527464Y-138537449D01*
X175820121Y-138505397D01*
X176114510Y-138502186D01*
X176407795Y-138527846D01*
X176697154Y-138582128D01*
X176979798Y-138664511D01*
X177253007Y-138774202D01*
X177514147Y-138910143D01*
X177760707Y-139071026D01*
X177990311Y-139255303D01*
X178200745Y-139461196D01*
X178295365Y-139573960D01*
X178298133Y-139571637D01*
X182476253Y-144550926D01*
X177879986Y-148407652D01*
G37*
%TD*%
D14*
%TO.C,GND6*%
X186750000Y-126500000D03*
D10*
G36*
X191373146Y-131965942D02*
G01*
X185482145Y-129218923D01*
X185483673Y-129215648D01*
X185350261Y-129153437D01*
X185096919Y-129003463D01*
X184859496Y-128829377D01*
X184640281Y-128632858D01*
X184441384Y-128415800D01*
X184264719Y-128180291D01*
X184111988Y-127928600D01*
X183984664Y-127663150D01*
X183883972Y-127386499D01*
X183810880Y-127101310D01*
X183766094Y-126810330D01*
X183750045Y-126516362D01*
X183762886Y-126222237D01*
X183804495Y-125930786D01*
X183874472Y-125644816D01*
X183972141Y-125367084D01*
X184096563Y-125100261D01*
X184246537Y-124846919D01*
X184420623Y-124609496D01*
X184617142Y-124390281D01*
X184834200Y-124191384D01*
X185069709Y-124014719D01*
X185321400Y-123861988D01*
X185586850Y-123734664D01*
X185863501Y-123633972D01*
X186148690Y-123560880D01*
X186439670Y-123516094D01*
X186733638Y-123500045D01*
X187027763Y-123512886D01*
X187319214Y-123554495D01*
X187605184Y-123624472D01*
X187882916Y-123722141D01*
X188016327Y-123784352D01*
X188017855Y-123781077D01*
X193908855Y-126528095D01*
X191373146Y-131965942D01*
G37*
%TD*%
D14*
%TO.C,GND5*%
X182250000Y-134750000D03*
D10*
G36*
X185300926Y-141226253D02*
G01*
X180321637Y-137048133D01*
X180323960Y-137045365D01*
X180211196Y-136950745D01*
X180005303Y-136740311D01*
X179821026Y-136510707D01*
X179660143Y-136264147D01*
X179524202Y-136003007D01*
X179414511Y-135729798D01*
X179332128Y-135447154D01*
X179277846Y-135157795D01*
X179252186Y-134864510D01*
X179255397Y-134570121D01*
X179287449Y-134277464D01*
X179348031Y-133989359D01*
X179436560Y-133708580D01*
X179552184Y-133437829D01*
X179693791Y-133179714D01*
X179860015Y-132936724D01*
X180049255Y-132711196D01*
X180259689Y-132505303D01*
X180489293Y-132321026D01*
X180735853Y-132160143D01*
X180996993Y-132024202D01*
X181270202Y-131914511D01*
X181552846Y-131832128D01*
X181842205Y-131777846D01*
X182135490Y-131752186D01*
X182429879Y-131755397D01*
X182722536Y-131787449D01*
X183010641Y-131848031D01*
X183291420Y-131936560D01*
X183562171Y-132052184D01*
X183820286Y-132193791D01*
X184063276Y-132360015D01*
X184176040Y-132454635D01*
X184178363Y-132451867D01*
X189157652Y-136629986D01*
X185300926Y-141226253D01*
G37*
%TD*%
D14*
%TO.C,GND4*%
X113000000Y-126750000D03*
D10*
G36*
X105865938Y-126154053D02*
G01*
X111973940Y-123930922D01*
X111975176Y-123934318D01*
X112113501Y-123883972D01*
X112398689Y-123810880D01*
X112689670Y-123766094D01*
X112983638Y-123750045D01*
X113277763Y-123762886D01*
X113569214Y-123804496D01*
X113855183Y-123874472D01*
X114132917Y-123972141D01*
X114399738Y-124096562D01*
X114653081Y-124246538D01*
X114890503Y-124420623D01*
X115109719Y-124617141D01*
X115308616Y-124834200D01*
X115485281Y-125069709D01*
X115638012Y-125321401D01*
X115765335Y-125586850D01*
X115866028Y-125863501D01*
X115939120Y-126148689D01*
X115983906Y-126439670D01*
X115999955Y-126733638D01*
X115987114Y-127027763D01*
X115945504Y-127319214D01*
X115875528Y-127605183D01*
X115777859Y-127882917D01*
X115653438Y-128149738D01*
X115503462Y-128403081D01*
X115329377Y-128640503D01*
X115132859Y-128859719D01*
X114915800Y-129058616D01*
X114680291Y-129235281D01*
X114428599Y-129388012D01*
X114163150Y-129515335D01*
X114024824Y-129565682D01*
X114026060Y-129569078D01*
X107918058Y-131792209D01*
X105865938Y-126154053D01*
G37*
%TD*%
D14*
%TO.C,GND3*%
X110250000Y-117750000D03*
D10*
G36*
X103327805Y-115924290D02*
G01*
X109729055Y-114795577D01*
X109729683Y-114799136D01*
X109874650Y-114773574D01*
X110168197Y-114751115D01*
X110462534Y-114757538D01*
X110754823Y-114792780D01*
X111042250Y-114856500D01*
X111322048Y-114948088D01*
X111591521Y-115066658D01*
X111848075Y-115211072D01*
X112089238Y-115379936D01*
X112312689Y-115571625D01*
X112516275Y-115784294D01*
X112698035Y-116015893D01*
X112856218Y-116264192D01*
X112989304Y-116526801D01*
X113096008Y-116801190D01*
X113175303Y-117084716D01*
X113226426Y-117374650D01*
X113248885Y-117668197D01*
X113242462Y-117962534D01*
X113207220Y-118254823D01*
X113143500Y-118542250D01*
X113051912Y-118822048D01*
X112933342Y-119091521D01*
X112788928Y-119348075D01*
X112620064Y-119589238D01*
X112428375Y-119812689D01*
X112215706Y-120016275D01*
X111984107Y-120198035D01*
X111735808Y-120356218D01*
X111473199Y-120489304D01*
X111198810Y-120596008D01*
X110915284Y-120675303D01*
X110770317Y-120700864D01*
X110770945Y-120704423D01*
X104369694Y-121833136D01*
X103327805Y-115924290D01*
G37*
%TD*%
D14*
%TO.C,GND2*%
X118250000Y-134750000D03*
D10*
G36*
X111342348Y-136629986D02*
G01*
X116321637Y-132451867D01*
X116323960Y-132454635D01*
X116436724Y-132360015D01*
X116679714Y-132193791D01*
X116937829Y-132052184D01*
X117208580Y-131936560D01*
X117489359Y-131848031D01*
X117777464Y-131787449D01*
X118070121Y-131755397D01*
X118364510Y-131752186D01*
X118657795Y-131777846D01*
X118947154Y-131832128D01*
X119229798Y-131914511D01*
X119503007Y-132024202D01*
X119764147Y-132160143D01*
X120010707Y-132321026D01*
X120240311Y-132505303D01*
X120450745Y-132711196D01*
X120639985Y-132936724D01*
X120806209Y-133179714D01*
X120947816Y-133437829D01*
X121063440Y-133708580D01*
X121151969Y-133989359D01*
X121212551Y-134277464D01*
X121244603Y-134570121D01*
X121247814Y-134864510D01*
X121222154Y-135157795D01*
X121167872Y-135447154D01*
X121085489Y-135729798D01*
X120975798Y-136003007D01*
X120839857Y-136264147D01*
X120678974Y-136510707D01*
X120494697Y-136740311D01*
X120288804Y-136950745D01*
X120176040Y-137045365D01*
X120178363Y-137048133D01*
X115199074Y-141226253D01*
X111342348Y-136629986D01*
G37*
%TD*%
D14*
%TO.C,GND1*%
X125250000Y-142000000D03*
D10*
G36*
X118773747Y-145050926D02*
G01*
X122951867Y-140071637D01*
X122954635Y-140073960D01*
X123049255Y-139961196D01*
X123259689Y-139755303D01*
X123489293Y-139571026D01*
X123735853Y-139410143D01*
X123996993Y-139274202D01*
X124270202Y-139164511D01*
X124552846Y-139082128D01*
X124842205Y-139027846D01*
X125135490Y-139002186D01*
X125429879Y-139005397D01*
X125722536Y-139037449D01*
X126010641Y-139098031D01*
X126291420Y-139186560D01*
X126562171Y-139302184D01*
X126820286Y-139443791D01*
X127063276Y-139610015D01*
X127288804Y-139799255D01*
X127494697Y-140009689D01*
X127678974Y-140239293D01*
X127839857Y-140485853D01*
X127975798Y-140746993D01*
X128085489Y-141020202D01*
X128167872Y-141302846D01*
X128222154Y-141592205D01*
X128247814Y-141885490D01*
X128244603Y-142179879D01*
X128212551Y-142472536D01*
X128151969Y-142760641D01*
X128063440Y-143041420D01*
X127947816Y-143312171D01*
X127806209Y-143570286D01*
X127639985Y-143813276D01*
X127545365Y-143926040D01*
X127548133Y-143928363D01*
X123370014Y-148907652D01*
X118773747Y-145050926D01*
G37*
%TD*%
D14*
%TO.C,GND7*%
X189250000Y-117750000D03*
D10*
G36*
X195130306Y-121833136D02*
G01*
X188729055Y-120704423D01*
X188729683Y-120700864D01*
X188584716Y-120675303D01*
X188301190Y-120596008D01*
X188026801Y-120489304D01*
X187764192Y-120356218D01*
X187515893Y-120198035D01*
X187284294Y-120016275D01*
X187071625Y-119812689D01*
X186879936Y-119589238D01*
X186711072Y-119348075D01*
X186566658Y-119091521D01*
X186448088Y-118822048D01*
X186356500Y-118542250D01*
X186292780Y-118254823D01*
X186257538Y-117962534D01*
X186251115Y-117668197D01*
X186273574Y-117374650D01*
X186324697Y-117084716D01*
X186403992Y-116801190D01*
X186510696Y-116526801D01*
X186643782Y-116264192D01*
X186801965Y-116015893D01*
X186983725Y-115784294D01*
X187187311Y-115571625D01*
X187410762Y-115379936D01*
X187651925Y-115211072D01*
X187908479Y-115066658D01*
X188177952Y-114948088D01*
X188457750Y-114856500D01*
X188745177Y-114792780D01*
X189037466Y-114757538D01*
X189331803Y-114751115D01*
X189625350Y-114773574D01*
X189770317Y-114799136D01*
X189770945Y-114795577D01*
X196172195Y-115924290D01*
X195130306Y-121833136D01*
G37*
%TD*%
%TO.C,R6*%
G36*
G01*
X169050000Y-109374999D02*
X169050000Y-110625001D01*
G75*
G02*
X168800001Y-110875000I-249999J0D01*
G01*
X167999999Y-110875000D01*
G75*
G02*
X167750000Y-110625001I0J249999D01*
G01*
X167750000Y-109374999D01*
G75*
G02*
X167999999Y-109125000I249999J0D01*
G01*
X168800001Y-109125000D01*
G75*
G02*
X169050000Y-109374999I0J-249999D01*
G01*
G37*
G36*
G01*
X172150000Y-109374999D02*
X172150000Y-110625001D01*
G75*
G02*
X171900001Y-110875000I-249999J0D01*
G01*
X171099999Y-110875000D01*
G75*
G02*
X170850000Y-110625001I0J249999D01*
G01*
X170850000Y-109374999D01*
G75*
G02*
X171099999Y-109125000I249999J0D01*
G01*
X171900001Y-109125000D01*
G75*
G02*
X172150000Y-109374999I0J-249999D01*
G01*
G37*
%TD*%
%TO.C,R5*%
G36*
G01*
X171550000Y-127374999D02*
X171550000Y-128625001D01*
G75*
G02*
X171300001Y-128875000I-249999J0D01*
G01*
X170499999Y-128875000D01*
G75*
G02*
X170250000Y-128625001I0J249999D01*
G01*
X170250000Y-127374999D01*
G75*
G02*
X170499999Y-127125000I249999J0D01*
G01*
X171300001Y-127125000D01*
G75*
G02*
X171550000Y-127374999I0J-249999D01*
G01*
G37*
G36*
G01*
X174650000Y-127374999D02*
X174650000Y-128625001D01*
G75*
G02*
X174400001Y-128875000I-249999J0D01*
G01*
X173599999Y-128875000D01*
G75*
G02*
X173350000Y-128625001I0J249999D01*
G01*
X173350000Y-127374999D01*
G75*
G02*
X173599999Y-127125000I249999J0D01*
G01*
X174400001Y-127125000D01*
G75*
G02*
X174650000Y-127374999I0J-249999D01*
G01*
G37*
%TD*%
%TO.C,R4*%
G36*
G01*
X132850000Y-117125001D02*
X132850000Y-115874999D01*
G75*
G02*
X133099999Y-115625000I249999J0D01*
G01*
X133900001Y-115625000D01*
G75*
G02*
X134150000Y-115874999I0J-249999D01*
G01*
X134150000Y-117125001D01*
G75*
G02*
X133900001Y-117375000I-249999J0D01*
G01*
X133099999Y-117375000D01*
G75*
G02*
X132850000Y-117125001I0J249999D01*
G01*
G37*
G36*
G01*
X129750000Y-117125001D02*
X129750000Y-115874999D01*
G75*
G02*
X129999999Y-115625000I249999J0D01*
G01*
X130800001Y-115625000D01*
G75*
G02*
X131050000Y-115874999I0J-249999D01*
G01*
X131050000Y-117125001D01*
G75*
G02*
X130800001Y-117375000I-249999J0D01*
G01*
X129999999Y-117375000D01*
G75*
G02*
X129750000Y-117125001I0J249999D01*
G01*
G37*
%TD*%
%TO.C,R3*%
G36*
G01*
X119625001Y-99600000D02*
X118374999Y-99600000D01*
G75*
G02*
X118125000Y-99350001I0J249999D01*
G01*
X118125000Y-98549999D01*
G75*
G02*
X118374999Y-98300000I249999J0D01*
G01*
X119625001Y-98300000D01*
G75*
G02*
X119875000Y-98549999I0J-249999D01*
G01*
X119875000Y-99350001D01*
G75*
G02*
X119625001Y-99600000I-249999J0D01*
G01*
G37*
G36*
G01*
X119625001Y-102700000D02*
X118374999Y-102700000D01*
G75*
G02*
X118125000Y-102450001I0J249999D01*
G01*
X118125000Y-101649999D01*
G75*
G02*
X118374999Y-101400000I249999J0D01*
G01*
X119625001Y-101400000D01*
G75*
G02*
X119875000Y-101649999I0J-249999D01*
G01*
X119875000Y-102450001D01*
G75*
G02*
X119625001Y-102700000I-249999J0D01*
G01*
G37*
%TD*%
%TO.C,R2*%
G36*
G01*
X131850000Y-103625001D02*
X131850000Y-102374999D01*
G75*
G02*
X132099999Y-102125000I249999J0D01*
G01*
X132900001Y-102125000D01*
G75*
G02*
X133150000Y-102374999I0J-249999D01*
G01*
X133150000Y-103625001D01*
G75*
G02*
X132900001Y-103875000I-249999J0D01*
G01*
X132099999Y-103875000D01*
G75*
G02*
X131850000Y-103625001I0J249999D01*
G01*
G37*
G36*
G01*
X128750000Y-103625001D02*
X128750000Y-102374999D01*
G75*
G02*
X128999999Y-102125000I249999J0D01*
G01*
X129800001Y-102125000D01*
G75*
G02*
X130050000Y-102374999I0J-249999D01*
G01*
X130050000Y-103625001D01*
G75*
G02*
X129800001Y-103875000I-249999J0D01*
G01*
X128999999Y-103875000D01*
G75*
G02*
X128750000Y-103625001I0J249999D01*
G01*
G37*
%TD*%
D15*
%TO.C,U2*%
X146190000Y-128920000D03*
X155500000Y-136540000D03*
X146190000Y-127650000D03*
X146190000Y-130190000D03*
X146190000Y-131460000D03*
X155500000Y-135270000D03*
X155500000Y-137810000D03*
X155500000Y-139080000D03*
X146190000Y-134000000D03*
X146190000Y-137810000D03*
X146190000Y-132730000D03*
X146190000Y-135270000D03*
X146190000Y-139080000D03*
X146190000Y-136540000D03*
X155500000Y-134000000D03*
X155500000Y-132730000D03*
X155500000Y-131460000D03*
X155500000Y-130190000D03*
X155500000Y-128920000D03*
X155500000Y-127650000D03*
%TD*%
D16*
%TO.C,U1*%
X141110000Y-68870000D03*
X141110000Y-71410000D03*
D17*
X141110000Y-73950000D03*
D16*
X141110000Y-76490000D03*
X141110000Y-79030000D03*
X141110000Y-81570000D03*
X141110000Y-84110000D03*
D17*
X141110000Y-86650000D03*
D16*
X141110000Y-89190000D03*
X141110000Y-91730000D03*
X141110000Y-94270000D03*
X141110000Y-96810000D03*
D17*
X141110000Y-99350000D03*
D16*
X141110000Y-101890000D03*
X141110000Y-104430000D03*
X141110000Y-106970000D03*
X141110000Y-109510000D03*
D17*
X141110000Y-112050000D03*
D16*
X141110000Y-114590000D03*
X141110000Y-117130000D03*
X158890000Y-117130000D03*
X158890000Y-114590000D03*
D17*
X158890000Y-112050000D03*
D16*
X158890000Y-109510000D03*
X158890000Y-106970000D03*
X158890000Y-104430000D03*
X158890000Y-101890000D03*
D17*
X158890000Y-99350000D03*
D16*
X158890000Y-96810000D03*
X158890000Y-94270000D03*
X158890000Y-91730000D03*
X158890000Y-89190000D03*
D17*
X158890000Y-86650000D03*
D16*
X158890000Y-84110000D03*
X158890000Y-81570000D03*
X158890000Y-79030000D03*
X158890000Y-76490000D03*
D17*
X158890000Y-73950000D03*
D16*
X158890000Y-71410000D03*
X158890000Y-68870000D03*
D18*
X140210000Y-68870000D03*
X140210000Y-71410000D03*
X140210000Y-73950000D03*
X140210000Y-76490000D03*
X140210000Y-79030000D03*
X140210000Y-81570000D03*
X140210000Y-84110000D03*
X140210000Y-86650000D03*
X140210000Y-89190000D03*
X140210000Y-91730000D03*
X140210000Y-94270000D03*
X140210000Y-96810000D03*
X140210000Y-99350000D03*
X140210000Y-101890000D03*
X140210000Y-104430000D03*
X140210000Y-106970000D03*
X140210000Y-109510000D03*
X140210000Y-112050000D03*
X140210000Y-114590000D03*
X140210000Y-117130000D03*
X159790000Y-68870000D03*
X159790000Y-71410000D03*
X159790000Y-73950000D03*
X159790000Y-76490000D03*
X159790000Y-79030000D03*
X159790000Y-81570000D03*
X159790000Y-84110000D03*
X159790000Y-86650000D03*
X159790000Y-89190000D03*
X159790000Y-91730000D03*
X159790000Y-94270000D03*
X159790000Y-96810000D03*
X159790000Y-99350000D03*
X159790000Y-101890000D03*
X159790000Y-104430000D03*
X159790000Y-106970000D03*
X159790000Y-109510000D03*
X159790000Y-112050000D03*
X159790000Y-114590000D03*
X159790000Y-117130000D03*
D19*
X147275000Y-69000000D03*
X152725000Y-69000000D03*
D20*
X147575000Y-72030000D03*
X152425000Y-72030000D03*
D21*
X147460000Y-117800000D03*
D16*
X147460000Y-116900000D03*
D21*
X150000000Y-117800000D03*
D17*
X150000000Y-116900000D03*
D21*
X152540000Y-117800000D03*
D16*
X152540000Y-116900000D03*
%TD*%
%TO.C,R1*%
G36*
G01*
X127350000Y-92625001D02*
X127350000Y-91374999D01*
G75*
G02*
X127599999Y-91125000I249999J0D01*
G01*
X128400001Y-91125000D01*
G75*
G02*
X128650000Y-91374999I0J-249999D01*
G01*
X128650000Y-92625001D01*
G75*
G02*
X128400001Y-92875000I-249999J0D01*
G01*
X127599999Y-92875000D01*
G75*
G02*
X127350000Y-92625001I0J249999D01*
G01*
G37*
G36*
G01*
X124250000Y-92625001D02*
X124250000Y-91374999D01*
G75*
G02*
X124499999Y-91125000I249999J0D01*
G01*
X125300001Y-91125000D01*
G75*
G02*
X125550000Y-91374999I0J-249999D01*
G01*
X125550000Y-92625001D01*
G75*
G02*
X125300001Y-92875000I-249999J0D01*
G01*
X124499999Y-92875000D01*
G75*
G02*
X124250000Y-92625001I0J249999D01*
G01*
G37*
%TD*%
M02*
