%TF.GenerationSoftware,KiCad,Pcbnew,6.0.4*%
%TF.CreationDate,2022-05-06T01:24:21+02:00*%
%TF.ProjectId,FrisbeeMitBiene02,46726973-6265-4654-9d69-744269656e65,rev?*%
%TF.SameCoordinates,Original*%
%TF.FileFunction,Soldermask,Bot*%
%TF.FilePolarity,Negative*%
%FSLAX46Y46*%
G04 Gerber Fmt 4.6, Leading zero omitted, Abs format (unit mm)*
G04 Created by KiCad (PCBNEW 6.0.4) date 2022-05-06 01:24:21*
%MOMM*%
%LPD*%
G01*
G04 APERTURE LIST*
G04 Aperture macros list*
%AMFreePoly0*
4,1,34,6.500000,-3.000000,0.000000,-3.000000,0.000000,-2.998354,-0.313585,-2.983566,-0.654430,-2.927750,-0.986600,-2.833129,-1.305693,-2.700956,-1.607480,-2.532984,-1.887961,-2.331438,-2.143418,-2.098990,-2.370465,-1.838721,-2.566093,-1.554081,-2.727708,-1.248842,-2.853170,-0.927051,-2.940814,-0.592971,-2.989479,-0.251034,-2.998520,0.094231,-2.967817,0.438249,-2.897777,0.776457,-2.789329,1.104374,
-2.643910,1.417652,-2.463448,1.712141,-2.250333,1.983936,-2.007392,2.229434,-1.737844,2.445383,-1.445261,2.628920,-1.133522,2.777612,-0.806759,2.889488,-0.469303,2.963064,-0.125627,2.997368,0.000000,2.995395,0.000000,3.000000,6.500000,3.000000,6.500000,-3.000000,6.500000,-3.000000,$1*%
%AMFreePoly1*
4,1,48,0.468453,2.455718,0.772542,2.377641,1.064448,2.262068,1.339567,2.110820,1.593560,1.926283,1.822422,1.711368,1.955916,1.550000,3.250000,1.550000,3.285355,1.535355,3.300000,1.500000,3.300000,-1.500000,3.285355,-1.535355,3.250000,-1.550000,1.955916,-1.550000,1.822422,-1.711368,1.593560,-1.926283,1.339567,-2.110820,1.064448,-2.262068,0.772542,-2.377641,0.468453,-2.455718,
0.156976,-2.495067,-0.156976,-2.495067,-0.468453,-2.455718,-0.772542,-2.377641,-1.064448,-2.262068,-1.339567,-2.110820,-1.593560,-1.926283,-1.822422,-1.711368,-2.022542,-1.469463,-2.190767,-1.204384,-2.324441,-0.920311,-2.421458,-0.621725,-2.480287,-0.313333,-2.500000,0.000000,-2.480287,0.313333,-2.421458,0.621725,-2.324441,0.920311,-2.190767,1.204384,-2.022542,1.469463,-1.822422,1.711368,
-1.593560,1.926283,-1.339567,2.110820,-1.064448,2.262068,-0.772542,2.377641,-0.468453,2.455718,-0.156976,2.495067,0.156976,2.495067,0.468453,2.455718,0.468453,2.455718,$1*%
%AMFreePoly2*
4,1,205,7.182521,5.710736,7.443706,5.587204,7.761243,5.397278,8.100314,5.163383,8.426101,4.907944,8.703784,4.653386,8.954971,4.409700,9.169855,4.245530,9.387025,4.145200,9.663295,4.074428,9.798143,4.042309,10.230343,3.865462,10.521107,3.622399,10.668747,3.336742,10.671575,3.032112,10.527905,2.732132,10.236048,2.460423,9.794316,2.240608,9.605758,2.163409,9.401189,2.023989,
9.284147,1.834159,9.222851,1.703286,9.072734,1.438927,8.893426,1.163881,8.605207,0.753456,8.819195,0.444214,9.078319,-0.010888,9.261609,-0.592703,9.323474,-1.262028,9.303574,-1.681425,9.185076,-2.196464,8.942540,-2.656214,8.555883,-3.108999,8.463215,-3.199504,8.201578,-3.415997,7.928375,-3.559981,7.565167,-3.676376,7.457091,-3.705347,7.173762,-3.771554,6.956637,-3.790481,
6.731695,-3.763017,6.424914,-3.690048,6.311772,-3.661316,6.044745,-3.602582,5.851948,-3.591037,5.666049,-3.628465,5.419716,-3.716645,5.297666,-3.759888,4.696401,-3.878296,4.120325,-3.846327,3.589152,-3.678998,3.122592,-3.391325,2.740357,-2.998326,2.462160,-2.515016,2.307711,-1.956413,2.296723,-1.337532,2.347575,-0.851002,1.580762,-0.422422,1.339775,-0.692134,1.218333,-0.815272,
1.019156,-0.931978,0.758218,-0.961846,0.473301,-0.918040,0.173249,-0.743708,-0.017734,-0.457695,-0.021883,-0.447016,-0.095855,-0.348164,-0.244015,-0.300634,-0.513389,-0.288361,-0.693525,-0.279344,-1.021519,-0.183927,-1.232916,0.025632,-1.343519,0.361708,-1.349979,0.408983,-1.330501,0.719846,-1.196717,1.052493,-0.937646,1.427535,-0.542308,1.865582,-0.371276,2.042521,-0.168880,2.271888,
-0.046653,2.458403,0.022582,2.647617,0.066004,2.885078,0.104883,3.105251,0.339581,3.833494,0.719719,4.515390,1.227083,5.122832,1.843458,5.627718,2.062176,5.730580,2.241926,5.719505,2.333678,5.583433,2.335238,5.565160,2.261513,5.421519,2.064504,5.263102,1.930571,5.170271,1.596259,4.875752,1.255744,4.507078,0.956431,4.118176,0.745728,3.762972,0.650639,3.514288,
0.546356,3.137580,0.475646,2.761182,0.463439,2.670583,0.413544,2.381023,0.342888,2.186157,0.222047,2.026437,0.021591,1.842310,-0.197780,1.636959,-0.487439,1.316701,-0.727086,0.996181,-0.890270,0.711909,-0.950542,0.500395,-0.922092,0.318713,-0.795912,0.146750,-0.604252,0.093122,-0.386207,0.164561,-0.180873,0.367805,-0.142177,0.423231,0.081189,0.710873,0.306662,0.956995,
0.501814,1.128754,0.634215,1.193305,0.733511,1.139803,0.841217,0.985252,0.855944,0.951401,0.884921,0.813024,0.829806,0.673756,0.671292,0.475700,0.598961,0.389946,0.394462,0.068969,0.345234,-0.198275,0.449545,-0.418773,0.581049,-0.533733,0.750196,-0.569800,0.941543,-0.469693,1.182647,-0.226172,1.495502,0.134972,1.732980,-0.010311,1.860112,-0.084927,2.127912,-0.234129,
2.419622,-0.390070,2.528848,-0.448446,2.733545,-0.577451,2.820529,-0.683236,2.818685,-0.795120,2.780328,-0.949660,2.722922,-1.377165,2.718154,-1.812892,2.769032,-2.173306,2.807888,-2.297447,3.047343,-2.738531,3.401093,-3.084586,3.841360,-3.323897,4.340364,-3.444752,4.870327,-3.435434,5.403468,-3.284231,5.509158,-3.239231,5.706261,-3.168010,5.873038,-3.148188,6.073959,-3.177820,
6.373497,-3.254960,6.838700,-3.343057,7.359877,-3.323272,7.821208,-3.153210,8.239595,-2.829013,8.259081,-2.809450,8.576891,-2.451583,8.774135,-2.119171,8.875539,-1.755626,8.905830,-1.304361,8.894256,-0.938397,8.814508,-0.478031,8.640731,-0.069677,8.351385,0.350975,8.015241,0.776229,8.349113,1.155528,8.470455,1.304887,8.707822,1.649077,8.894985,1.982576,8.955736,2.106598,
9.091636,2.326262,9.245896,2.457094,9.470365,2.550251,9.481788,2.554070,9.781235,2.686035,10.047085,2.856197,10.237370,3.032866,10.310125,3.184353,10.247685,3.331435,10.051352,3.489126,9.758271,3.618009,9.406614,3.696448,9.147417,3.740797,8.918596,3.829571,8.754814,3.977162,8.666978,4.082353,8.090110,4.648780,7.401705,5.122431,7.137817,5.286526,6.918419,5.463169,
6.857282,5.587126,6.883444,5.651543,7.009097,5.744867,7.012508,5.745448,7.182521,5.710736,7.182521,5.710736,$1*%
G04 Aperture macros list end*
%ADD10C,6.000000*%
%ADD11FreePoly0,16.000000*%
%ADD12FreePoly0,165.000000*%
%ADD13FreePoly0,135.000000*%
%ADD14FreePoly0,227.000000*%
%ADD15FreePoly1,270.000000*%
%ADD16C,5.000000*%
%ADD17FreePoly1,180.000000*%
%ADD18FreePoly1,90.000000*%
%ADD19FreePoly1,0.000000*%
%ADD20O,1.800000X1.800000*%
%ADD21O,1.500000X1.500000*%
%ADD22FreePoly0,314.000000*%
%ADD23FreePoly0,344.000000*%
%ADD24FreePoly0,286.000000*%
%ADD25FreePoly0,195.000000*%
%ADD26FreePoly0,254.000000*%
%ADD27R,1.700000X1.700000*%
%ADD28O,1.700000X1.700000*%
%ADD29FreePoly0,47.000000*%
%ADD30FreePoly2,180.000000*%
G04 APERTURE END LIST*
D10*
%TO.C,PWR1*%
X190164244Y-99491314D03*
D11*
X190164244Y-99491314D03*
%TD*%
D12*
%TO.C,GND1*%
X109850488Y-99443651D03*
D10*
X109850488Y-99443651D03*
%TD*%
D13*
%TO.C,GND2*%
X120476757Y-80852757D03*
D10*
X120476757Y-80852757D03*
%TD*%
%TO.C,D1*%
X120827800Y-139547600D03*
D14*
X120827800Y-139547600D03*
%TD*%
D15*
%TO.C,D10/Up1*%
X123748800Y-98896800D03*
D16*
X123748800Y-103896800D03*
%TD*%
%TO.C,D12/Right1*%
X113273200Y-109982000D03*
D17*
X118273200Y-109982000D03*
%TD*%
D16*
%TO.C,D13/Down1*%
X123750000Y-120500000D03*
D15*
X123750000Y-115500000D03*
%TD*%
D18*
%TO.C,D20/Click1*%
X175031400Y-119390800D03*
D16*
X175031400Y-114390800D03*
%TD*%
D19*
%TO.C,D11/Left1*%
X129148200Y-109880400D03*
D16*
X134148200Y-109880400D03*
%TD*%
D15*
%TO.C,D21/Space1*%
X175000000Y-100000000D03*
D16*
X175000000Y-105000000D03*
%TD*%
D20*
%TO.C,U1*%
X152725000Y-69000000D03*
X147275000Y-69000000D03*
D21*
X152425000Y-72030000D03*
X147575000Y-72030000D03*
%TD*%
D10*
%TO.C,A1*%
X179247800Y-139395200D03*
D22*
X179247800Y-139395200D03*
%TD*%
D10*
%TO.C,A2*%
X190011844Y-120879086D03*
D23*
X190011844Y-120879086D03*
%TD*%
D10*
%TO.C,A0*%
X160832800Y-150037800D03*
D24*
X160832800Y-150037800D03*
%TD*%
D25*
%TO.C,D0*%
X110083600Y-121005600D03*
D10*
X110083600Y-121005600D03*
%TD*%
%TO.C,D2*%
X139395200Y-150088600D03*
D26*
X139395200Y-150088600D03*
%TD*%
D27*
%TO.C,OesenPinHeader1*%
X152725000Y-146600000D03*
D28*
X150185000Y-146600000D03*
X147645000Y-146600000D03*
%TD*%
D10*
%TO.C,PWR2*%
X179425600Y-80848200D03*
D29*
X179425600Y-80848200D03*
%TD*%
D30*
%TO.C,BieneTouchPoint1*%
X154804897Y-132066868D03*
%TD*%
M02*
