%TF.GenerationSoftware,KiCad,Pcbnew,6.0.4*%
%TF.CreationDate,2022-05-06T01:24:20+02:00*%
%TF.ProjectId,FrisbeeMitBiene02,46726973-6265-4654-9d69-744269656e65,rev?*%
%TF.SameCoordinates,Original*%
%TF.FileFunction,Paste,Top*%
%TF.FilePolarity,Positive*%
%FSLAX46Y46*%
G04 Gerber Fmt 4.6, Leading zero omitted, Abs format (unit mm)*
G04 Created by KiCad (PCBNEW 6.0.4) date 2022-05-06 01:24:20*
%MOMM*%
%LPD*%
G01*
G04 APERTURE LIST*
G04 Aperture macros list*
%AMRoundRect*
0 Rectangle with rounded corners*
0 $1 Rounding radius*
0 $2 $3 $4 $5 $6 $7 $8 $9 X,Y pos of 4 corners*
0 Add a 4 corners polygon primitive as box body*
4,1,4,$2,$3,$4,$5,$6,$7,$8,$9,$2,$3,0*
0 Add four circle primitives for the rounded corners*
1,1,$1+$1,$2,$3*
1,1,$1+$1,$4,$5*
1,1,$1+$1,$6,$7*
1,1,$1+$1,$8,$9*
0 Add four rect primitives between the rounded corners*
20,1,$1+$1,$2,$3,$4,$5,0*
20,1,$1+$1,$4,$5,$6,$7,0*
20,1,$1+$1,$6,$7,$8,$9,0*
20,1,$1+$1,$8,$9,$2,$3,0*%
G04 Aperture macros list end*
%ADD10RoundRect,0.250000X0.312500X0.625000X-0.312500X0.625000X-0.312500X-0.625000X0.312500X-0.625000X0*%
%ADD11RoundRect,0.250000X-0.312500X-0.625000X0.312500X-0.625000X0.312500X0.625000X-0.312500X0.625000X0*%
%ADD12R,3.500000X1.700000*%
%ADD13R,1.700000X3.500000*%
%ADD14R,1.800000X0.820000*%
G04 APERTURE END LIST*
D10*
%TO.C,R1*%
X135422100Y-91973400D03*
X132497100Y-91973400D03*
%TD*%
%TO.C,R2*%
X135422100Y-94742000D03*
X132497100Y-94742000D03*
%TD*%
%TO.C,R3*%
X132983700Y-119837200D03*
X130058700Y-119837200D03*
%TD*%
D11*
%TO.C,R6*%
X165745100Y-101625400D03*
X168670100Y-101625400D03*
%TD*%
%TO.C,R5*%
X165770500Y-104419400D03*
X168695500Y-104419400D03*
%TD*%
D10*
%TO.C,R4*%
X132983700Y-122682000D03*
X130058700Y-122682000D03*
%TD*%
D11*
%TO.C,R7*%
X138872500Y-126085600D03*
X141797500Y-126085600D03*
%TD*%
D12*
%TO.C,U1*%
X140210000Y-68870000D03*
X140210000Y-71410000D03*
X140210000Y-73950000D03*
X140210000Y-76490000D03*
X140210000Y-79030000D03*
X140210000Y-81570000D03*
X140210000Y-84110000D03*
X140210000Y-86650000D03*
X140210000Y-89190000D03*
X140210000Y-91730000D03*
X140210000Y-94270000D03*
X140210000Y-96810000D03*
X140210000Y-99350000D03*
X140210000Y-101890000D03*
X140210000Y-104430000D03*
X140210000Y-106970000D03*
X140210000Y-109510000D03*
X140210000Y-112050000D03*
X140210000Y-114590000D03*
X140210000Y-117130000D03*
X159790000Y-117130000D03*
X159790000Y-114590000D03*
X159790000Y-112050000D03*
X159790000Y-109510000D03*
X159790000Y-106970000D03*
X159790000Y-104430000D03*
X159790000Y-101890000D03*
X159790000Y-99350000D03*
X159790000Y-96810000D03*
X159790000Y-94270000D03*
X159790000Y-91730000D03*
X159790000Y-89190000D03*
X159790000Y-86650000D03*
X159790000Y-84110000D03*
X159790000Y-81570000D03*
X159790000Y-79030000D03*
X159790000Y-76490000D03*
X159790000Y-73950000D03*
X159790000Y-71410000D03*
X159790000Y-68870000D03*
D13*
X147460000Y-117800000D03*
X150000000Y-117800000D03*
X152540000Y-117800000D03*
%TD*%
D14*
%TO.C,NeoPixel1*%
X147550000Y-135560000D03*
X147550000Y-134060000D03*
X152650000Y-134060000D03*
X152650000Y-135560000D03*
%TD*%
D10*
%TO.C,R8*%
X161462500Y-126000000D03*
X158537500Y-126000000D03*
%TD*%
M02*
